GeezHandwritingOutlines.ufo
<glyph name="asterisk" format="2">
  <advance width="1024"/>
  <unicode hex="002A"/>
  <outline>
    <contour>
      <point x="762" y="1192" type="curve"/>
      <point x="750" y="1210"/>
      <point x="735" y="1219"/>
      <point x="719" y="1219" type="curve" smooth="yes"/>
      <point x="711" y="1219"/>
      <point x="702.905" y="1216.17"/>
      <point x="692" y="1210" type="curve" smooth="yes"/>
      <point x="563" y="1137" type="line"/>
      <point x="563" y="1284" type="line" smooth="yes"/>
      <point x="563" y="1315"/>
      <point x="547" y="1333"/>
      <point x="512" y="1335" type="curve"/>
      <point x="477" y="1333"/>
      <point x="461" y="1315"/>
      <point x="461" y="1284" type="curve" smooth="yes"/>
      <point x="461" y="1137" type="line"/>
      <point x="332" y="1210" type="line" smooth="yes"/>
      <point x="321.095" y="1216.17"/>
      <point x="313" y="1219"/>
      <point x="305" y="1219" type="curve" smooth="yes"/>
      <point x="289" y="1219"/>
      <point x="274" y="1210"/>
      <point x="262" y="1192" type="curve"/>
      <point x="248" y="1161"/>
      <point x="254.119" y="1137.21"/>
      <point x="281" y="1122" type="curve" smooth="yes"/>
      <point x="410" y="1049" type="line"/>
      <point x="281" y="973" type="line" smooth="yes"/>
      <point x="255.138" y="957.764"/>
      <point x="248" y="934"/>
      <point x="262" y="903" type="curve"/>
      <point x="276" y="885"/>
      <point x="291" y="877"/>
      <point x="305" y="877" type="curve" smooth="yes"/>
      <point x="313" y="877"/>
      <point x="321.095" y="878.829"/>
      <point x="332" y="885" type="curve" smooth="yes"/>
      <point x="461" y="958" type="line"/>
      <point x="461" y="811" type="line" smooth="yes"/>
      <point x="461" y="780"/>
      <point x="477" y="762"/>
      <point x="512" y="760" type="curve"/>
      <point x="547" y="762"/>
      <point x="563" y="780"/>
      <point x="563" y="811" type="curve" smooth="yes"/>
      <point x="563" y="958" type="line"/>
      <point x="692" y="885" type="line" smooth="yes"/>
      <point x="702.905" y="878.829"/>
      <point x="711" y="877"/>
      <point x="719" y="877" type="curve" smooth="yes"/>
      <point x="735" y="877"/>
      <point x="750" y="885"/>
      <point x="762" y="903" type="curve"/>
      <point x="776" y="934"/>
      <point x="769.792" y="957.631"/>
      <point x="743" y="973" type="curve" smooth="yes"/>
      <point x="614" y="1047" type="line"/>
      <point x="743" y="1122" type="line" smooth="yes"/>
      <point x="768.949" y="1137.09"/>
      <point x="776" y="1161"/>
    </contour>
  </outline>
</glyph>
<glyph name="less" format="2">
  <advance width="1024"/>
  <unicode hex="003C"/>
  <outline>
    <contour>
      <point x="799" y="311" type="curve"/>
      <point x="815" y="340"/>
      <point x="810.947" y="364.927"/>
      <point x="786" y="383" type="curve" smooth="yes"/>
      <point x="365" y="688" type="line"/>
      <point x="786" y="993" type="line" smooth="yes"/>
      <point x="810.947" y="1011.07"/>
      <point x="815" y="1034"/>
      <point x="799" y="1063" type="curve"/>
      <point x="784" y="1081"/>
      <point x="766" y="1087"/>
      <point x="748" y="1085" type="curve"/>
      <point x="741" y="1083"/>
      <point x="735.11" y="1080.85"/>
      <point x="727" y="1075" type="curve" smooth="yes"/>
      <point x="264" y="741" type="line" smooth="yes"/>
      <point x="236.093" y="720.868"/>
      <point x="225" y="702"/>
      <point x="225" y="690" type="curve" smooth="yes"/>
      <point x="225" y="676"/>
      <point x="236.151" y="655.21"/>
      <point x="264" y="635" type="curve" smooth="yes"/>
      <point x="727" y="299" type="line" smooth="yes"/>
      <point x="735.094" y="293.127"/>
      <point x="741" y="291"/>
      <point x="748" y="289" type="curve"/>
      <point x="766" y="287"/>
      <point x="784" y="293"/>
    </contour>
  </outline>
</glyph>
<glyph name="equal" format="2">
  <advance width="1024"/>
  <unicode hex="003D"/>
  <outline>
    <contour>
      <point x="905" y="567" type="curve"/>
      <point x="903" y="602"/>
      <point x="885" y="618"/>
      <point x="854" y="618" type="curve" smooth="yes"/>
      <point x="172" y="618" type="line" smooth="yes"/>
      <point x="141" y="618"/>
      <point x="123" y="602"/>
      <point x="121" y="567" type="curve"/>
      <point x="123" y="532"/>
      <point x="141" y="516"/>
      <point x="172" y="516" type="curve" smooth="yes"/>
      <point x="854" y="516" type="line" smooth="yes"/>
      <point x="885" y="516"/>
      <point x="903" y="532"/>
    </contour>
    <contour>
      <point x="903" y="813" type="curve"/>
      <point x="901" y="848"/>
      <point x="883" y="864"/>
      <point x="852" y="864" type="curve" smooth="yes"/>
      <point x="170" y="864" type="line" smooth="yes"/>
      <point x="139" y="864"/>
      <point x="121" y="848"/>
      <point x="119" y="813" type="curve"/>
      <point x="121" y="778"/>
      <point x="139" y="762"/>
      <point x="170" y="762" type="curve" smooth="yes"/>
      <point x="852" y="762" type="line" smooth="yes"/>
      <point x="883" y="762"/>
      <point x="901" y="778"/>
    </contour>
  </outline>
</glyph>
<glyph name="C" format="2">
  <advance width="1434"/>
  <unicode hex="0043"/>
  <outline>
    <contour>
      <point x="1327" y="1063" type="curve"/>
      <point x="1194" y="1241"/>
      <point x="1012.01" y="1331"/>
      <point x="784" y="1331" type="curve" smooth="yes"/>
      <point x="593.993" y="1331"/>
      <point x="431.751" y="1266.25"/>
      <point x="299" y="1133" type="curve" smooth="yes"/>
      <point x="167.745" y="1001.25"/>
      <point x="102" y="839.996"/>
      <point x="102" y="649" type="curve" smooth="yes"/>
      <point x="102" y="458.996"/>
      <point x="169.694" y="303.676"/>
      <point x="303" y="180" type="curve" smooth="yes"/>
      <point x="432.699" y="59.6708"/>
      <point x="593.993" y="0"/>
      <point x="784" y="0" type="curve" smooth="yes"/>
      <point x="1008.01" y="0"/>
      <point x="1185.04" y="88.9607"/>
      <point x="1323" y="264" type="curve" smooth="yes"/>
      <point x="1345.04" y="291.967"/>
      <point x="1342.96" y="313.956"/>
      <point x="1317" y="336" type="curve" smooth="yes"/>
      <point x="1289.96" y="358.957"/>
      <point x="1266.53" y="357.375"/>
      <point x="1245" y="330" type="curve" smooth="yes"/>
      <point x="1126.53" y="179.373"/>
      <point x="974.992" y="102"/>
      <point x="784" y="102" type="curve" smooth="yes"/>
      <point x="623" y="102"/>
      <point x="485.225" y="154.245"/>
      <point x="373" y="254" type="curve" smooth="yes"/>
      <point x="260.219" y="354.25"/>
      <point x="205" y="485"/>
      <point x="205" y="647" type="curve" smooth="yes"/>
      <point x="205" y="809"/>
      <point x="259.997" y="945.997"/>
      <point x="373" y="1059" type="curve" smooth="yes"/>
      <point x="485.002" y="1171"/>
      <point x="623" y="1227"/>
      <point x="784" y="1227" type="curve" smooth="yes"/>
      <point x="982.992" y="1227"/>
      <point x="1141" y="1149"/>
      <point x="1255" y="991" type="curve"/>
      <point x="1266" y="981"/>
      <point x="1276" y="975"/>
      <point x="1290" y="975" type="curve" smooth="yes"/>
      <point x="1325" y="975"/>
      <point x="1341" y="991"/>
      <point x="1341" y="1026" type="curve" smooth="yes"/>
      <point x="1341" y="1040"/>
      <point x="1337" y="1053"/>
    </contour>
  </outline>
</glyph>
<glyph name="M" format="2">
  <advance width="1536"/>
  <unicode hex="004D"/>
  <outline>
    <contour>
      <point x="1444" y="1280" type="line" smooth="yes"/>
      <point x="1444" y="1315"/>
      <point x="1427" y="1331"/>
      <point x="1393" y="1331" type="curve" smooth="yes"/>
      <point x="1374" y="1331"/>
      <point x="1360" y="1323"/>
      <point x="1350" y="1307" type="curve"/>
      <point x="770" y="129" type="line"/>
      <point x="199" y="1303" type="line" smooth="yes"/>
      <point x="190.198" y="1321.1"/>
      <point x="176" y="1331"/>
      <point x="154" y="1331" type="curve" smooth="yes"/>
      <point x="119" y="1331"/>
      <point x="102" y="1315"/>
      <point x="102" y="1280" type="curve" smooth="yes"/>
      <point x="102" y="51" type="line" smooth="yes"/>
      <point x="102" y="20"/>
      <point x="119" y="2"/>
      <point x="154" y="0" type="curve"/>
      <point x="188" y="2"/>
      <point x="205" y="20"/>
      <point x="205" y="51" type="curve" smooth="yes"/>
      <point x="205" y="1061" type="line"/>
      <point x="707" y="27" type="line" smooth="yes"/>
      <point x="716.182" y="8.0875"/>
      <point x="735" y="0"/>
      <point x="770" y="0" type="curve" smooth="yes"/>
      <point x="805" y="0"/>
      <point x="825.126" y="8.93725"/>
      <point x="834" y="27" type="curve" smooth="yes"/>
      <point x="1341" y="1059" type="line"/>
      <point x="1341" y="51" type="line" smooth="yes"/>
      <point x="1341" y="20"/>
      <point x="1358" y="2"/>
      <point x="1393" y="0" type="curve"/>
      <point x="1427" y="2"/>
      <point x="1444" y="20"/>
      <point x="1444" y="51" type="curve" smooth="yes"/>
    </contour>
  </outline>
</glyph>
<glyph name="grave" format="2">
  <advance width="10"/>
  <unicode hex="0060"/>
  <outline>
    <contour>
      <point x="61" y="1260" type="curve" smooth="yes"/>
      <point x="61" y="1292"/>
      <point x="43" y="1309"/>
      <point x="6" y="1309" type="curve" smooth="yes"/>
      <point x="-8" y="1309"/>
      <point x="-22.9795" y="1299.99"/>
      <point x="-33" y="1284" type="curve" smooth="yes"/>
      <point x="-342" y="791" type="line" smooth="yes"/>
      <point x="-347.468" y="782.276"/>
      <point x="-350" y="774"/>
      <point x="-350" y="764" type="curve" smooth="yes"/>
      <point x="-350" y="748"/>
      <point x="-342" y="733"/>
      <point x="-326" y="721" type="curve"/>
      <point x="-315" y="715"/>
      <point x="-305" y="713"/>
      <point x="-295" y="713" type="curve" smooth="yes"/>
      <point x="-281" y="713"/>
      <point x="-266.005" y="721.004"/>
      <point x="-256" y="737" type="curve" smooth="yes"/>
      <point x="53" y="1231" type="line" smooth="yes"/>
      <point x="58.736" y="1240.17"/>
      <point x="61" y="1249"/>
    </contour>
  </outline>
</glyph>
<glyph name="b" format="2">
  <advance width="819"/>
  <unicode hex="0062"/>
  <outline>
    <contour>
      <point x="614" y="342" type="curve" smooth="yes"/>
      <point x="614" y="283"/>
      <point x="594" y="229"/>
      <point x="555" y="178" type="curve" smooth="yes"/>
      <point x="516" y="127"/>
      <point x="467" y="102"/>
      <point x="410" y="102" type="curve" smooth="yes"/>
      <point x="352" y="102"/>
      <point x="303" y="127"/>
      <point x="264" y="178" type="curve" smooth="yes"/>
      <point x="225" y="229"/>
      <point x="205" y="283"/>
      <point x="205" y="342" type="curve" smooth="yes"/>
      <point x="205" y="401"/>
      <point x="225" y="455"/>
      <point x="264" y="506" type="curve" smooth="yes"/>
      <point x="303" y="557"/>
      <point x="352" y="582"/>
      <point x="410" y="582" type="curve" smooth="yes"/>
      <point x="469" y="582"/>
      <point x="518.249" y="555.2"/>
      <point x="559" y="504" type="curve" smooth="yes"/>
      <point x="596.251" y="457.197"/>
      <point x="614" y="401"/>
    </contour>
    <contour>
      <point x="717" y="342" type="curve" smooth="yes"/>
      <point x="717" y="434"/>
      <point x="688.236" y="512.196"/>
      <point x="633" y="578" type="curve" smooth="yes"/>
      <point x="573.235" y="649.199"/>
      <point x="500" y="684"/>
      <point x="410" y="684" type="curve" smooth="yes"/>
      <point x="330" y="684"/>
      <point x="262" y="653"/>
      <point x="205" y="594" type="curve"/>
      <point x="205" y="1280" type="line" smooth="yes"/>
      <point x="205" y="1311"/>
      <point x="188" y="1329"/>
      <point x="154" y="1331" type="curve"/>
      <point x="119" y="1329"/>
      <point x="102" y="1311"/>
      <point x="102" y="1280" type="curve" smooth="yes"/>
      <point x="102" y="51" type="line" smooth="yes"/>
      <point x="102" y="20"/>
      <point x="119" y="2"/>
      <point x="154" y="0" type="curve"/>
      <point x="188" y="2"/>
      <point x="205" y="20"/>
      <point x="205" y="51" type="curve" smooth="yes"/>
      <point x="205" y="90" type="line"/>
      <point x="262" y="31"/>
      <point x="330" y="0"/>
      <point x="410" y="0" type="curve" smooth="yes"/>
      <point x="498" y="0"/>
      <point x="571.137" y="34.8812"/>
      <point x="631" y="106" type="curve" smooth="yes"/>
      <point x="688.14" y="173.884"/>
      <point x="717" y="252"/>
    </contour>
  </outline>
</glyph>
<glyph name="h" format="2">
  <advance width="819"/>
  <unicode hex="0068"/>
  <outline>
    <contour>
      <point x="645" y="461" type="line" smooth="yes"/>
      <point x="645" y="598"/>
      <point x="524.005" y="684"/>
      <point x="375" y="684" type="curve" smooth="yes"/>
      <point x="296.997" y="684"/>
      <point x="240" y="666"/>
      <point x="205" y="631" type="curve"/>
      <point x="205" y="1280" type="line" smooth="yes"/>
      <point x="205" y="1311"/>
      <point x="188" y="1329"/>
      <point x="154" y="1331" type="curve"/>
      <point x="119" y="1329"/>
      <point x="102" y="1311"/>
      <point x="102" y="1280" type="curve" smooth="yes"/>
      <point x="102" y="51" type="line" smooth="yes"/>
      <point x="102" y="20"/>
      <point x="119" y="2"/>
      <point x="154" y="0" type="curve"/>
      <point x="188" y="2"/>
      <point x="205" y="20"/>
      <point x="205" y="51" type="curve" smooth="yes"/>
      <point x="205" y="461" type="line"/>
      <point x="227" y="541"/>
      <point x="283" y="582"/>
      <point x="375" y="582" type="curve" smooth="yes"/>
      <point x="473" y="582"/>
      <point x="543" y="535"/>
      <point x="543" y="461" type="curve" smooth="yes"/>
      <point x="543" y="53" type="line" smooth="yes"/>
      <point x="543" y="23"/>
      <point x="559" y="4"/>
      <point x="594" y="0" type="curve"/>
      <point x="629" y="4"/>
      <point x="645" y="23"/>
      <point x="645" y="53" type="curve" smooth="yes"/>
    </contour>
  </outline>
</glyph>
<glyph name="n" format="2">
  <advance width="819"/>
  <unicode hex="006E"/>
  <outline>
    <contour>
      <point x="645" y="432" type="line" smooth="yes"/>
      <point x="645" y="594.01"/>
      <point x="539" y="684"/>
      <point x="375" y="684" type="curve" smooth="yes"/>
      <point x="297" y="684"/>
      <point x="240" y="666"/>
      <point x="205" y="631" type="curve"/>
      <point x="205" y="639" type="line"/>
      <point x="201" y="670"/>
      <point x="184.01" y="685.847"/>
      <point x="154" y="684" type="curve" smooth="yes"/>
      <point x="119.009" y="681.847"/>
      <point x="102" y="664"/>
      <point x="102" y="633" type="curve" smooth="yes"/>
      <point x="102" y="51" type="line" smooth="yes"/>
      <point x="102" y="16"/>
      <point x="119" y="0"/>
      <point x="154" y="0" type="curve" smooth="yes"/>
      <point x="188" y="0"/>
      <point x="205" y="15.9987"/>
      <point x="205" y="51" type="curve" smooth="yes"/>
      <point x="205" y="461" type="line"/>
      <point x="227" y="541"/>
      <point x="283" y="582"/>
      <point x="375" y="582" type="curve" smooth="yes"/>
      <point x="471" y="582"/>
      <point x="528" y="541"/>
      <point x="543" y="461" type="curve"/>
      <point x="543" y="53" type="line" smooth="yes"/>
      <point x="543" y="18"/>
      <point x="559" y="0"/>
      <point x="594" y="0" type="curve" smooth="yes"/>
      <point x="629" y="0"/>
      <point x="645" y="17.998"/>
      <point x="645" y="53" type="curve" smooth="yes"/>
    </contour>
  </outline>
</glyph>
<glyph name="t" format="2">
  <advance width="819"/>
  <unicode hex="0074"/>
  <outline>
    <contour>
      <point x="625" y="684" type="curve"/>
      <point x="623" y="719"/>
      <point x="604" y="735"/>
      <point x="573" y="735" type="curve" smooth="yes"/>
      <point x="416" y="735" type="line"/>
      <point x="416" y="1280" type="line" smooth="yes"/>
      <point x="416" y="1311"/>
      <point x="399" y="1329"/>
      <point x="365" y="1331" type="curve"/>
      <point x="330" y="1329"/>
      <point x="313" y="1311"/>
      <point x="313" y="1280" type="curve" smooth="yes"/>
      <point x="313" y="735" type="line"/>
      <point x="154" y="735" type="line" smooth="yes"/>
      <point x="123" y="735"/>
      <point x="104" y="719"/>
      <point x="102" y="684" type="curve"/>
      <point x="104" y="649"/>
      <point x="123" y="633"/>
      <point x="154" y="633" type="curve" smooth="yes"/>
      <point x="313" y="633" type="line"/>
      <point x="313" y="51" type="line" smooth="yes"/>
      <point x="313" y="20"/>
      <point x="330" y="2"/>
      <point x="365" y="0" type="curve"/>
      <point x="399" y="2"/>
      <point x="416" y="20"/>
      <point x="416" y="51" type="curve" smooth="yes"/>
      <point x="416" y="633" type="line"/>
      <point x="573" y="633" type="line" smooth="yes"/>
      <point x="604" y="633"/>
      <point x="623" y="649"/>
    </contour>
  </outline>
</glyph>
<glyph name="y" format="2">
  <advance width="819"/>
  <unicode hex="0079"/>
  <outline>
    <contour>
      <point x="684" y="616" type="line" smooth="yes"/>
      <point x="686.063" y="620.975"/>
      <point x="688" y="625"/>
      <point x="688" y="629" type="curve" smooth="yes"/>
      <point x="688" y="651"/>
      <point x="676" y="668"/>
      <point x="653" y="678" type="curve"/>
      <point x="623" y="688"/>
      <point x="600.183" y="677.926"/>
      <point x="588" y="649" type="curve" smooth="yes"/>
      <point x="393" y="186" type="line"/>
      <point x="203" y="649" type="line" smooth="yes"/>
      <point x="191.084" y="678.037"/>
      <point x="168" y="688"/>
      <point x="135" y="678" type="curve"/>
      <point x="104" y="662"/>
      <point x="96.9247" y="638.971"/>
      <point x="109" y="610" type="curve" smooth="yes"/>
      <point x="342" y="51" type="line"/>
      <point x="72" y="-592" type="line" smooth="yes"/>
      <point x="58.9855" y="-622.994"/>
      <point x="68.1018" y="-644.786"/>
      <point x="98" y="-659" type="curve" smooth="yes"/>
      <point x="129.103" y="-673.787"/>
      <point x="153.122" y="-664.051"/>
      <point x="166" y="-633" type="curve" smooth="yes"/>
    </contour>
  </outline>
</glyph>
<glyph name="dieresis" format="2">
  <advance width="819"/>
  <unicode hex="00A8"/>
  <outline>
    <contour>
      <point x="274" y="1212" type="curve" smooth="yes"/>
      <point x="274" y="1253"/>
      <point x="254" y="1274"/>
      <point x="211" y="1274" type="curve" smooth="yes"/>
      <point x="170" y="1274"/>
      <point x="150" y="1253"/>
      <point x="150" y="1212" type="curve" smooth="yes"/>
      <point x="150" y="1169"/>
      <point x="170" y="1149"/>
      <point x="211" y="1149" type="curve" smooth="yes"/>
      <point x="254" y="1149"/>
      <point x="274" y="1169"/>
    </contour>
    <contour>
      <point x="592" y="1212" type="curve" smooth="yes"/>
      <point x="592" y="1253"/>
      <point x="571" y="1274"/>
      <point x="528" y="1274" type="curve" smooth="yes"/>
      <point x="487" y="1274"/>
      <point x="467" y="1253"/>
      <point x="467" y="1212" type="curve" smooth="yes"/>
      <point x="467" y="1169"/>
      <point x="487" y="1149"/>
      <point x="528" y="1149" type="curve" smooth="yes"/>
      <point x="571" y="1149"/>
      <point x="592" y="1169"/>
    </contour>
  </outline>
</glyph>
<glyph name="paragraph" format="2">
  <advance width="1024"/>
  <unicode hex="00B6"/>
  <outline>
    <contour>
      <point x="336" y="823" type="line" smooth="yes"/>
      <point x="221" y="823"/>
      <point x="129" y="917.996"/>
      <point x="129" y="1026" type="curve" smooth="yes"/>
      <point x="129" y="1139"/>
      <point x="219" y="1229"/>
      <point x="332" y="1229" type="curve" smooth="yes"/>
      <point x="410" y="1229" type="line"/>
      <point x="410" y="823" type="line"/>
    </contour>
    <contour>
      <point x="512" y="823" type="line"/>
      <point x="512" y="1229" type="line"/>
      <point x="682" y="1229" type="line"/>
      <point x="682" y="823" type="line"/>
    </contour>
    <contour>
      <point x="784" y="1280" type="line" smooth="yes"/>
      <point x="784" y="1315"/>
      <point x="768.002" y="1331"/>
      <point x="733" y="1331" type="curve" smooth="yes"/>
      <point x="334" y="1331" type="line" smooth="yes"/>
      <point x="249.995" y="1331"/>
      <point x="178.247" y="1299.75"/>
      <point x="119" y="1241" type="curve" smooth="yes"/>
      <point x="59.2472" y="1181.75"/>
      <point x="31" y="1110"/>
      <point x="31" y="1026" type="curve" smooth="yes"/>
      <point x="31" y="942"/>
      <point x="59.2472" y="868.251"/>
      <point x="119" y="809" type="curve" smooth="yes"/>
      <point x="178.247" y="750.251"/>
      <point x="252" y="721"/>
      <point x="336" y="721" type="curve" smooth="yes"/>
      <point x="410" y="721" type="line"/>
      <point x="410" y="51" type="line" smooth="yes"/>
      <point x="410" y="20"/>
      <point x="426" y="2"/>
      <point x="461" y="0" type="curve"/>
      <point x="496" y="2"/>
      <point x="512" y="20"/>
      <point x="512" y="51" type="curve" smooth="yes"/>
      <point x="512" y="721" type="line"/>
      <point x="682" y="721" type="line"/>
      <point x="682" y="55" type="line" smooth="yes"/>
      <point x="682" y="18"/>
      <point x="698" y="0"/>
      <point x="731" y="0" type="curve" smooth="yes"/>
      <point x="766" y="0"/>
      <point x="784" y="18"/>
      <point x="784" y="55" type="curve" smooth="yes"/>
    </contour>
  </outline>
</glyph>
<glyph name="cedilla" format="2">
  <advance width="473"/>
  <unicode hex="00B8"/>
  <outline>
    <contour>
      <point x="473" y="-266" type="curve" smooth="yes"/>
      <point x="473" y="-161.996"/>
      <point x="406" y="-121"/>
      <point x="324" y="-121" type="curve" smooth="yes"/>
      <point x="301" y="-121"/>
      <point x="291" y="-126"/>
      <point x="276" y="-129" type="curve"/>
      <point x="276" y="0" type="line"/>
      <point x="197" y="0" type="line"/>
      <point x="197" y="-229" type="line"/>
      <point x="213" y="-223" type="line" smooth="yes"/>
      <point x="221.882" y="-219.669"/>
      <point x="233" y="-217"/>
      <point x="244" y="-217" type="curve" smooth="yes"/>
      <point x="297" y="-217"/>
      <point x="340" y="-244"/>
      <point x="340" y="-293" type="curve" smooth="yes"/>
      <point x="340" y="-356"/>
      <point x="272" y="-377"/>
      <point x="207" y="-377" type="curve" smooth="yes"/>
      <point x="180" y="-377"/>
      <point x="149.971" y="-374.136"/>
      <point x="126" y="-369" type="curve" smooth="yes"/>
      <point x="84" y="-360" type="line"/>
      <point x="84" y="-440" type="line"/>
      <point x="99" y="-445"/>
      <point x="115.993" y="-448.043"/>
      <point x="133" y="-451" type="curve" smooth="yes"/>
      <point x="161.991" y="-456.042"/>
      <point x="200" y="-461"/>
      <point x="236" y="-461" type="curve" smooth="yes"/>
      <point x="372" y="-461"/>
      <point x="473" y="-393.004"/>
    </contour>
  </outline>
</glyph>
<glyph name="guillemotright" format="2">
  <advance width="1229"/>
  <unicode hex="00BB"/>
  <outline>
    <contour>
      <point x="643" y="518" type="curve" smooth="yes"/>
      <point x="643" y="530"/>
      <point x="631.908" y="548.871"/>
      <point x="604" y="569" type="curve" smooth="yes"/>
      <point x="317" y="776" type="line" smooth="yes"/>
      <point x="308.889" y="781.85"/>
      <point x="301" y="784"/>
      <point x="295" y="786" type="curve"/>
      <point x="276" y="788"/>
      <point x="259.229" y="782.841"/>
      <point x="246" y="764" type="curve" smooth="yes"/>
      <point x="226.228" y="735.84"/>
      <point x="231.81" y="710.738"/>
      <point x="258" y="692" type="curve" smooth="yes"/>
      <point x="504" y="516" type="line"/>
      <point x="246" y="330" type="line" smooth="yes"/>
      <point x="219.878" y="311.168"/>
      <point x="215" y="289"/>
      <point x="233" y="260" type="curve"/>
      <point x="248" y="242"/>
      <point x="264" y="236"/>
      <point x="283" y="238" type="curve"/>
      <point x="289" y="240"/>
      <point x="296.888" y="242.152"/>
      <point x="305" y="248" type="curve" smooth="yes"/>
      <point x="606" y="465" type="line"/>
      <point x="631" y="487"/>
      <point x="643" y="504"/>
    </contour>
    <contour>
      <point x="1014" y="524" type="curve" smooth="yes"/>
      <point x="1014" y="537"/>
      <point x="1001.69" y="553.565"/>
      <point x="975" y="573" type="curve" smooth="yes"/>
      <point x="688" y="782" type="line" smooth="yes"/>
      <point x="679.916" y="787.887"/>
      <point x="672" y="791"/>
      <point x="666" y="793" type="curve"/>
      <point x="647" y="795"/>
      <point x="631" y="788"/>
      <point x="616" y="770" type="curve"/>
      <point x="598" y="741"/>
      <point x="602.946" y="716.928"/>
      <point x="629" y="698" type="curve" smooth="yes"/>
      <point x="874" y="520" type="line"/>
      <point x="616" y="336" type="line" smooth="yes"/>
      <point x="589.782" y="317.302"/>
      <point x="586" y="293"/>
      <point x="604" y="264" type="curve"/>
      <point x="618" y="246"/>
      <point x="635" y="240"/>
      <point x="653" y="242" type="curve"/>
      <point x="659" y="244"/>
      <point x="667.888" y="246.152"/>
      <point x="676" y="252" type="curve" smooth="yes"/>
      <point x="977" y="469" type="line"/>
      <point x="1001" y="492"/>
      <point x="1014" y="510"/>
    </contour>
  </outline>
</glyph>
<glyph name="Aacute" format="2">
  <advance width="1331"/>
  <unicode hex="00C1"/>
  <outline>
    <contour>
      <point x="481" y="567" type="line"/>
      <point x="645" y="881" type="line"/>
      <point x="811" y="567" type="line"/>
    </contour>
    <contour>
      <point x="1192" y="51" type="curve" smooth="yes"/>
      <point x="1192" y="59"/>
      <point x="1190" y="68"/>
      <point x="1184" y="76" type="curve"/>
      <point x="698" y="1001" type="line" smooth="yes"/>
      <point x="681.774" y="1031.88"/>
      <point x="664" y="1049"/>
      <point x="645" y="1049" type="curve" smooth="yes"/>
      <point x="627" y="1049"/>
      <point x="609.156" y="1031.92"/>
      <point x="592" y="999" type="curve" smooth="yes"/>
      <point x="111" y="76" type="line"/>
      <point x="104" y="68"/>
      <point x="102" y="59"/>
      <point x="102" y="51" type="curve" smooth="yes"/>
      <point x="102" y="33"/>
      <point x="113" y="18"/>
      <point x="131" y="6" type="curve"/>
      <point x="141" y="2"/>
      <point x="150" y="0"/>
      <point x="158" y="0" type="curve" smooth="yes"/>
      <point x="176" y="0"/>
      <point x="191.085" y="9.95525"/>
      <point x="201" y="29" type="curve" smooth="yes"/>
      <point x="428" y="465" type="line"/>
      <point x="864" y="465" type="line"/>
      <point x="1094" y="29" type="line" smooth="yes"/>
      <point x="1104.02" y="10.0098"/>
      <point x="1118" y="0"/>
      <point x="1137" y="0" type="curve" smooth="yes"/>
      <point x="1145" y="0"/>
      <point x="1153" y="2"/>
      <point x="1163" y="6" type="curve"/>
      <point x="1182" y="18"/>
      <point x="1192" y="33"/>
    </contour>
    <contour>
      <point x="864" y="1313" type="curve" smooth="yes"/>
      <point x="864" y="1339"/>
      <point x="836" y="1366"/>
      <point x="811" y="1366" type="curve" smooth="yes"/>
      <point x="799" y="1366"/>
      <point x="786.548" y="1360.48"/>
      <point x="776" y="1350" type="curve" smooth="yes"/>
      <point x="631" y="1206" type="line" smooth="yes"/>
      <point x="620.452" y="1195.52"/>
      <point x="614" y="1184"/>
      <point x="614" y="1171" type="curve" smooth="yes"/>
      <point x="614" y="1147"/>
      <point x="643" y="1118"/>
      <point x="668" y="1118" type="curve" smooth="yes"/>
      <point x="680" y="1118"/>
      <point x="691.38" y="1124.6"/>
      <point x="702" y="1135" type="curve" smooth="yes"/>
      <point x="848" y="1278" type="line" smooth="yes"/>
      <point x="858.103" y="1287.9"/>
      <point x="864" y="1300"/>
    </contour>
  </outline>
</glyph>
<glyph name="Igrave" format="2">
  <advance width="717"/>
  <unicode hex="00CC"/>
  <outline>
    <contour>
      <point x="489" y="51" type="curve"/>
      <point x="487" y="86"/>
      <point x="469" y="102"/>
      <point x="438" y="102" type="curve" smooth="yes"/>
      <point x="352" y="102" type="line"/>
      <point x="352" y="1006" type="line"/>
      <point x="428" y="1006" type="line" smooth="yes"/>
      <point x="459" y="1006"/>
      <point x="477" y="1022"/>
      <point x="479" y="1057" type="curve"/>
      <point x="477" y="1092"/>
      <point x="459" y="1108"/>
      <point x="428" y="1108" type="curve" smooth="yes"/>
      <point x="154" y="1108" type="line" smooth="yes"/>
      <point x="123" y="1108"/>
      <point x="104" y="1092"/>
      <point x="102" y="1057" type="curve"/>
      <point x="104" y="1022"/>
      <point x="123" y="1006"/>
      <point x="154" y="1006" type="curve" smooth="yes"/>
      <point x="250" y="1006" type="line"/>
      <point x="250" y="102" type="line"/>
      <point x="164" y="102" type="line" smooth="yes"/>
      <point x="133" y="102"/>
      <point x="115" y="86"/>
      <point x="113" y="51" type="curve"/>
      <point x="115" y="16"/>
      <point x="133" y="0"/>
      <point x="164" y="0" type="curve" smooth="yes"/>
      <point x="438" y="0" type="line" smooth="yes"/>
      <point x="469" y="0"/>
      <point x="487" y="16"/>
    </contour>
    <contour>
      <point x="426" y="1161" type="curve" smooth="yes"/>
      <point x="426" y="1174"/>
      <point x="420.103" y="1186.1"/>
      <point x="410" y="1196" type="curve" smooth="yes"/>
      <point x="264" y="1339" type="line" smooth="yes"/>
      <point x="253.38" y="1349.4"/>
      <point x="242" y="1356"/>
      <point x="229" y="1356" type="curve" smooth="yes"/>
      <point x="203" y="1356"/>
      <point x="176" y="1329"/>
      <point x="176" y="1303" type="curve" smooth="yes"/>
      <point x="176" y="1290"/>
      <point x="182.452" y="1278.48"/>
      <point x="193" y="1268" type="curve" smooth="yes"/>
      <point x="338" y="1124" type="line" smooth="yes"/>
      <point x="348.035" y="1114.03"/>
      <point x="360" y="1108"/>
      <point x="373" y="1108" type="curve" smooth="yes"/>
      <point x="397" y="1108"/>
      <point x="426" y="1137"/>
    </contour>
  </outline>
</glyph>
<glyph name="Icircumflex" format="2">
  <advance width="717"/>
  <unicode hex="00CE"/>
  <outline>
    <contour>
      <point x="489" y="51" type="curve"/>
      <point x="487" y="86"/>
      <point x="469" y="102"/>
      <point x="438" y="102" type="curve" smooth="yes"/>
      <point x="352" y="102" type="line"/>
      <point x="352" y="1006" type="line"/>
      <point x="428" y="1006" type="line" smooth="yes"/>
      <point x="459" y="1006"/>
      <point x="477" y="1022"/>
      <point x="479" y="1057" type="curve"/>
      <point x="477" y="1092"/>
      <point x="459" y="1108"/>
      <point x="428" y="1108" type="curve" smooth="yes"/>
      <point x="154" y="1108" type="line" smooth="yes"/>
      <point x="123" y="1108"/>
      <point x="104" y="1092"/>
      <point x="102" y="1057" type="curve"/>
      <point x="104" y="1022"/>
      <point x="123" y="1006"/>
      <point x="154" y="1006" type="curve" smooth="yes"/>
      <point x="250" y="1006" type="line"/>
      <point x="250" y="102" type="line"/>
      <point x="164" y="102" type="line" smooth="yes"/>
      <point x="133" y="102"/>
      <point x="115" y="86"/>
      <point x="113" y="51" type="curve"/>
      <point x="115" y="16"/>
      <point x="133" y="0"/>
      <point x="164" y="0" type="curve" smooth="yes"/>
      <point x="438" y="0" type="line" smooth="yes"/>
      <point x="469" y="0"/>
      <point x="487" y="16"/>
    </contour>
    <contour>
      <point x="500" y="1169" type="curve" smooth="yes"/>
      <point x="500" y="1182"/>
      <point x="492.897" y="1193.9"/>
      <point x="483" y="1204" type="curve" smooth="yes"/>
      <point x="338" y="1352" type="line"/>
      <point x="322" y="1362"/>
      <point x="309" y="1366"/>
      <point x="303" y="1368" type="curve"/>
      <point x="266" y="1352" type="line"/>
      <point x="119" y="1204" type="line" smooth="yes"/>
      <point x="109.034" y="1193.97"/>
      <point x="102" y="1182"/>
      <point x="102" y="1169" type="curve" smooth="yes"/>
      <point x="102" y="1145"/>
      <point x="131" y="1116"/>
      <point x="156" y="1116" type="curve" smooth="yes"/>
      <point x="168" y="1116"/>
      <point x="179.535" y="1122.44"/>
      <point x="190" y="1133" type="curve" smooth="yes"/>
      <point x="301" y="1245" type="line"/>
      <point x="412" y="1133" type="line" smooth="yes"/>
      <point x="422.465" y="1122.44"/>
      <point x="434" y="1116"/>
      <point x="446" y="1116" type="curve" smooth="yes"/>
      <point x="471" y="1116"/>
      <point x="500" y="1145"/>
    </contour>
  </outline>
</glyph>
<glyph name="Oacute" format="2">
  <advance width="1331"/>
  <unicode hex="00D3"/>
  <outline>
    <contour>
      <point x="1112" y="555" type="curve" smooth="yes"/>
      <point x="1112" y="428"/>
      <point x="1067.25" y="321.749"/>
      <point x="979" y="233" type="curve" smooth="yes"/>
      <point x="891.251" y="144.753"/>
      <point x="784" y="102"/>
      <point x="657" y="102" type="curve" smooth="yes"/>
      <point x="530" y="102"/>
      <point x="423.749" y="144.752"/>
      <point x="336" y="233" type="curve" smooth="yes"/>
      <point x="247.752" y="321.749"/>
      <point x="205" y="428"/>
      <point x="205" y="555" type="curve" smooth="yes"/>
      <point x="205" y="682"/>
      <point x="247.752" y="788.251"/>
      <point x="336" y="877" type="curve" smooth="yes"/>
      <point x="423.749" y="965.247"/>
      <point x="530" y="1010"/>
      <point x="657" y="1010" type="curve" smooth="yes"/>
      <point x="784" y="1010"/>
      <point x="891.251" y="965.248"/>
      <point x="979" y="877" type="curve" smooth="yes"/>
      <point x="1067.25" y="788.251"/>
      <point x="1112" y="682"/>
    </contour>
    <contour>
      <point x="1214" y="557" type="curve" smooth="yes"/>
      <point x="1214" y="713"/>
      <point x="1161" y="843.998"/>
      <point x="1053" y="952" type="curve" smooth="yes"/>
      <point x="943.997" y="1061"/>
      <point x="813.004" y="1114"/>
      <point x="657" y="1114" type="curve" smooth="yes"/>
      <point x="501.996" y="1114"/>
      <point x="370" y="1061.01"/>
      <point x="262" y="952" type="curve" smooth="yes"/>
      <point x="154.996" y="844"/>
      <point x="102" y="713"/>
      <point x="102" y="557" type="curve" smooth="yes"/>
      <point x="102" y="401"/>
      <point x="154.996" y="270"/>
      <point x="262" y="162" type="curve" smooth="yes"/>
      <point x="370" y="52.9942"/>
      <point x="501.995" y="0"/>
      <point x="657" y="0" type="curve" smooth="yes"/>
      <point x="813.004" y="0"/>
      <point x="943.997" y="52.9967"/>
      <point x="1053" y="162" type="curve" smooth="yes"/>
      <point x="1161" y="270.002"/>
      <point x="1214" y="401"/>
    </contour>
    <contour>
      <point x="782" y="1313" type="curve" smooth="yes"/>
      <point x="782" y="1339"/>
      <point x="756" y="1366"/>
      <point x="729" y="1366" type="curve" smooth="yes"/>
      <point x="717" y="1366"/>
      <point x="704.475" y="1360.55"/>
      <point x="694" y="1350" type="curve" smooth="yes"/>
      <point x="551" y="1206" type="line" smooth="yes"/>
      <point x="541.035" y="1195.97"/>
      <point x="535" y="1184"/>
      <point x="535" y="1171" type="curve" smooth="yes"/>
      <point x="535" y="1147"/>
      <point x="561" y="1118"/>
      <point x="588" y="1118" type="curve" smooth="yes"/>
      <point x="598" y="1118"/>
      <point x="611" y="1123"/>
      <point x="623" y="1135" type="curve" smooth="yes"/>
      <point x="766" y="1278" type="line" smooth="yes"/>
      <point x="776" y="1288"/>
      <point x="782" y="1300"/>
    </contour>
  </outline>
</glyph>
<glyph name="Ocircumflex" format="2">
  <advance width="1331"/>
  <unicode hex="00D4"/>
  <outline>
    <contour>
      <point x="1112" y="555" type="curve" smooth="yes"/>
      <point x="1112" y="428"/>
      <point x="1067.25" y="321.749"/>
      <point x="979" y="233" type="curve" smooth="yes"/>
      <point x="891.251" y="144.753"/>
      <point x="784" y="102"/>
      <point x="657" y="102" type="curve" smooth="yes"/>
      <point x="530" y="102"/>
      <point x="423.749" y="144.752"/>
      <point x="336" y="233" type="curve" smooth="yes"/>
      <point x="247.752" y="321.749"/>
      <point x="205" y="428"/>
      <point x="205" y="555" type="curve" smooth="yes"/>
      <point x="205" y="682"/>
      <point x="247.752" y="788.251"/>
      <point x="336" y="877" type="curve" smooth="yes"/>
      <point x="423.749" y="965.247"/>
      <point x="530" y="1010"/>
      <point x="657" y="1010" type="curve" smooth="yes"/>
      <point x="784" y="1010"/>
      <point x="891.251" y="965.248"/>
      <point x="979" y="877" type="curve" smooth="yes"/>
      <point x="1067.25" y="788.251"/>
      <point x="1112" y="682"/>
    </contour>
    <contour>
      <point x="1214" y="557" type="curve" smooth="yes"/>
      <point x="1214" y="713"/>
      <point x="1161" y="843.998"/>
      <point x="1053" y="952" type="curve" smooth="yes"/>
      <point x="943.997" y="1061"/>
      <point x="813.004" y="1114"/>
      <point x="657" y="1114" type="curve" smooth="yes"/>
      <point x="501.996" y="1114"/>
      <point x="370" y="1061.01"/>
      <point x="262" y="952" type="curve" smooth="yes"/>
      <point x="154.996" y="844"/>
      <point x="102" y="713"/>
      <point x="102" y="557" type="curve" smooth="yes"/>
      <point x="102" y="401"/>
      <point x="154.996" y="270"/>
      <point x="262" y="162" type="curve" smooth="yes"/>
      <point x="370" y="52.9942"/>
      <point x="501.995" y="0"/>
      <point x="657" y="0" type="curve" smooth="yes"/>
      <point x="813.004" y="0"/>
      <point x="943.997" y="52.9967"/>
      <point x="1053" y="162" type="curve" smooth="yes"/>
      <point x="1161" y="270.002"/>
      <point x="1214" y="401"/>
    </contour>
    <contour>
      <point x="856" y="1169" type="curve" smooth="yes"/>
      <point x="856" y="1182"/>
      <point x="849.931" y="1193.93"/>
      <point x="840" y="1204" type="curve" smooth="yes"/>
      <point x="694" y="1352" type="line"/>
      <point x="680" y="1362"/>
      <point x="668" y="1366"/>
      <point x="659" y="1368" type="curve"/>
      <point x="623" y="1352" type="line"/>
      <point x="475" y="1204" type="line" smooth="yes"/>
      <point x="465" y="1194"/>
      <point x="459" y="1182"/>
      <point x="459" y="1169" type="curve" smooth="yes"/>
      <point x="459" y="1145"/>
      <point x="487" y="1116"/>
      <point x="512" y="1116" type="curve" smooth="yes"/>
      <point x="524" y="1116"/>
      <point x="536.583" y="1122.39"/>
      <point x="547" y="1133" type="curve" smooth="yes"/>
      <point x="657" y="1245" type="line"/>
      <point x="768" y="1133" type="line" smooth="yes"/>
      <point x="778.465" y="1122.44"/>
      <point x="791" y="1116"/>
      <point x="803" y="1116" type="curve" smooth="yes"/>
      <point x="829" y="1116"/>
      <point x="856" y="1145"/>
    </contour>
  </outline>
</glyph>
<glyph name="oacute" format="2">
  <advance width="819"/>
  <unicode hex="00F3"/>
  <outline>
    <contour>
      <point x="614" y="342" type="curve" smooth="yes"/>
      <point x="614" y="283"/>
      <point x="594" y="229"/>
      <point x="555" y="178" type="curve" smooth="yes"/>
      <point x="516" y="127"/>
      <point x="467" y="102"/>
      <point x="410" y="102" type="curve" smooth="yes"/>
      <point x="352" y="102"/>
      <point x="303" y="127"/>
      <point x="264" y="178" type="curve" smooth="yes"/>
      <point x="225" y="229"/>
      <point x="205" y="283"/>
      <point x="205" y="342" type="curve" smooth="yes"/>
      <point x="205" y="401"/>
      <point x="225" y="455"/>
      <point x="264" y="506" type="curve" smooth="yes"/>
      <point x="303" y="557"/>
      <point x="352" y="582"/>
      <point x="410" y="582" type="curve" smooth="yes"/>
      <point x="469" y="582"/>
      <point x="518.249" y="555.2"/>
      <point x="559" y="504" type="curve" smooth="yes"/>
      <point x="596.251" y="457.197"/>
      <point x="614" y="401"/>
    </contour>
    <contour>
      <point x="717" y="342" type="curve" smooth="yes"/>
      <point x="717" y="434"/>
      <point x="688.236" y="512.196"/>
      <point x="633" y="578" type="curve" smooth="yes"/>
      <point x="573.235" y="649.199"/>
      <point x="500" y="684"/>
      <point x="410" y="684" type="curve" smooth="yes"/>
      <point x="322" y="684"/>
      <point x="247.451" y="649.613"/>
      <point x="188" y="580" type="curve" smooth="yes"/>
      <point x="130.451" y="512.614"/>
      <point x="102" y="432"/>
      <point x="102" y="342" type="curve" smooth="yes"/>
      <point x="102" y="252"/>
      <point x="130.86" y="173.884"/>
      <point x="188" y="106" type="curve" smooth="yes"/>
      <point x="247.862" y="34.8812"/>
      <point x="322" y="0"/>
      <point x="410" y="0" type="curve" smooth="yes"/>
      <point x="498" y="0"/>
      <point x="571.137" y="34.8812"/>
      <point x="631" y="106" type="curve" smooth="yes"/>
      <point x="688.14" y="173.884"/>
      <point x="717" y="252"/>
    </contour>
    <contour>
      <point x="596" y="1004" type="curve" smooth="yes"/>
      <point x="596" y="1030"/>
      <point x="569" y="1057"/>
      <point x="543" y="1057" type="curve" smooth="yes"/>
      <point x="530" y="1057"/>
      <point x="518.535" y="1050.49"/>
      <point x="508" y="1040" type="curve" smooth="yes"/>
      <point x="274" y="807" type="line" smooth="yes"/>
      <point x="263.979" y="797.021"/>
      <point x="258" y="784"/>
      <point x="258" y="772" type="curve" smooth="yes"/>
      <point x="258" y="748"/>
      <point x="287" y="719"/>
      <point x="311" y="719" type="curve" smooth="yes"/>
      <point x="324" y="719"/>
      <point x="336" y="725"/>
      <point x="346" y="735" type="curve" smooth="yes"/>
      <point x="580" y="969" type="line" smooth="yes"/>
      <point x="590" y="979"/>
      <point x="596" y="991"/>
    </contour>
  </outline>
</glyph>
<glyph name="uni1201" format="2">
  <advance width="1291"/>
  <unicode hex="1201"/>
  <outline>
    <contour>
      <point x="1231" y="738" type="curve" smooth="yes"/>
      <point x="1231" y="697.379"/>
      <point x="1197.56" y="662"/>
      <point x="1156" y="662" type="curve" smooth="yes"/>
      <point x="810.32" y="661.996" type="line"/>
      <point x="789.471" y="561.691"/>
      <point x="760.589" y="469.649"/>
      <point x="733.646" y="405.823" type="curve" smooth="yes"/>
      <point x="640.889" y="186.09"/>
      <point x="477.472" y="-38"/>
      <point x="310.962" y="-38" type="curve"/>
      <point x="93.6755" y="-38"/>
      <point x="-22.598" y="126.199"/>
      <point x="14.5807" y="323.941" type="curve"/>
      <point x="14.5807" y="323.941"/>
      <point x="148.613" y="1036.67"/>
      <point x="160.126" y="1098.05" type="curve" smooth="yes"/>
      <point x="178.476" y="1195.86"/>
      <point x="325.868" y="1168.01"/>
      <point x="307.58" y="1070.53" type="curve" smooth="yes"/>
      <point x="255.545" y="793.167"/>
      <point x="163.108" y="300.995"/>
      <point x="163.108" y="300.995" type="curve"/>
      <point x="141.789" y="187.434"/>
      <point x="203.549" y="112"/>
      <point x="310.962" y="112" type="curve"/>
      <point x="367.068" y="112"/>
      <point x="496.843" y="230.56"/>
      <point x="595.455" y="464.16" type="curve" smooth="yes"/>
      <point x="657.177" y="610.373"/>
      <point x="742.018" y="948.369"/>
      <point x="657.212" y="1102.92" type="curve" smooth="yes"/>
      <point x="609.415" y="1190.02"/>
      <point x="740.909" y="1262.19"/>
      <point x="788.712" y="1175.08" type="curve" smooth="yes"/>
      <point x="841.522" y="1078.85"/>
      <point x="847.393" y="942.398"/>
      <point x="833.913" y="812.008" type="curve"/>
      <point x="1156" y="812" type="line" smooth="yes"/>
      <point x="1195.48" y="812"/>
      <point x="1231" y="780.668"/>
    </contour>
    <contour>
      <point x="1191" y="738" type="curve" smooth="yes"/>
      <point x="1191" y="756.918"/>
      <point x="1175.09" y="772"/>
      <point x="1156" y="772" type="curve" smooth="yes"/>
      <point x="788.995" y="772.003" type="line"/>
      <point x="802.959" y="887.895"/>
      <point x="813.738" y="1046.33"/>
      <point x="753.645" y="1155.84" type="curve" smooth="yes"/>
      <point x="731.207" y="1196.73"/>
      <point x="669.849" y="1163.04"/>
      <point x="692.279" y="1122.16" type="curve" smooth="yes"/>
      <point x="784.232" y="954.589"/>
      <point x="699.72" y="608.301"/>
      <point x="632.306" y="448.604" type="curve" smooth="yes"/>
      <point x="535.269" y="218.736"/>
      <point x="396.502" y="72"/>
      <point x="310.962" y="72" type="curve"/>
      <point x="172.558" y="72"/>
      <point x="98.6132" y="168.96"/>
      <point x="124.37" y="306.956" type="curve"/>
      <point x="124.37" y="306.956"/>
      <point x="221.18" y="826.925"/>
      <point x="268.266" y="1077.9" type="curve" smooth="yes"/>
      <point x="276.836" y="1123.58"/>
      <point x="208.077" y="1136.71"/>
      <point x="199.44" y="1090.67" type="curve" smooth="yes"/>
      <point x="54.5505" y="318.392" type="line" smooth="yes"/>
      <point x="22.1345" y="145.611"/>
      <point x="126.825" y="2"/>
      <point x="310.962" y="2" type="curve"/>
      <point x="448.006" y="2"/>
      <point x="602.459" y="197.908"/>
      <point x="696.795" y="421.38" type="curve" smooth="yes"/>
      <point x="734.392" y="510.445"/>
      <point x="758.909" y="607.666"/>
      <point x="777.531" y="702" type="curve"/>
      <point x="1156" y="702" type="line" smooth="yes"/>
      <point x="1174.54" y="702"/>
      <point x="1191" y="718.532"/>
    </contour>
    <contour>
      <point x="252" y="1080" type="curve" smooth="yes"/>
      <point x="252" y="1066.19"/>
      <point x="240.807" y="1055"/>
      <point x="227" y="1055" type="curve" smooth="yes"/>
      <point x="213.193" y="1055"/>
      <point x="202" y="1066.19"/>
      <point x="202" y="1080" type="curve" smooth="yes"/>
      <point x="202" y="1093.81"/>
      <point x="213.193" y="1105"/>
      <point x="227" y="1105" type="curve" smooth="yes"/>
      <point x="240.807" y="1105"/>
      <point x="252" y="1093.81"/>
    </contour>
  </outline>
</glyph>
<glyph name="uni1205" format="2">
  <advance width="1028"/>
  <unicode hex="1205"/>
  <outline>
    <contour>
      <point x="916.345" y="1173.08" type="curve" smooth="yes"/>
      <point x="1028.64" y="968.449"/>
      <point x="931.865" y="571.039"/>
      <point x="861.279" y="403.824" type="curve" smooth="yes"/>
      <point x="768.503" y="184.041"/>
      <point x="605.104" y="-40"/>
      <point x="438.595" y="-40" type="curve" smooth="yes"/>
      <point x="243.502" y="-40"/>
      <point x="107.151" y="142.574"/>
      <point x="142.942" y="324.143" type="curve" smooth="yes"/>
      <point x="191.693" y="571.457" type="line"/>
      <point x="85.0368" y="571.463" type="line" smooth="yes"/>
      <point x="43.6268" y="571.465"/>
      <point x="4.05778" y="605.462"/>
      <point x="10.0313" y="646.461" type="curve"/>
      <point x="10.0313" y="646.461"/>
      <point x="39.2773" y="849.925"/>
      <point x="54.4853" y="951.562" type="curve" smooth="yes"/>
      <point x="69.177" y="1049.75"/>
      <point x="217.538" y="1027.62"/>
      <point x="202.833" y="929.361" type="curve" smooth="yes"/>
      <point x="171.721" y="721.469" type="line"/>
      <point x="273.012" y="721.461" type="line" smooth="yes"/>
      <point x="333.397" y="721.456"/>
      <point x="367" y="682.482"/>
      <point x="355.985" y="626.994" type="curve"/>
      <point x="355.985" y="626.994"/>
      <point x="311.216" y="402.865"/>
      <point x="290.258" y="295.902" type="curve" smooth="yes"/>
      <point x="271.931" y="202.364"/>
      <point x="341.38" y="110"/>
      <point x="438.596" y="110" type="curve" smooth="yes"/>
      <point x="494.708" y="110"/>
      <point x="624.49" y="228.583"/>
      <point x="723.089" y="462.16" type="curve" smooth="yes"/>
      <point x="784.812" y="608.38"/>
      <point x="869.644" y="946.365"/>
      <point x="784.845" y="1100.92" type="curve" smooth="yes"/>
      <point x="737.05" y="1188.03"/>
      <point x="868.54" y="1260.2"/>
    </contour>
    <contour>
      <point x="881.278" y="1153.84" type="curve" smooth="yes"/>
      <point x="858.831" y="1194.74"/>
      <point x="797.48" y="1161.05"/>
      <point x="819.912" y="1120.16" type="curve" smooth="yes"/>
      <point x="911.87" y="952.559"/>
      <point x="827.369" y="606.341"/>
      <point x="759.939" y="446.604" type="curve" smooth="yes"/>
      <point x="662.892" y="216.702"/>
      <point x="524.133" y="70"/>
      <point x="438.595" y="70" type="curve" smooth="yes"/>
      <point x="314.049" y="70"/>
      <point x="228.254" y="187.488"/>
      <point x="251.004" y="303.594" type="curve" smooth="yes"/>
      <point x="315.954" y="635.062" type="line" smooth="yes"/>
      <point x="322.065" y="666.253"/>
      <point x="302.361" y="681.461"/>
      <point x="273.011" y="681.461" type="curve" smooth="yes"/>
      <point x="125.289" y="681.465" type="line"/>
      <point x="134.67" y="744.153"/>
      <point x="164.799" y="930.987"/>
      <point x="164.799" y="930.987" type="curve"/>
      <point x="168.656" y="955.348"/>
      <point x="152.996" y="972.201"/>
      <point x="133.837" y="975.06" type="curve" smooth="yes"/>
      <point x="118.635" y="977.328"/>
      <point x="99.5873" y="966.163"/>
      <point x="95.841" y="941.994" type="curve" smooth="yes"/>
      <point x="50.0313" y="646.461" type="line" smooth="yes"/>
      <point x="47.0706" y="627.36"/>
      <point x="65.7068" y="611.463"/>
      <point x="85.0368" y="611.463" type="curve" smooth="yes"/>
      <point x="240.351" y="611.462" type="line"/>
      <point x="182.187" y="316.407" type="line" smooth="yes"/>
      <point x="150.957" y="157.983"/>
      <point x="270.257" y="0"/>
      <point x="438.595" y="0" type="curve" smooth="yes"/>
      <point x="575.637" y="0"/>
      <point x="730.076" y="195.864"/>
      <point x="824.428" y="419.38" type="curve" smooth="yes"/>
      <point x="895.174" y="586.973"/>
      <point x="983.529" y="967.506"/>
    </contour>
    <contour>
      <point x="154" y="937" type="curve" smooth="yes"/>
      <point x="154" y="923.193"/>
      <point x="142.807" y="912"/>
      <point x="129" y="912" type="curve" smooth="yes"/>
      <point x="115.193" y="912"/>
      <point x="104" y="923.193"/>
      <point x="104" y="937" type="curve" smooth="yes"/>
      <point x="104" y="950.807"/>
      <point x="115.193" y="962"/>
      <point x="129" y="962" type="curve" smooth="yes"/>
      <point x="142.807" y="962"/>
      <point x="154" y="950.807"/>
    </contour>
  </outline>
</glyph>
<glyph name="uni1207" format="2">
  <advance width="1502"/>
  <unicode hex="1207"/>
  <outline>
    <contour>
      <point x="1441.59" y="1103.87" type="curve" smooth="yes"/>
      <point x="1441.59" y="989.435"/>
      <point x="1346.16" y="897.433"/>
      <point x="1229.62" y="897.433" type="curve" smooth="yes"/>
      <point x="1204.11" y="897.433"/>
      <point x="1179.8" y="903.216"/>
      <point x="1157.73" y="911.974" type="curve"/>
      <point x="1156.65" y="730.12"/>
      <point x="1099.86" y="524.389"/>
      <point x="1051.24" y="412.672" type="curve" smooth="yes"/>
      <point x="958.359" y="199.273"/>
      <point x="794.734" y="-18.0226"/>
      <point x="628.531" y="-18.0226" type="curve" smooth="yes"/>
      <point x="433.744" y="-18.0226"/>
      <point x="298.603" y="159.122"/>
      <point x="332.8" y="335.872" type="curve" smooth="yes"/>
      <point x="386.253" y="612.147" type="line"/>
      <point x="88.6786" y="538.624" type="line" smooth="yes"/>
      <point x="15.6093" y="520.57"/>
      <point x="-41.1399" y="649.375"/>
      <point x="80.6913" y="681.779" type="curve" smooth="yes"/>
      <point x="417.178" y="771.277" type="line"/>
      <point x="436.055" y="868.802"/>
      <point x="476.738" y="1084.68"/>
      <point x="476.738" y="1084.68" type="curve"/>
      <point x="485.266" y="1129.56"/>
      <point x="522.774" y="1150.88"/>
      <point x="565.043" y="1143.19" type="curve" smooth="yes"/>
      <point x="598.638" y="1137.09"/>
      <point x="634.679" y="1106.06"/>
      <point x="625.255" y="1057.38" type="curve" smooth="yes"/>
      <point x="574.499" y="795.214"/>
      <point x="480.424" y="315.818"/>
      <point x="480.424" y="315.818" type="curve"/>
      <point x="458.576" y="203.954"/>
      <point x="520.011" y="128.819"/>
      <point x="628.531" y="128.819" type="curve" smooth="yes"/>
      <point x="684.951" y="128.819"/>
      <point x="814.584" y="243.899"/>
      <point x="912.999" y="470.016" type="curve" smooth="yes"/>
      <point x="968.017" y="596.426"/>
      <point x="1007.01" y="784.472"/>
      <point x="1007.21" y="940.032" type="curve" smooth="yes"/>
      <point x="1007.41" y="1103.87" type="line" smooth="yes"/>
      <point x="1007.56" y="1221.11"/>
      <point x="1116.12" y="1310.11"/>
      <point x="1229.62" y="1310.11" type="curve" smooth="yes"/>
      <point x="1346.14" y="1310.11"/>
      <point x="1441.59" y="1218.33"/>
    </contour>
    <contour>
      <point x="1401.45" y="1103.87" type="curve" smooth="yes"/>
      <point x="1401.45" y="1195.12"/>
      <point x="1325.19" y="1269.96"/>
      <point x="1229.62" y="1269.96" type="curve" smooth="yes"/>
      <point x="1133.96" y="1269.96"/>
      <point x="1047.67" y="1195.03"/>
      <point x="1047.55" y="1103.87" type="curve" smooth="yes"/>
      <point x="1047.35" y="940.032" type="line" smooth="yes"/>
      <point x="1047.15" y="779.344"/>
      <point x="1007.2" y="585.786"/>
      <point x="949.863" y="454.041" type="curve" smooth="yes"/>
      <point x="852.743" y="230.9"/>
      <point x="713.776" y="88.6785"/>
      <point x="628.531" y="88.6785" type="curve" smooth="yes"/>
      <point x="489.579" y="88.6785"/>
      <point x="415.911" y="184.128" name=".hr01"/>
      <point x="441.924" y="318.923" type="curve"/>
      <point x="441.924" y="318.923"/>
      <point x="539.319" y="824.387"/>
      <point x="585.933" y="1065.16" type="curve" smooth="yes"/>
      <point x="594.37" y="1108.75"/>
      <point x="525.602" y="1120.8"/>
      <point x="517.12" y="1077.04" type="curve" smooth="yes"/>
      <point x="451.584" y="738.918" type="line"/>
      <point x="326.538" y="705.71"/>
      <point x="199.495" y="679.621"/>
      <point x="76.5953" y="639.181" type="curve" smooth="yes"/>
      <point x="30.3561" y="623.966"/>
      <point x="53.2098" y="571.117"/>
      <point x="79.2576" y="577.536" type="curve" smooth="yes"/>
      <point x="437.453" y="665.805" type="line"/>
      <point x="372.122" y="328.089" type="line" smooth="yes"/>
      <point x="342.568" y="175.318"/>
      <point x="459.522" y="22.1185"/>
      <point x="628.531" y="22.1185" type="curve" smooth="yes"/>
      <point x="765.877" y="22.1185"/>
      <point x="920.173" y="212.21"/>
      <point x="1014.37" y="428.646" type="curve" smooth="yes"/>
      <point x="1086.27" y="593.842"/>
      <point x="1122" y="800.575"/>
      <point x="1116.16" y="978.739" type="curve"/>
      <point x="1152.52" y="958.316"/>
      <point x="1186.02" y="937.574"/>
      <point x="1229.62" y="937.574" type="curve" smooth="yes"/>
      <point x="1325.16" y="937.574"/>
      <point x="1401.45" y="1012.6"/>
    </contour>
    <contour>
      <point x="1331.61" y="1103.87" type="curve" smooth="yes"/>
      <point x="1331.61" y="1048.72"/>
      <point x="1285.11" y="1004.13"/>
      <point x="1229.62" y="1004.13" type="curve" smooth="yes"/>
      <point x="1174.19" y="1004.13"/>
      <point x="1127.42" y="1048.66"/>
      <point x="1127.42" y="1103.87" type="curve" smooth="yes"/>
      <point x="1127.42" y="1159.15"/>
      <point x="1174.26" y="1203.4"/>
      <point x="1229.62" y="1203.4" type="curve" smooth="yes"/>
      <point x="1285.04" y="1203.4"/>
      <point x="1331.61" y="1159.09"/>
    </contour>
    <contour>
      <point x="1291.47" y="1103.87" type="curve" smooth="yes"/>
      <point x="1291.47" y="1135.86"/>
      <point x="1264.11" y="1163.26"/>
      <point x="1229.62" y="1163.26" type="curve" smooth="yes"/>
      <point x="1195.07" y="1163.26"/>
      <point x="1167.56" y="1135.79"/>
      <point x="1167.56" y="1103.87" type="curve" smooth="yes"/>
      <point x="1167.56" y="1071.88"/>
      <point x="1195.14" y="1044.28"/>
      <point x="1229.62" y="1044.28" type="curve" smooth="yes"/>
      <point x="1264.04" y="1044.28"/>
      <point x="1291.47" y="1071.82"/>
    </contour>
    <contour>
      <point x="577.101" y="1060.09" type="curve" smooth="yes"/>
      <point x="577.101" y="1046.28"/>
      <point x="565.908" y="1035.09"/>
      <point x="552.101" y="1035.09" type="curve" smooth="yes"/>
      <point x="538.294" y="1035.09"/>
      <point x="527.101" y="1046.28"/>
      <point x="527.101" y="1060.09" type="curve" smooth="yes"/>
      <point x="527.101" y="1073.9"/>
      <point x="538.294" y="1085.09"/>
      <point x="552.101" y="1085.09" type="curve" smooth="yes"/>
      <point x="565.908" y="1085.09"/>
      <point x="577.101" y="1073.9"/>
    </contour>
  </outline>
</glyph>
<glyph name="uni120B" format="2">
  <advance width="819"/>
  <unicode hex="120B"/>
  <outline>
    <contour>
      <point x="759.284" y="35" type="line" smooth="yes"/>
      <point x="759.284" y="-6.088"/>
      <point x="725.374" y="-40"/>
      <point x="684.284" y="-40" type="curve" smooth="yes"/>
      <point x="641.409" y="-40"/>
      <point x="609.284" y="-5.29825"/>
      <point x="609.284" y="35" type="curve" smooth="yes"/>
      <point x="609.284" y="800" type="line" smooth="yes"/>
      <point x="609.284" y="923.121"/>
      <point x="532.54" y="1047.11"/>
      <point x="494.371" y="1100.97" type="curve"/>
      <point x="-37.9635" y="793.273"/>
      <point x="289.028" y="308.031"/>
      <point x="85.646" y="308.031" type="curve" smooth="yes"/>
      <point x="41.6468" y="308.031"/>
      <point x="9.25404" y="348.165"/>
      <point x="10.0073" y="386.696" type="curve" smooth="yes"/>
      <point x="17.9231" y="791.606"/>
      <point x="66.4861" y="1035.07"/>
      <point x="410.206" y="1220.95" type="curve"/>
      <point x="378.568" y="1270.75"/>
      <point x="294.563" y="1347.85"/>
      <point x="366.296" y="1405.23" type="curve" smooth="yes"/>
      <point x="398.747" y="1431.19"/>
      <point x="444.869" y="1426.08"/>
      <point x="471.438" y="1393.09" type="curve" smooth="yes"/>
      <point x="640.224" y="1183.49"/>
      <point x="759.284" y="960.488"/>
      <point x="759.284" y="835" type="curve" smooth="yes"/>
    </contour>
    <contour>
      <point x="719.284" y="35" type="curve" smooth="yes"/>
      <point x="719.284" y="835" type="line"/>
      <point x="719.284" y="916.008"/>
      <point x="592.283" y="1196"/>
      <point x="462.286" y="1352.64" type="curve"/>
      <point x="437.96" y="1381.96"/>
      <point x="409.696" y="1388.73"/>
      <point x="391.284" y="1374" type="curve"/>
      <point x="376.249" y="1361.97"/>
      <point x="373.405" y="1340.04"/>
      <point x="385.284" y="1325" type="curve" smooth="yes"/>
      <point x="415.589" y="1286.64"/>
      <point x="441.534" y="1247.07"/>
      <point x="466.536" y="1205.32" type="curve"/>
      <point x="91.011" y="1010.61"/>
      <point x="57.6282" y="776.132"/>
      <point x="50" y="385.915" type="curve" smooth="yes"/>
      <point x="49.632" y="367.083"/>
      <point x="66.6598" y="348.031"/>
      <point x="85.6462" y="348.031" type="curve" smooth="yes"/>
      <point x="104.43" y="348.031"/>
      <point x="120.238" y="363.797"/>
      <point x="120.646" y="383.02" type="curve" smooth="yes"/>
      <point x="128.783" y="766.204"/>
      <point x="153.416" y="955.336"/>
      <point x="505.493" y="1153.23" type="curve"/>
      <point x="579.486" y="1054.52"/>
      <point x="649.284" y="927.945"/>
      <point x="649.284" y="800" type="curve" smooth="yes"/>
      <point x="649.284" y="35" type="line" smooth="yes"/>
      <point x="649.284" y="15.959"/>
      <point x="664.325" y="0"/>
      <point x="684.284" y="0" type="curve" smooth="yes"/>
      <point x="703.283" y="0"/>
      <point x="719.284" y="16.002"/>
    </contour>
    <contour>
      <point x="447" y="1340" type="curve" smooth="yes"/>
      <point x="447" y="1326.19"/>
      <point x="435.807" y="1315"/>
      <point x="422" y="1315" type="curve" smooth="yes"/>
      <point x="408.193" y="1315"/>
      <point x="397" y="1326.19"/>
      <point x="397" y="1340" type="curve" smooth="yes"/>
      <point x="397" y="1353.81"/>
      <point x="408.193" y="1365"/>
      <point x="422" y="1365" type="curve" smooth="yes"/>
      <point x="435.807" y="1365"/>
      <point x="447" y="1353.81"/>
    </contour>
  </outline>
</glyph>
<glyph name="uni120C" format="2">
  <advance width="1106"/>
  <unicode hex="120C"/>
  <outline>
    <contour>
      <point x="1046" y="172" type="curve" smooth="yes"/>
      <point x="1046" y="54.9085"/>
      <point x="951.09" y="-40"/>
      <point x="834.001" y="-40" type="curve" smooth="yes"/>
      <point x="719.921" y="-40"/>
      <point x="612.001" y="52.016"/>
      <point x="612.001" y="172" type="curve" smooth="yes"/>
      <point x="612.001" y="800" type="line" smooth="yes"/>
      <point x="612.001" y="923.112"/>
      <point x="535.26" y="1047.1"/>
      <point x="497.09" y="1100.97" type="curve"/>
      <point x="212.006" y="936.051"/>
      <point x="178.067" y="764.709"/>
      <point x="165.92" y="466.594" type="curve" smooth="yes"/>
      <point x="161.059" y="347.315"/>
      <point x="161.496" y="205.931"/>
      <point x="160" y="34.6505" type="curve" smooth="yes"/>
      <point x="159.646" y="-5.82949"/>
      <point x="126.43" y="-40"/>
      <point x="85.0015" y="-40" type="curve" smooth="yes"/>
      <point x="44.2455" y="-40"/>
      <point x="9.65175" y="-6.3505"/>
      <point x="10.003" y="35.3375" type="curve" smooth="yes"/>
      <point x="11.942" y="265.45"/>
      <point x="-3.39745" y="567.542"/>
      <point x="54.9328" y="790.062" type="curve" smooth="yes"/>
      <point x="103.448" y="975.139"/>
      <point x="205.945" y="1109.07"/>
      <point x="412.91" y="1220.97" type="curve"/>
      <point x="381.279" y="1270.77"/>
      <point x="297.286" y="1347.85"/>
      <point x="369.014" y="1405.23" type="curve" smooth="yes"/>
      <point x="401.462" y="1431.19"/>
      <point x="447.587" y="1426.08"/>
      <point x="474.156" y="1393.09" type="curve" smooth="yes"/>
      <point x="642.942" y="1183.49"/>
      <point x="762.001" y="960.49"/>
      <point x="762.002" y="835" type="curve" smooth="yes"/>
      <point x="762.004" y="371.409" type="line"/>
      <point x="784.371" y="379.474"/>
      <point x="808.597" y="384"/>
      <point x="834.002" y="384" type="curve" smooth="yes"/>
      <point x="951.086" y="384"/>
      <point x="1046" y="289.091"/>
    </contour>
    <contour>
      <point x="1006" y="172" type="curve" smooth="yes"/>
      <point x="1006" y="266.995"/>
      <point x="928.996" y="344"/>
      <point x="834.001" y="344" type="curve" smooth="yes"/>
      <point x="787.876" y="344"/>
      <point x="760.601" y="327.915"/>
      <point x="721.998" y="307.032" type="curve"/>
      <point x="722.001" y="835" type="line"/>
      <point x="722.001" y="916.008"/>
      <point x="595" y="1196"/>
      <point x="465.004" y="1352.64" type="curve"/>
      <point x="440.677" y="1381.96"/>
      <point x="412.414" y="1388.73"/>
      <point x="394.001" y="1374" type="curve"/>
      <point x="378.966" y="1361.97"/>
      <point x="376.121" y="1340.04"/>
      <point x="388.001" y="1325" type="curve" smooth="yes"/>
      <point x="418.304" y="1286.65"/>
      <point x="444.239" y="1247.06"/>
      <point x="469.239" y="1205.32" type="curve"/>
      <point x="119.458" y="1023.98"/>
      <point x="67.9633" y="815.084"/>
      <point x="54.8075" y="460.44" type="curve" smooth="yes"/>
      <point x="50.2563" y="337.746"/>
      <point x="51.3693" y="197.368"/>
      <point x="50.0013" y="35" type="curve" smooth="yes"/>
      <point x="49.8416" y="16.022"/>
      <point x="65.9773" y="0"/>
      <point x="85.0013" y="0" type="curve" smooth="yes"/>
      <point x="103.977" y="0"/>
      <point x="119.835" y="15.972"/>
      <point x="120.001" y="35" type="curve" smooth="yes"/>
      <point x="121.838" y="245.193"/>
      <point x="108.287" y="565.762"/>
      <point x="163.699" y="768.059" type="curve" smooth="yes"/>
      <point x="216.744" y="961.713"/>
      <point x="337.822" y="1057.43"/>
      <point x="508.212" y="1153.23" type="curve"/>
      <point x="582.202" y="1054.52"/>
      <point x="652.001" y="927.936"/>
      <point x="652.001" y="800" type="curve" smooth="yes"/>
      <point x="652.001" y="172" type="line" smooth="yes"/>
      <point x="652.001" y="77.048"/>
      <point x="738.955" y="0"/>
      <point x="834.001" y="0" type="curve" smooth="yes"/>
      <point x="929" y="0"/>
      <point x="1006" y="76.9967"/>
    </contour>
    <contour>
      <point x="447" y="1340" type="curve" smooth="yes"/>
      <point x="447" y="1326.19"/>
      <point x="435.807" y="1315"/>
      <point x="422" y="1315" type="curve" smooth="yes"/>
      <point x="408.193" y="1315"/>
      <point x="397" y="1326.19"/>
      <point x="397" y="1340" type="curve" smooth="yes"/>
      <point x="397" y="1353.81"/>
      <point x="408.193" y="1365"/>
      <point x="422" y="1365" type="curve" smooth="yes"/>
      <point x="435.807" y="1365"/>
      <point x="447" y="1353.81"/>
    </contour>
    <contour>
      <point x="936.001" y="172" type="curve" smooth="yes"/>
      <point x="936.001" y="116"/>
      <point x="890.001" y="70"/>
      <point x="834.001" y="70" type="curve" smooth="yes"/>
      <point x="778.001" y="70"/>
      <point x="732.001" y="116"/>
      <point x="732.001" y="172" type="curve" smooth="yes"/>
      <point x="732.001" y="228"/>
      <point x="778.001" y="274"/>
      <point x="834.001" y="274" type="curve" smooth="yes"/>
      <point x="890.001" y="274"/>
      <point x="936.001" y="228"/>
    </contour>
    <contour>
      <point x="896.001" y="172" type="curve" smooth="yes"/>
      <point x="896.001" y="205.909"/>
      <point x="867.91" y="234"/>
      <point x="834.001" y="234" type="curve" smooth="yes"/>
      <point x="800.093" y="234"/>
      <point x="772.001" y="205.909"/>
      <point x="772.001" y="172" type="curve" smooth="yes"/>
      <point x="772.001" y="138.091"/>
      <point x="800.093" y="110"/>
      <point x="834.001" y="110" type="curve" smooth="yes"/>
      <point x="867.91" y="110"/>
      <point x="896.001" y="138.091"/>
    </contour>
  </outline>
</glyph>
<glyph name="uni120D" format="2">
  <advance width="822"/>
  <unicode hex="120D"/>
  <outline>
    <contour>
      <point x="761.787" y="35" type="line" smooth="yes"/>
      <point x="761.787" y="-6.088"/>
      <point x="727.877" y="-40"/>
      <point x="686.787" y="-40" type="curve" smooth="yes"/>
      <point x="643.912" y="-40"/>
      <point x="611.787" y="-5.29825"/>
      <point x="611.787" y="35" type="curve" smooth="yes"/>
      <point x="611.787" y="800" type="line" smooth="yes"/>
      <point x="611.787" y="923.113"/>
      <point x="535.048" y="1047.07"/>
      <point x="496.877" y="1100.94" type="curve"/>
      <point x="213.505" y="936.887"/>
      <point x="169.816" y="776.345"/>
      <point x="161.153" y="371.819" type="curve"/>
      <point x="183.198" y="379.628"/>
      <point x="207.029" y="384"/>
      <point x="232" y="384" type="curve" smooth="yes"/>
      <point x="349.082" y="384"/>
      <point x="444" y="289.091"/>
      <point x="444" y="172" type="curve" smooth="yes"/>
      <point x="444" y="54.9085"/>
      <point x="349.091" y="-40"/>
      <point x="232" y="-40" type="curve" smooth="yes"/>
      <point x="117.941" y="-40"/>
      <point x="9.62225" y="52.0598"/>
      <point x="10" y="172.087" type="curve" smooth="yes"/>
      <point x="11.7245" y="719.907"/>
      <point x="15.5035" y="1006.53"/>
      <point x="412.696" y="1220.97" type="curve"/>
      <point x="381.064" y="1270.77"/>
      <point x="297.062" y="1347.85"/>
      <point x="368.799" y="1405.23" type="curve" smooth="yes"/>
      <point x="401.252" y="1431.2"/>
      <point x="447.372" y="1426.08"/>
      <point x="473.941" y="1393.09" type="curve" smooth="yes"/>
      <point x="642.727" y="1183.49"/>
      <point x="761.787" y="960.488"/>
      <point x="761.787" y="835" type="curve" smooth="yes"/>
    </contour>
    <contour>
      <point x="721.787" y="35" type="curve" smooth="yes"/>
      <point x="721.787" y="835" type="line"/>
      <point x="721.787" y="916.008"/>
      <point x="594.786" y="1196"/>
      <point x="464.789" y="1352.64" type="curve"/>
      <point x="440.463" y="1381.96"/>
      <point x="412.199" y="1388.73"/>
      <point x="393.787" y="1374" type="curve"/>
      <point x="378.751" y="1361.97"/>
      <point x="375.908" y="1340.04"/>
      <point x="387.787" y="1325" type="curve" smooth="yes"/>
      <point x="418.093" y="1286.64"/>
      <point x="444.028" y="1247.06"/>
      <point x="469.03" y="1205.31" type="curve"/>
      <point x="11.4313" y="968.27"/>
      <point x="51.4185" y="622.587"/>
      <point x="50" y="171.961" type="curve" smooth="yes"/>
      <point x="49.7018" y="77.1525"/>
      <point x="136.867" y="0"/>
      <point x="232" y="0" type="curve" smooth="yes"/>
      <point x="326.996" y="0"/>
      <point x="404" y="76.9967"/>
      <point x="404" y="172" type="curve" smooth="yes"/>
      <point x="404" y="266.995"/>
      <point x="326.995" y="344"/>
      <point x="232" y="344" type="curve" smooth="yes"/>
      <point x="185.927" y="344"/>
      <point x="158.635" y="327.89"/>
      <point x="119.988" y="307.142" type="curve"/>
      <point x="126.876" y="716.516"/>
      <point x="126.248" y="938.485"/>
      <point x="507.997" y="1153.22" type="curve"/>
      <point x="581.988" y="1054.51"/>
      <point x="651.787" y="927.945"/>
      <point x="651.787" y="800" type="curve" smooth="yes"/>
      <point x="651.787" y="35" type="line" smooth="yes"/>
      <point x="651.787" y="15.959"/>
      <point x="666.828" y="0"/>
      <point x="686.787" y="0" type="curve" smooth="yes"/>
      <point x="705.786" y="0"/>
      <point x="721.787" y="16.002"/>
    </contour>
    <contour>
      <point x="447" y="1340" type="curve" smooth="yes"/>
      <point x="447" y="1326.19"/>
      <point x="435.807" y="1315"/>
      <point x="422" y="1315" type="curve" smooth="yes"/>
      <point x="408.193" y="1315"/>
      <point x="397" y="1326.19"/>
      <point x="397" y="1340" type="curve" smooth="yes"/>
      <point x="397" y="1353.81"/>
      <point x="408.193" y="1365"/>
      <point x="422" y="1365" type="curve" smooth="yes"/>
      <point x="435.807" y="1365"/>
      <point x="447" y="1353.81"/>
    </contour>
    <contour>
      <point x="334" y="172" type="curve" smooth="yes"/>
      <point x="334" y="116"/>
      <point x="288" y="70"/>
      <point x="232" y="70" type="curve" smooth="yes"/>
      <point x="176" y="70"/>
      <point x="130" y="116"/>
      <point x="130" y="172" type="curve" smooth="yes"/>
      <point x="130" y="228"/>
      <point x="176" y="274"/>
      <point x="232" y="274" type="curve" smooth="yes"/>
      <point x="288" y="274"/>
      <point x="334" y="228"/>
    </contour>
    <contour>
      <point x="294" y="172" type="curve" smooth="yes"/>
      <point x="294" y="205.909"/>
      <point x="265.909" y="234"/>
      <point x="232" y="234" type="curve" smooth="yes"/>
      <point x="198.091" y="234"/>
      <point x="170" y="205.909"/>
      <point x="170" y="172" type="curve" smooth="yes"/>
      <point x="170" y="138.091"/>
      <point x="198.091" y="110"/>
      <point x="232" y="110" type="curve" smooth="yes"/>
      <point x="265.909" y="110"/>
      <point x="294" y="138.091"/>
    </contour>
  </outline>
</glyph>
<glyph name="uni120E" format="2">
  <advance width="1426"/>
  <unicode hex="120E"/>
  <outline>
    <contour>
      <point x="1365.24" y="913.024" type="curve" smooth="yes"/>
      <point x="1375.45" y="796.375"/>
      <point x="1289.17" y="693.557"/>
      <point x="1172.53" y="683.352" type="curve" smooth="yes"/>
      <point x="1055.88" y="673.147"/>
      <point x="953.059" y="759.422"/>
      <point x="942.854" y="876.069" type="curve" smooth="yes"/>
      <point x="941.332" y="893.468"/>
      <point x="943.109" y="923.366"/>
      <point x="950.37" y="952.779" type="curve"/>
      <point x="749.83" y="937.394" type="line"/>
      <point x="760.458" y="903.574"/>
      <point x="761.001" y="870.218"/>
      <point x="761.001" y="835" type="curve" smooth="yes"/>
      <point x="761.001" y="35" type="line" smooth="yes"/>
      <point x="761.001" y="-6.088"/>
      <point x="727.092" y="-40"/>
      <point x="686.001" y="-40" type="curve" smooth="yes"/>
      <point x="643.126" y="-40"/>
      <point x="611.001" y="-5.29825"/>
      <point x="611.001" y="35" type="curve" smooth="yes"/>
      <point x="611.001" y="800" type="line" smooth="yes"/>
      <point x="611.001" y="889.293"/>
      <point x="549.634" y="1024.42"/>
      <point x="497.058" y="1100.92" type="curve"/>
      <point x="211.99" y="936"/>
      <point x="178.066" y="764.661"/>
      <point x="165.92" y="466.594" type="curve" smooth="yes"/>
      <point x="161.06" y="347.331"/>
      <point x="161.496" y="205.931"/>
      <point x="160" y="34.6507" type="curve" smooth="yes"/>
      <point x="159.646" y="-5.82925"/>
      <point x="126.43" y="-40"/>
      <point x="85.0015" y="-40" type="curve" smooth="yes"/>
      <point x="44.2453" y="-40"/>
      <point x="9.65175" y="-6.3525"/>
      <point x="10.0031" y="35.3375" type="curve" smooth="yes"/>
      <point x="11.9423" y="265.434"/>
      <point x="-3.392" y="567.566"/>
      <point x="54.9328" y="790.062" type="curve" smooth="yes"/>
      <point x="103.404" y="974.97"/>
      <point x="205.828" y="1108.9"/>
      <point x="412.533" y="1220.76" type="curve"/>
      <point x="380.484" y="1270.32"/>
      <point x="296.161" y="1347.75"/>
      <point x="368.014" y="1405.24" type="curve" smooth="yes"/>
      <point x="400.461" y="1431.19"/>
      <point x="446.588" y="1426.08"/>
      <point x="473.156" y="1393.09" type="curve" smooth="yes"/>
      <point x="550.985" y="1296.44"/>
      <point x="608.56" y="1186.95"/>
      <point x="673.153" y="1081.67" type="curve"/>
      <point x="753.356" y="1087.59"/>
      <point x="1132.97" y="1116.9"/>
      <point x="1132.97" y="1116.9" type="curve"/>
      <point x="1254.93" y="1126.25"/>
      <point x="1353.43" y="1048.04"/>
    </contour>
    <contour>
      <point x="1325.39" y="909.538" type="curve" smooth="yes"/>
      <point x="1317.11" y="1004.2"/>
      <point x="1232.88" y="1082.84"/>
      <point x="1138.19" y="1075.86" type="curve" smooth="yes"/>
      <point x="651.944" y="1040" type="line"/>
      <point x="583.26" y="1150.11"/>
      <point x="523.735" y="1266.5"/>
      <point x="442.001" y="1368" type="curve" smooth="yes"/>
      <point x="412.034" y="1405.21"/>
      <point x="359.451" y="1359.87"/>
      <point x="387.001" y="1325" type="curve" smooth="yes"/>
      <point x="417.354" y="1286.58"/>
      <point x="443.731" y="1246.9"/>
      <point x="469.219" y="1205.31" type="curve"/>
      <point x="119.446" y="1023.89"/>
      <point x="67.965" y="815.114"/>
      <point x="54.8075" y="460.44" type="curve" smooth="yes"/>
      <point x="50.256" y="337.746"/>
      <point x="51.3698" y="197.372"/>
      <point x="50.0013" y="35" type="curve" smooth="yes"/>
      <point x="49.8416" y="16.0217"/>
      <point x="65.9774" y="0"/>
      <point x="85.0014" y="0" type="curve" smooth="yes"/>
      <point x="103.977" y="0"/>
      <point x="119.835" y="15.972"/>
      <point x="120.001" y="35" type="curve" smooth="yes"/>
      <point x="121.838" y="245.205"/>
      <point x="108.285" y="565.756"/>
      <point x="163.699" y="768.059" type="curve" smooth="yes"/>
      <point x="216.754" y="961.749"/>
      <point x="337.884" y="1057.47"/>
      <point x="508.309" y="1153.27" type="curve"/>
      <point x="573.546" y="1066.07"/>
      <point x="651.001" y="913.217"/>
      <point x="651.001" y="800" type="curve" smooth="yes"/>
      <point x="651.001" y="35" type="line" smooth="yes"/>
      <point x="651.001" y="15.959"/>
      <point x="666.042" y="0"/>
      <point x="686.001" y="0" type="curve" smooth="yes"/>
      <point x="705" y="0"/>
      <point x="721" y="16.002"/>
      <point x="721" y="35" type="curve" smooth="yes"/>
      <point x="721" y="835" type="line" smooth="yes"/>
      <point x="721" y="901.4"/>
      <point x="718.337" y="912.717"/>
      <point x="692.455" y="973.105" type="curve"/>
      <point x="1009.31" y="997.422" type="line"/>
      <point x="993.928" y="960.004"/>
      <point x="979.072" y="921.033"/>
      <point x="982.701" y="879.556" type="curve" smooth="yes"/>
      <point x="990.98" y="784.915"/>
      <point x="1074.4" y="714.921"/>
      <point x="1169.04" y="723.2" type="curve" smooth="yes"/>
      <point x="1263.68" y="731.48"/>
      <point x="1333.67" y="814.895"/>
    </contour>
    <contour>
      <point x="1254.66" y="903.35" type="curve" smooth="yes"/>
      <point x="1259.55" y="847.557"/>
      <point x="1218.65" y="798.811"/>
      <point x="1162.85" y="793.93" type="curve" smooth="yes"/>
      <point x="1106.04" y="788.961"/>
      <point x="1057.32" y="829.873"/>
      <point x="1052.44" y="885.656" type="curve" smooth="yes"/>
      <point x="1040.73" y="1019.5"/>
      <point x="1242.91" y="1037.7"/>
    </contour>
    <contour>
      <point x="447" y="1340" type="curve" smooth="yes"/>
      <point x="447" y="1326.19"/>
      <point x="435.807" y="1315"/>
      <point x="422" y="1315" type="curve" smooth="yes"/>
      <point x="408.193" y="1315"/>
      <point x="397" y="1326.19"/>
      <point x="397" y="1340" type="curve" smooth="yes"/>
      <point x="397" y="1353.81"/>
      <point x="408.193" y="1365"/>
      <point x="422" y="1365" type="curve" smooth="yes"/>
      <point x="435.807" y="1365"/>
      <point x="447" y="1353.81"/>
    </contour>
    <contour>
      <point x="1214.82" y="899.864" type="curve" smooth="yes"/>
      <point x="1207.66" y="981.691"/>
      <point x="1085.17" y="970.505"/>
      <point x="1092.28" y="889.143" type="curve" smooth="yes"/>
      <point x="1099.28" y="809.199"/>
      <point x="1221.85" y="819.44"/>
    </contour>
  </outline>
</glyph>
<glyph name="uni120F" format="2">
  <advance width="1243"/>
  <unicode hex="120F"/>
  <outline>
    <contour>
      <point x="1183.13" y="232.448" type="curve" smooth="yes"/>
      <point x="1183.13" y="192.244"/>
      <point x="1149.07" y="158.042"/>
      <point x="1107.97" y="158.105" type="curve" smooth="yes"/>
      <point x="307.405" y="159.334" type="line" smooth="yes"/>
      <point x="266.946" y="159.396"/>
      <point x="232.448" y="191.913"/>
      <point x="232.448" y="232.653" type="curve" smooth="yes"/>
      <point x="232.448" y="274.307"/>
      <point x="267.818" y="306.079"/>
      <point x="307.405" y="305.971" type="curve" smooth="yes"/>
      <point x="609.075" y="305.152" type="line"/>
      <point x="609.28" y="799.334" type="line" smooth="yes"/>
      <point x="609.329" y="918.184"/>
      <point x="532.565" y="1038.07"/>
      <point x="494.387" y="1090.15" type="curve"/>
      <point x="88.0917" y="862.997"/>
      <point x="180.187" y="518.307"/>
      <point x="159.295" y="392.89" type="curve" smooth="yes"/>
      <point x="151.941" y="348.742"/>
      <point x="133.739" y="322.355"/>
      <point x="85.6065" y="322.355" type="curve" smooth="yes"/>
      <point x="42.2177" y="322.355"/>
      <point x="9.24849" y="361.112"/>
      <point x="10.0352" y="399.565" type="curve" smooth="yes"/>
      <point x="18.0569" y="791.579"/>
      <point x="66.6467" y="1027.21"/>
      <point x="409.805" y="1207.09" type="curve"/>
      <point x="394.675" y="1230.14"/>
      <point x="351.342" y="1289.68"/>
      <point x="351.342" y="1289.68" type="curve"/>
      <point x="329.781" y="1320.14"/>
      <point x="329.059" y="1356.82"/>
      <point x="366.592" y="1385.88" type="curve" smooth="yes"/>
      <point x="398.796" y="1410.82"/>
      <point x="444.578" y="1406.05"/>
      <point x="471.245" y="1374" type="curve" smooth="yes"/>
      <point x="639.974" y="1171.22"/>
      <point x="759.398" y="955.067"/>
      <point x="759.398" y="833.126" type="curve" smooth="yes"/>
      <point x="759.398" y="304.947" type="line"/>
      <point x="1107.97" y="304.742" type="line" smooth="yes"/>
      <point x="1146.68" y="304.72"/>
      <point x="1183.13" y="274.83"/>
    </contour>
    <contour>
      <point x="1142.99" y="232.448" type="curve" smooth="yes"/>
      <point x="1142.99" y="249.722"/>
      <point x="1127.75" y="264.591"/>
      <point x="1107.97" y="264.601" type="curve" smooth="yes"/>
      <point x="719.258" y="264.806" type="line"/>
      <point x="719.258" y="833.126" type="line" smooth="yes"/>
      <point x="719.258" y="915.822"/>
      <point x="569.006" y="1239.5"/>
      <point x="456.12" y="1338.97" type="curve" smooth="yes"/>
      <point x="431.316" y="1360.82"/>
      <point x="408.168" y="1367.5"/>
      <point x="391.168" y="1354.34" type="curve" smooth="yes"/>
      <point x="376.348" y="1342.87"/>
      <point x="373.714" y="1322.37"/>
      <point x="385.229" y="1308.26" type="curve" smooth="yes"/>
      <point x="415.742" y="1270.88"/>
      <point x="441.633" y="1232.14"/>
      <point x="466.944" y="1191.32" type="curve"/>
      <point x="94.7693" y="1004.56"/>
      <point x="58.0531" y="783.627"/>
      <point x="50.1761" y="398.745" type="curve" smooth="yes"/>
      <point x="49.8146" y="381.082"/>
      <point x="66.2346" y="362.496"/>
      <point x="85.6066" y="362.496" type="curve" smooth="yes"/>
      <point x="105.183" y="362.496"/>
      <point x="120.244" y="378.185"/>
      <point x="120.627" y="395.673" type="curve" smooth="yes"/>
      <point x="128.888" y="772.241"/>
      <point x="156.678" y="952.141"/>
      <point x="505.242" y="1141.76" type="curve"/>
      <point x="578.631" y="1046.95"/>
      <point x="649.469" y="924.139"/>
      <point x="649.421" y="799.334" type="curve" smooth="yes"/>
      <point x="649.216" y="265.011" type="line"/>
      <point x="307.405" y="265.83" type="line" smooth="yes"/>
      <point x="288.286" y="265.876"/>
      <point x="272.589" y="250.549"/>
      <point x="272.589" y="232.653" type="curve" smooth="yes"/>
      <point x="272.589" y="215.187"/>
      <point x="287.802" y="199.505"/>
      <point x="307.405" y="199.475" type="curve" smooth="yes"/>
      <point x="1107.97" y="198.246" type="line" smooth="yes"/>
      <point x="1127.13" y="198.217"/>
      <point x="1142.99" y="214.554"/>
    </contour>
    <contour>
      <point x="448.081" y="1321.98" type="curve" smooth="yes"/>
      <point x="448.081" y="1308.17"/>
      <point x="436.888" y="1296.98"/>
      <point x="423.081" y="1296.98" type="curve" smooth="yes"/>
      <point x="409.274" y="1296.98"/>
      <point x="398.081" y="1308.17"/>
      <point x="398.081" y="1321.98" type="curve" smooth="yes"/>
      <point x="398.081" y="1335.79"/>
      <point x="409.274" y="1346.98"/>
      <point x="423.081" y="1346.98" type="curve" smooth="yes"/>
      <point x="436.888" y="1346.98"/>
      <point x="448.081" y="1335.79"/>
    </contour>
  </outline>
</glyph>
<glyph name="uni1210" format="2">
  <advance width="1118"/>
  <unicode hex="1210"/>
  <outline>
    <contour>
      <point x="1058.18" y="35" type="line" smooth="yes"/>
      <point x="1058.18" y="-6.093"/>
      <point x="1024.27" y="-40"/>
      <point x="983.179" y="-40" type="curve" smooth="yes"/>
      <point x="940.305" y="-40"/>
      <point x="908.179" y="-5.30175"/>
      <point x="908.179" y="35" type="curve" smooth="yes"/>
      <point x="908.179" y="582" type="line" smooth="yes"/>
      <point x="908.179" y="712.374"/>
      <point x="871.071" y="738.436"/>
      <point x="697.201" y="734.013" type="curve" smooth="yes"/>
      <point x="640.139" y="732.562" type="line"/>
      <point x="578.758" y="30.9543" type="line" smooth="yes"/>
      <point x="570.103" y="-67.9762"/>
      <point x="419.816" y="-53.2045"/>
      <point x="428.332" y="44.1145" type="curve" smooth="yes"/>
      <point x="488.882" y="736.051" type="line"/>
      <point x="270.521" y="717.673"/>
      <point x="154.359" y="551.227"/>
      <point x="160.177" y="35.3705" type="curve" smooth="yes"/>
      <point x="161.3" y="-64.2185"/>
      <point x="11.3095" y="-65.908"/>
      <point x="10.1865" y="33.679" type="curve" smooth="yes"/>
      <point x="4.09071" y="574.197"/>
      <point x="150.015" y="867.734"/>
      <point x="502.055" y="886.588" type="curve"/>
      <point x="544.601" y="1373.05" type="line" smooth="yes"/>
      <point x="553.256" y="1472.01"/>
      <point x="703.545" y="1457.24"/>
      <point x="695.027" y="1359.89" type="curve" smooth="yes"/>
      <point x="653.328" y="883.278" type="line"/>
      <point x="845.289" y="891.544"/>
      <point x="1058.18" y="880.383"/>
      <point x="1058.18" y="613" type="curve" smooth="yes"/>
    </contour>
    <contour>
      <point x="1018.18" y="35" type="curve" smooth="yes"/>
      <point x="1018.18" y="613" type="line" smooth="yes"/>
      <point x="1018.18" y="873.791"/>
      <point x="784.822" y="848.893"/>
      <point x="609.513" y="841.363" type="curve"/>
      <point x="655.179" y="1363.37" type="line" smooth="yes"/>
      <point x="659.102" y="1408.22"/>
      <point x="588.516" y="1416.06"/>
      <point x="584.449" y="1369.56" type="curve" smooth="yes"/>
      <point x="538.807" y="847.79" type="line"/>
      <point x="78.0505" y="835.403"/>
      <point x="46.3945" y="370.194"/>
      <point x="50.184" y="34.13" type="curve" smooth="yes"/>
      <point x="50.713" y="-12.79"/>
      <point x="120.708" y="-11.9865"/>
      <point x="120.179" y="34.9195" type="curve" smooth="yes"/>
      <point x="116.809" y="333.819"/>
      <point x="117.988" y="762.589"/>
      <point x="532.72" y="778.258" type="curve"/>
      <point x="468.18" y="40.6279" type="line" smooth="yes"/>
      <point x="464.256" y="-4.21656"/>
      <point x="534.842" y="-12.0603"/>
      <point x="538.91" y="34.4402" type="curve" smooth="yes"/>
      <point x="603.405" y="771.628" type="line"/>
      <point x="767.771" y="775.83"/>
      <point x="948.179" y="818.074"/>
      <point x="948.179" y="582" type="curve" smooth="yes"/>
      <point x="948.179" y="35" type="line" smooth="yes"/>
      <point x="948.179" y="15.9573"/>
      <point x="963.22" y="0"/>
      <point x="983.179" y="0" type="curve" smooth="yes"/>
      <point x="1002.18" y="0"/>
      <point x="1018.18" y="16"/>
    </contour>
    <contour>
      <point x="641" y="1362" type="curve" smooth="yes"/>
      <point x="641" y="1348.19"/>
      <point x="629.807" y="1337"/>
      <point x="616" y="1337" type="curve" smooth="yes"/>
      <point x="602.193" y="1337"/>
      <point x="591" y="1348.19"/>
      <point x="591" y="1362" type="curve" smooth="yes"/>
      <point x="591" y="1375.81"/>
      <point x="602.193" y="1387"/>
      <point x="616" y="1387" type="curve" smooth="yes"/>
      <point x="629.807" y="1387"/>
      <point x="641" y="1375.81"/>
    </contour>
  </outline>
</glyph>
<glyph name="uni1214" format="2">
  <advance width="1401"/>
  <unicode hex="1214"/>
  <outline>
    <contour>
      <point x="1341.18" y="171" type="curve" smooth="yes"/>
      <point x="1341.18" y="53.5987"/>
      <point x="1245.96" y="-40"/>
      <point x="1129.18" y="-40" type="curve" smooth="yes"/>
      <point x="1015.53" y="-40"/>
      <point x="906.862" y="50.634"/>
      <point x="907.179" y="171.105" type="curve" smooth="yes"/>
      <point x="908.179" y="550.105" type="line" smooth="yes"/>
      <point x="908.583" y="703.099"/>
      <point x="881.537" y="735.682"/>
      <point x="766.762" y="734.004" type="curve" smooth="yes"/>
      <point x="640.106" y="732.152" type="line"/>
      <point x="578.758" y="30.9542" type="line" smooth="yes"/>
      <point x="570.103" y="-67.9768"/>
      <point x="419.815" y="-53.2126"/>
      <point x="428.332" y="44.1144" type="curve" smooth="yes"/>
      <point x="488.882" y="736.051" type="line"/>
      <point x="270.516" y="717.673"/>
      <point x="154.36" y="551.218"/>
      <point x="160.177" y="35.3705" type="curve" smooth="yes"/>
      <point x="161.296" y="-63.9048"/>
      <point x="11.3058" y="-65.5993"/>
      <point x="10.1866" y="33.679" type="curve" smooth="yes"/>
      <point x="4.09159" y="574.214"/>
      <point x="150.023" y="867.734"/>
      <point x="502.055" y="886.587" type="curve"/>
      <point x="544.601" y="1373.05" type="line" smooth="yes"/>
      <point x="553.256" y="1472.01"/>
      <point x="703.546" y="1457.24"/>
      <point x="695.027" y="1359.89" type="curve" smooth="yes"/>
      <point x="653.247" y="882.393" type="line"/>
      <point x="764.245" y="884.989" type="line" smooth="yes"/>
      <point x="965.11" y="889.687"/>
      <point x="1058.71" y="779.106"/>
      <point x="1058.18" y="612.872" type="curve" smooth="yes"/>
      <point x="1057.41" y="370.836" type="line"/>
      <point x="1079.89" y="378.785"/>
      <point x="1104.06" y="383"/>
      <point x="1129.18" y="383" type="curve" smooth="yes"/>
      <point x="1246.27" y="383"/>
      <point x="1341.18" y="288.089"/>
    </contour>
    <contour>
      <point x="1301.18" y="171" type="curve" smooth="yes"/>
      <point x="1301.18" y="265.997"/>
      <point x="1224.17" y="343"/>
      <point x="1129.18" y="343" type="curve" smooth="yes"/>
      <point x="1082.48" y="343"/>
      <point x="1056.27" y="327.625"/>
      <point x="1017.2" y="306.462" type="curve"/>
      <point x="1018.18" y="613" type="line" smooth="yes"/>
      <point x="1019.03" y="876.64"/>
      <point x="789.634" y="845.571"/>
      <point x="609.502" y="841.364" type="curve"/>
      <point x="655.179" y="1363.37" type="line" smooth="yes"/>
      <point x="659.103" y="1408.22"/>
      <point x="588.516" y="1416.06"/>
      <point x="584.449" y="1369.56" type="curve" smooth="yes"/>
      <point x="538.807" y="847.79" type="line"/>
      <point x="78.057" y="835.404"/>
      <point x="46.395" y="370.17"/>
      <point x="50.184" y="34.13" type="curve" smooth="yes"/>
      <point x="50.7093" y="-12.455"/>
      <point x="120.705" y="-11.6505"/>
      <point x="120.18" y="34.9195" type="curve" smooth="yes"/>
      <point x="116.809" y="333.818"/>
      <point x="117.986" y="762.59"/>
      <point x="532.72" y="778.257" type="curve"/>
      <point x="468.18" y="40.628" type="line" smooth="yes"/>
      <point x="464.256" y="-4.21853"/>
      <point x="534.842" y="-12.0603"/>
      <point x="538.91" y="34.4402" type="curve" smooth="yes"/>
      <point x="603.407" y="771.629" type="line"/>
      <point x="766.18" y="774" type="line" smooth="yes"/>
      <point x="912.905" y="776.137"/>
      <point x="948.613" y="714.354"/>
      <point x="948.18" y="550" type="curve" smooth="yes"/>
      <point x="947.18" y="171" type="line" smooth="yes"/>
      <point x="946.929" y="76.042"/>
      <point x="1034.13" y="0"/>
      <point x="1129.18" y="0" type="curve" smooth="yes"/>
      <point x="1224.18" y="0"/>
      <point x="1301.18" y="76.003"/>
    </contour>
    <contour>
      <point x="641" y="1362" type="curve" smooth="yes"/>
      <point x="641" y="1348.19"/>
      <point x="629.807" y="1337"/>
      <point x="616" y="1337" type="curve" smooth="yes"/>
      <point x="602.193" y="1337"/>
      <point x="591" y="1348.19"/>
      <point x="591" y="1362" type="curve" smooth="yes"/>
      <point x="591" y="1375.81"/>
      <point x="602.193" y="1387"/>
      <point x="616" y="1387" type="curve" smooth="yes"/>
      <point x="629.807" y="1387"/>
      <point x="641" y="1375.81"/>
    </contour>
    <contour>
      <point x="1231.18" y="171" type="curve" smooth="yes"/>
      <point x="1231.18" y="115.019"/>
      <point x="1185.2" y="70"/>
      <point x="1129.18" y="70" type="curve" smooth="yes"/>
      <point x="1073.16" y="70"/>
      <point x="1027.18" y="115.019"/>
      <point x="1027.18" y="171" type="curve" smooth="yes"/>
      <point x="1027.18" y="227.989"/>
      <point x="1073.17" y="273"/>
      <point x="1129.18" y="273" type="curve" smooth="yes"/>
      <point x="1185.19" y="273"/>
      <point x="1231.18" y="227.989"/>
    </contour>
    <contour>
      <point x="1191.18" y="171" type="curve" smooth="yes"/>
      <point x="1191.18" y="205.664"/>
      <point x="1163.33" y="233"/>
      <point x="1129.18" y="233" type="curve" smooth="yes"/>
      <point x="1095.02" y="233"/>
      <point x="1067.18" y="205.664"/>
      <point x="1067.18" y="171" type="curve" smooth="yes"/>
      <point x="1067.18" y="137.582"/>
      <point x="1094.78" y="110"/>
      <point x="1129.18" y="110" type="curve" smooth="yes"/>
      <point x="1163.58" y="110"/>
      <point x="1191.18" y="137.582"/>
    </contour>
  </outline>
</glyph>
<glyph name="uni1215" format="2">
  <advance width="1118"/>
  <unicode hex="1215"/>
  <outline>
    <contour>
      <point x="1058.18" y="35" type="line" smooth="yes"/>
      <point x="1058.18" y="-6.093"/>
      <point x="1024.27" y="-40"/>
      <point x="983.179" y="-40" type="curve" smooth="yes"/>
      <point x="940.305" y="-40"/>
      <point x="908.179" y="-5.30175"/>
      <point x="908.179" y="35" type="curve" smooth="yes"/>
      <point x="908.179" y="582" type="line" smooth="yes"/>
      <point x="908.179" y="712.357"/>
      <point x="870.959" y="738.433"/>
      <point x="697.201" y="734.013" type="curve" smooth="yes"/>
      <point x="640.139" y="732.561" type="line"/>
      <point x="578.758" y="30.9543" type="line" smooth="yes"/>
      <point x="570.103" y="-67.984"/>
      <point x="419.819" y="-53.1645"/>
      <point x="428.332" y="44.1145" type="curve" smooth="yes"/>
      <point x="488.882" y="736.051" type="line"/>
      <point x="270.516" y="717.673"/>
      <point x="154.36" y="551.218"/>
      <point x="160.177" y="35.3705" type="curve" smooth="yes"/>
      <point x="161.296" y="-63.9047"/>
      <point x="11.3058" y="-65.5992"/>
      <point x="10.1866" y="33.679" type="curve" smooth="yes"/>
      <point x="4.09155" y="574.214"/>
      <point x="150.023" y="867.734"/>
      <point x="502.055" y="886.588" type="curve"/>
      <point x="537.739" y="1294.61" type="line"/>
      <point x="223.682" y="1294" type="line" smooth="yes"/>
      <point x="182.455" y="1293.92"/>
      <point x="148.605" y="1327.98"/>
      <point x="148.605" y="1369" type="curve" smooth="yes"/>
      <point x="148.605" y="1411.61"/>
      <point x="177.551" y="1446.25"/>
      <point x="226.016" y="1445.72" type="curve"/>
      <point x="226.016" y="1445.72"/>
      <point x="499.902" y="1442.16"/>
      <point x="623.436" y="1441.34" type="curve" smooth="yes"/>
      <point x="666.471" y="1441.05"/>
      <point x="700.127" y="1410.4"/>
      <point x="695.652" y="1360" type="curve"/>
      <point x="695.652" y="1360"/>
      <point x="667.782" y="1048.48"/>
      <point x="653.329" y="883.278" type="curve"/>
      <point x="845.289" y="891.544"/>
      <point x="1058.18" y="880.383"/>
      <point x="1058.18" y="613" type="curve" smooth="yes"/>
    </contour>
    <contour>
      <point x="1018.18" y="35" type="curve" smooth="yes"/>
      <point x="1018.18" y="613" type="line" smooth="yes"/>
      <point x="1018.18" y="873.791"/>
      <point x="784.822" y="848.893"/>
      <point x="609.513" y="841.363" type="curve"/>
      <point x="655.179" y="1363.37" type="line" smooth="yes"/>
      <point x="656.891" y="1382.94"/>
      <point x="640.283" y="1401.22"/>
      <point x="623.169" y="1401.34" type="curve" smooth="yes"/>
      <point x="223.603" y="1404" type="line" smooth="yes"/>
      <point x="204.583" y="1404.13"/>
      <point x="188.604" y="1388.98"/>
      <point x="188.604" y="1369" type="curve" smooth="yes"/>
      <point x="188.604" y="1350"/>
      <point x="204.61" y="1333.96"/>
      <point x="223.604" y="1334" type="curve" smooth="yes"/>
      <point x="581.392" y="1334.69" type="line"/>
      <point x="538.808" y="847.79" type="line"/>
      <point x="78.057" y="835.404"/>
      <point x="46.395" y="370.171"/>
      <point x="50.184" y="34.1301" type="curve" smooth="yes"/>
      <point x="50.7093" y="-12.4549"/>
      <point x="120.705" y="-11.6504"/>
      <point x="120.18" y="34.9196" type="curve" smooth="yes"/>
      <point x="116.809" y="333.819"/>
      <point x="117.986" y="762.59"/>
      <point x="532.72" y="778.258" type="curve"/>
      <point x="468.18" y="40.628" type="line" smooth="yes"/>
      <point x="464.256" y="-4.21847"/>
      <point x="534.842" y="-12.0602"/>
      <point x="538.91" y="34.4403" type="curve" smooth="yes"/>
      <point x="603.406" y="771.628" type="line"/>
      <point x="767.679" y="775.828"/>
      <point x="948.18" y="817.978"/>
      <point x="948.18" y="582" type="curve" smooth="yes"/>
      <point x="948.18" y="35" type="line" smooth="yes"/>
      <point x="948.18" y="15.9573"/>
      <point x="963.221" y="0"/>
      <point x="983.18" y="0" type="curve" smooth="yes"/>
      <point x="1002.18" y="0"/>
      <point x="1018.18" y="16"/>
    </contour>
    <contour>
      <point x="641" y="1362" type="curve" smooth="yes"/>
      <point x="641" y="1348.19"/>
      <point x="629.807" y="1337"/>
      <point x="616" y="1337" type="curve" smooth="yes"/>
      <point x="602.193" y="1337"/>
      <point x="591" y="1348.19"/>
      <point x="591" y="1362" type="curve" smooth="yes"/>
      <point x="591" y="1375.81"/>
      <point x="602.193" y="1387"/>
      <point x="616" y="1387" type="curve" smooth="yes"/>
      <point x="629.807" y="1387"/>
      <point x="641" y="1375.81"/>
    </contour>
  </outline>
</glyph>
<glyph name="uni1217" format="2">
  <advance width="1523"/>
  <unicode hex="1217"/>
  <outline>
    <contour>
      <point x="1463.09" y="232.448" type="curve" smooth="yes"/>
      <point x="1463.09" y="192.233"/>
      <point x="1429.05" y="158.042"/>
      <point x="1387.93" y="158.105" type="curve" smooth="yes"/>
      <point x="587.367" y="159.334" type="line" smooth="yes"/>
      <point x="546.99" y="159.396"/>
      <point x="512.205" y="191.807"/>
      <point x="512.205" y="232.653" type="curve" smooth="yes"/>
      <point x="512.205" y="274.437"/>
      <point x="547.912" y="306.052"/>
      <point x="587.367" y="305.971" type="curve" smooth="yes"/>
      <point x="889.037" y="305.357" type="line"/>
      <point x="889.447" y="588.595" type="line" smooth="yes"/>
      <point x="889.627" y="713.342"/>
      <point x="853.224" y="737.025"/>
      <point x="677.888" y="735.027" type="curve" smooth="yes"/>
      <point x="606.003" y="734.208" type="line"/>
      <point x="596.975" y="634.764"/>
      <point x="576.089" y="396.403"/>
      <point x="576.089" y="396.403" type="curve"/>
      <point x="572.357" y="354.265"/>
      <point x="537.286" y="331.161"/>
      <point x="497.869" y="331.161" type="curve" smooth="yes"/>
      <point x="452.244" y="331.161"/>
      <point x="420.892" y="361.534"/>
      <point x="425.137" y="408.825" type="curve"/>
      <point x="425.137" y="408.825"/>
      <point x="444.899" y="629.42"/>
      <point x="454.656" y="737.689" type="curve"/>
      <point x="205.544" y="717.855"/>
      <point x="194.718" y="524.566"/>
      <point x="153.157" y="424.309" type="curve" smooth="yes"/>
      <point x="135.916" y="382.718"/>
      <point x="113.387" y="357.135"/>
      <point x="66.3554" y="366.592" type="curve" smooth="yes"/>
      <point x="20.0022" y="375.912"/>
      <point x="2.10819" y="421.072"/>
      <point x="13.5169" y="467.149" type="curve" smooth="yes"/>
      <point x="78.9752" y="731.515"/>
      <point x="226.626" y="872.023"/>
      <point x="467.763" y="884.736" type="curve"/>
      <point x="510.567" y="1355.57" type="line" smooth="yes"/>
      <point x="514.529" y="1399.16"/>
      <point x="553.93" y="1422.13"/>
      <point x="588.186" y="1422.13" type="curve" smooth="yes"/>
      <point x="631.251" y="1422.13"/>
      <point x="665.377" y="1393.19"/>
      <point x="661.032" y="1345.09" type="curve"/>
      <point x="661.032" y="1345.09"/>
      <point x="633.642" y="1042.17"/>
      <point x="619.111" y="881.049" type="curve"/>
      <point x="674.202" y="882.688" type="line" smooth="yes"/>
      <point x="852.957" y="888.004"/>
      <point x="1039.72" y="857.545"/>
      <point x="1039.56" y="618.496" type="curve" smooth="yes"/>
      <point x="1039.36" y="304.947" type="line"/>
      <point x="1387.93" y="304.743" type="line" smooth="yes"/>
      <point x="1426.64" y="304.72"/>
      <point x="1463.09" y="274.849"/>
    </contour>
    <contour>
      <point x="1422.95" y="232.448" type="curve" smooth="yes"/>
      <point x="1422.95" y="249.734"/>
      <point x="1407.71" y="264.591"/>
      <point x="1387.93" y="264.601" type="curve" smooth="yes"/>
      <point x="999.219" y="264.806" type="line"/>
      <point x="999.424" y="618.496" type="line" smooth="yes"/>
      <point x="999.574" y="877.767"/>
      <point x="745.391" y="844.617"/>
      <point x="575.283" y="839.68" type="curve"/>
      <point x="620.953" y="1345.95" type="line" smooth="yes"/>
      <point x="622.499" y="1363.07"/>
      <point x="607.946" y="1381.99"/>
      <point x="588.185" y="1381.99" type="curve" smooth="yes"/>
      <point x="568.41" y="1381.99"/>
      <point x="551.865" y="1369.17"/>
      <point x="550.297" y="1351.88" type="curve" smooth="yes"/>
      <point x="504.422" y="846.029" type="line"/>
      <point x="242.43" y="839.118"/>
      <point x="113.86" y="705.832"/>
      <point x="52.4286" y="457.728" type="curve" smooth="yes"/>
      <point x="36.5796" y="393.718"/>
      <point x="106.246" y="391.456"/>
      <point x="114.688" y="433.357" type="curve" smooth="yes"/>
      <point x="160.729" y="661.865"/>
      <point x="265.054" y="771.471"/>
      <point x="498.483" y="779.878" type="curve"/>
      <point x="498.37" y="778.626"/>
      <point x="464.466" y="405.731"/>
      <point x="464.466" y="405.731" type="curve"/>
      <point x="462.447" y="383.524"/>
      <point x="481.334" y="371.302"/>
      <point x="497.869" y="371.302" type="curve" smooth="yes"/>
      <point x="517.526" y="371.302"/>
      <point x="534.172" y="384.168"/>
      <point x="535.757" y="401.613" type="curve" smooth="yes"/>
      <point x="569.549" y="773.529" type="line"/>
      <point x="677.478" y="775.168" type="line" smooth="yes"/>
      <point x="860.036" y="777.939"/>
      <point x="929.789" y="748.261"/>
      <point x="929.587" y="588.595" type="curve" smooth="yes"/>
      <point x="929.177" y="265.216" type="line"/>
      <point x="587.366" y="265.831" type="line" smooth="yes"/>
      <point x="568.128" y="265.865"/>
      <point x="552.345" y="250.458"/>
      <point x="552.345" y="232.653" type="curve" smooth="yes"/>
      <point x="552.345" y="215.272"/>
      <point x="567.651" y="199.506"/>
      <point x="587.366" y="199.475" type="curve" smooth="yes"/>
      <point x="1387.93" y="198.247" type="line" smooth="yes"/>
      <point x="1407.11" y="198.217"/>
      <point x="1422.95" y="214.542"/>
    </contour>
    <contour>
      <point x="616.126" y="1343.44" type="curve" smooth="yes"/>
      <point x="616.126" y="1329.64"/>
      <point x="604.933" y="1318.44"/>
      <point x="591.126" y="1318.44" type="curve" smooth="yes"/>
      <point x="577.319" y="1318.44"/>
      <point x="566.126" y="1329.64"/>
      <point x="566.126" y="1343.44" type="curve" smooth="yes"/>
      <point x="566.126" y="1357.25"/>
      <point x="577.319" y="1368.44"/>
      <point x="591.126" y="1368.44" type="curve" smooth="yes"/>
      <point x="604.933" y="1368.44"/>
      <point x="616.126" y="1357.25"/>
    </contour>
  </outline>
</glyph>
<glyph name="uni1218" format="2">
  <advance width="1321"/>
  <unicode hex="1218"/>
  <outline>
    <contour>
      <point x="1260.98" y="858.617" type="curve" smooth="yes"/>
      <point x="1260.98" y="650.359"/>
      <point x="1186.7" y="411.491"/>
      <point x="975.004" y="398.676" type="curve" smooth="yes"/>
      <point x="932.956" y="396.131"/>
      <point x="869.924" y="395.021"/>
      <point x="816.439" y="413.61" type="curve" smooth="yes"/>
      <point x="761.095" y="432.845"/>
      <point x="714.487" y="474.14"/>
      <point x="712.996" y="553.761" type="curve" smooth="yes"/>
      <point x="704.79" y="992.1" type="line"/>
      <point x="686.539" y="990.691" type="line"/>
      <point x="570.034" y="465.34" type="line" smooth="yes"/>
      <point x="534.444" y="304.853"/>
      <point x="10" y="285.277"/>
      <point x="10" y="604.158" type="curve" smooth="yes"/>
      <point x="10" y="1099.22"/>
      <point x="456.157" y="1136.36"/>
      <point x="828.525" y="1145.78" type="curve" smooth="yes"/>
      <point x="917.521" y="1148.03"/>
      <point x="1014.69" y="1157.83"/>
      <point x="1100.41" y="1128.05" type="curve" smooth="yes"/>
      <point x="1196.38" y="1094.71"/>
      <point x="1260.98" y="1014.6"/>
    </contour>
    <contour>
      <point x="1220.98" y="858.617" type="curve" smooth="yes"/>
      <point x="1220.98" y="1133.42"/>
      <point x="1019.05" y="1110.58"/>
      <point x="829.535" y="1105.79" type="curve" smooth="yes"/>
      <point x="480.74" y="1096.97"/>
      <point x="50" y="1071.36"/>
      <point x="50" y="604.158" type="curve" smooth="yes"/>
      <point x="50" y="331.339"/>
      <point x="506.289" y="362.65"/>
      <point x="530.983" y="474" type="curve" smooth="yes"/>
      <point x="653.903" y="1028.28" type="line"/>
      <point x="743.985" y="1035.26" type="line"/>
      <point x="752.989" y="554.51" type="line" smooth="yes"/>
      <point x="754.095" y="495.497"/>
      <point x="786.07" y="466.512"/>
      <point x="829.572" y="451.392" type="curve" smooth="yes"/>
      <point x="874.932" y="435.627"/>
      <point x="930.985" y="436.085"/>
      <point x="972.588" y="438.603" type="curve" smooth="yes"/>
      <point x="1146.15" y="449.109"/>
      <point x="1220.98" y="648.535"/>
    </contour>
    <contour>
      <point x="1150.98" y="858.617" type="curve" smooth="yes"/>
      <point x="1150.98" y="669.16"/>
      <point x="1110.82" y="489.118"/>
      <point x="888.527" y="507.706" type="curve" smooth="yes"/>
      <point x="864.768" y="509.693"/>
      <point x="822.382" y="506.492"/>
      <point x="821.98" y="542.617" type="curve" smooth="yes"/>
      <point x="816.43" y="1040.26" type="line"/>
      <point x="855.188" y="1038.46"/>
      <point x="893.716" y="1038.48"/>
      <point x="932.501" y="1038.29" type="curve" smooth="yes"/>
      <point x="1058.26" y="1037.66"/>
      <point x="1150.98" y="1019.78"/>
    </contour>
    <contour>
      <point x="642" y="1055" type="curve" smooth="yes"/>
      <point x="642" y="1041.19"/>
      <point x="630.807" y="1030"/>
      <point x="617" y="1030" type="curve" smooth="yes"/>
      <point x="603.193" y="1030"/>
      <point x="592" y="1041.19"/>
      <point x="592" y="1055" type="curve" smooth="yes"/>
      <point x="592" y="1068.81"/>
      <point x="603.193" y="1080"/>
      <point x="617" y="1080" type="curve" smooth="yes"/>
      <point x="630.807" y="1080"/>
      <point x="642" y="1068.81"/>
    </contour>
    <contour>
      <point x="579.768" y="1025.72" type="curve"/>
      <point x="467.997" y="514.617" type="line" smooth="yes"/>
      <point x="456.008" y="459.795"/>
      <point x="368.707" y="463.859"/>
      <point x="327.639" y="462.589" type="curve" smooth="yes"/>
      <point x="204.492" y="458.78"/>
      <point x="119.937" y="517.772"/>
      <point x="119.937" y="602.636" type="curve" smooth="yes"/>
      <point x="119.937" y="903.017"/>
      <point x="318.373" y="1002.78"/>
    </contour>
    <contour>
      <point x="1110.98" y="858.617" type="curve" smooth="yes"/>
      <point x="1110.98" y="993.766"/>
      <point x="1036.27" y="997.77"/>
      <point x="932.3" y="998.291" type="curve" smooth="yes"/>
      <point x="907.433" y="998.416"/>
      <point x="882.009" y="998.077"/>
      <point x="856.899" y="998.621" type="curve"/>
      <point x="861.897" y="549.634" type="line"/>
      <point x="1068.41" y="516.949"/>
      <point x="1110.98" y="661.698"/>
    </contour>
    <contour>
      <point x="528.974" y="980.697" type="line"/>
      <point x="300.96" y="953.575"/>
      <point x="159.937" y="842.403"/>
      <point x="159.937" y="602.636" type="curve" smooth="yes"/>
      <point x="159.937" y="552.027"/>
      <point x="212.111" y="499.035"/>
      <point x="326.401" y="502.57" type="curve" smooth="yes"/>
      <point x="342.879" y="503.079"/>
      <point x="424.244" y="501.776"/>
      <point x="428.921" y="523.163" type="curve" smooth="yes"/>
    </contour>
  </outline>
</glyph>
<glyph name="uni121C" format="2">
  <advance width="1524"/>
  <unicode hex="121C"/>
  <outline>
    <contour>
      <point x="1463.19" y="154.41" type="curve" smooth="yes"/>
      <point x="1453" y="37.943"/>
      <point x="1350.49" y="-48.5362"/>
      <point x="1234.51" y="-38.394" type="curve" smooth="yes"/>
      <point x="1100.18" y="-26.6457"/>
      <point x="1018.79" y="69.023"/>
      <point x="1031.27" y="188.999" type="curve"/>
      <point x="1031.27" y="188.999"/>
      <point x="1075.03" y="609.438"/>
      <point x="1083.18" y="688.128" type="curve"/>
      <point x="969.511" y="619.868"/>
      <point x="716.323" y="629.251"/>
      <point x="712.996" y="806.971" type="curve" smooth="yes"/>
      <point x="704.79" y="1245.3" type="line"/>
      <point x="686.538" y="1243.89" type="line"/>
      <point x="570.033" y="718.55" type="line" smooth="yes"/>
      <point x="534.429" y="558.001"/>
      <point x="10" y="538.517"/>
      <point x="10" y="857.368" type="curve" smooth="yes"/>
      <point x="10" y="1357.02"/>
      <point x="463.561" y="1388.93"/>
      <point x="828.479" y="1398.99" type="curve" smooth="yes"/>
      <point x="919.281" y="1401.49"/>
      <point x="1012.86" y="1413.35"/>
      <point x="1100.81" y="1382.5" type="curve" smooth="yes"/>
      <point x="1196.85" y="1348.83"/>
      <point x="1261.55" y="1268.13"/>
      <point x="1260.98" y="1112.47" type="curve" smooth="yes"/>
      <point x="1260.32" y="930.271"/>
      <point x="1217.73" y="537.639"/>
      <point x="1199.96" y="377.619" type="curve"/>
      <point x="1223.01" y="383.936"/>
      <point x="1246.91" y="386.142"/>
      <point x="1271.47" y="383.995" type="curve" smooth="yes"/>
      <point x="1387.12" y="373.882"/>
      <point x="1473.38" y="270.925"/>
    </contour>
    <contour>
      <point x="1423.34" y="157.896" type="curve" smooth="yes"/>
      <point x="1431.62" y="252.54"/>
      <point x="1361.47" y="335.972"/>
      <point x="1267.98" y="344.147" type="curve" smooth="yes"/>
      <point x="1221.4" y="348.22"/>
      <point x="1193.18" y="333.501"/>
      <point x="1152.76" y="315.094" type="curve"/>
      <point x="1177.5" y="537.142"/>
      <point x="1220.18" y="894.154"/>
      <point x="1220.98" y="1112.62" type="curve" smooth="yes"/>
      <point x="1222" y="1389.65"/>
      <point x="1018.78" y="1364.21"/>
      <point x="829.581" y="1359" type="curve" smooth="yes"/>
      <point x="487.688" y="1349.58"/>
      <point x="50" y="1327.9"/>
      <point x="50" y="857.367" type="curve" smooth="yes"/>
      <point x="50" y="584.532"/>
      <point x="506.275" y="615.794"/>
      <point x="530.983" y="727.209" type="curve" smooth="yes"/>
      <point x="653.903" y="1281.48" type="line"/>
      <point x="743.985" y="1288.45" type="line"/>
      <point x="752.989" y="807.719" type="line" smooth="yes"/>
      <point x="755.194" y="690.008"/>
      <point x="887.631" y="686.671"/>
      <point x="972.587" y="691.812" type="curve" smooth="yes"/>
      <point x="1037" y="695.71"/>
      <point x="1084.83" y="736.871"/>
      <point x="1132.36" y="774.838" type="curve"/>
      <point x="1071.58" y="187.551" type="line" smooth="yes"/>
      <point x="1061.91" y="94.1377"/>
      <point x="1143.11" y="9.75125"/>
      <point x="1238" y="1.453" type="curve" smooth="yes"/>
      <point x="1331.79" y="-6.749"/>
      <point x="1415.06" y="63.2588"/>
    </contour>
    <contour>
      <point x="1150.98" y="1111.83" type="curve" smooth="yes"/>
      <point x="1150.98" y="922.383"/>
      <point x="1110.78" y="742.332"/>
      <point x="888.527" y="760.916" type="curve" smooth="yes"/>
      <point x="864.768" y="762.903"/>
      <point x="822.382" y="759.696"/>
      <point x="821.98" y="795.827" type="curve" smooth="yes"/>
      <point x="816.43" y="1293.47" type="line"/>
      <point x="855.187" y="1291.67"/>
      <point x="893.716" y="1291.69"/>
      <point x="932.501" y="1291.5" type="curve" smooth="yes"/>
      <point x="1058.26" y="1290.87"/>
      <point x="1150.98" y="1272.99"/>
    </contour>
    <contour>
      <point x="647" y="1315" type="curve" smooth="yes"/>
      <point x="647" y="1301.19"/>
      <point x="635.807" y="1290"/>
      <point x="622" y="1290" type="curve" smooth="yes"/>
      <point x="608.193" y="1290"/>
      <point x="597" y="1301.19"/>
      <point x="597" y="1315" type="curve" smooth="yes"/>
      <point x="597" y="1328.81"/>
      <point x="608.193" y="1340"/>
      <point x="622" y="1340" type="curve" smooth="yes"/>
      <point x="635.807" y="1340"/>
      <point x="647" y="1328.81"/>
    </contour>
    <contour>
      <point x="1353.61" y="163.997" type="curve" smooth="yes"/>
      <point x="1348.73" y="108.191"/>
      <point x="1299.92" y="66.3072"/>
      <point x="1244.1" y="71.188" type="curve" smooth="yes"/>
      <point x="1187.28" y="76.1565"/>
      <point x="1146.5" y="125.894"/>
      <point x="1151.38" y="181.69" type="curve" smooth="yes"/>
      <point x="1156.26" y="237.487"/>
      <point x="1205.06" y="279.381"/>
      <point x="1261.88" y="274.413" type="curve" smooth="yes"/>
      <point x="1317.69" y="269.533"/>
      <point x="1358.49" y="219.804"/>
    </contour>
    <contour>
      <point x="579.768" y="1278.94" type="curve"/>
      <point x="467.997" y="767.827" type="line" smooth="yes"/>
      <point x="456.012" y="713.02"/>
      <point x="368.703" y="717.068"/>
      <point x="327.638" y="715.799" type="curve" smooth="yes"/>
      <point x="204.498" y="711.991"/>
      <point x="119.937" y="770.982"/>
      <point x="119.937" y="855.846" type="curve" smooth="yes"/>
      <point x="119.937" y="1156.23"/>
      <point x="318.369" y="1255.99"/>
    </contour>
    <contour>
      <point x="1110.98" y="1111.83" type="curve" smooth="yes"/>
      <point x="1110.98" y="1246.97"/>
      <point x="1036.27" y="1250.98"/>
      <point x="932.3" y="1251.5" type="curve" smooth="yes"/>
      <point x="907.433" y="1251.63"/>
      <point x="882.009" y="1251.29"/>
      <point x="856.899" y="1251.84" type="curve"/>
      <point x="861.897" y="802.849" type="line"/>
      <point x="1068.38" y="770.17"/>
      <point x="1110.98" y="914.914"/>
    </contour>
    <contour>
      <point x="1313.76" y="167.484" type="curve" smooth="yes"/>
      <point x="1316.76" y="201.767"/>
      <point x="1291.71" y="231.653"/>
      <point x="1258.4" y="234.565" type="curve" smooth="yes"/>
      <point x="1223.84" y="237.587"/>
      <point x="1194.2" y="212.236"/>
      <point x="1191.23" y="178.205" type="curve" smooth="yes"/>
      <point x="1188.25" y="144.17"/>
      <point x="1213.03" y="114.057"/>
      <point x="1247.59" y="111.036" type="curve" smooth="yes"/>
      <point x="1280.9" y="108.123"/>
      <point x="1310.76" y="133.204"/>
    </contour>
    <contour>
      <point x="528.974" y="1233.91" type="line"/>
      <point x="300.96" y="1206.79"/>
      <point x="159.937" y="1095.62"/>
      <point x="159.937" y="855.846" type="curve" smooth="yes"/>
      <point x="159.937" y="805.24"/>
      <point x="212.117" y="752.246"/>
      <point x="326.402" y="755.78" type="curve" smooth="yes"/>
      <point x="342.879" y="756.289"/>
      <point x="424.246" y="754.994"/>
      <point x="428.92" y="776.373" type="curve" smooth="yes"/>
    </contour>
  </outline>
</glyph>
<glyph name="uni121F" format="2">
  <advance width="1673"/>
  <unicode hex="121F"/>
  <outline>
    <contour>
      <point x="1613" y="232.448" type="curve" smooth="yes"/>
      <point x="1613" y="192.271"/>
      <point x="1578.95" y="158.042"/>
      <point x="1537.84" y="158.105" type="curve" smooth="yes"/>
      <point x="737.28" y="159.334" type="line" smooth="yes"/>
      <point x="696.816" y="159.396"/>
      <point x="662.323" y="191.938"/>
      <point x="662.323" y="232.653" type="curve" smooth="yes"/>
      <point x="662.323" y="274.383"/>
      <point x="697.995" y="306.077"/>
      <point x="737.485" y="305.971" type="curve" smooth="yes"/>
      <point x="1042.64" y="305.152" type="line"/>
      <point x="1078.48" y="683.417" type="line"/>
      <point x="970.007" y="626.203"/>
      <point x="716.224" y="634.291"/>
      <point x="712.909" y="805.683" type="curve" smooth="yes"/>
      <point x="704.717" y="1229.21" type="line"/>
      <point x="686.49" y="1227.78" type="line"/>
      <point x="643.056" y="1038.44"/>
      <point x="566.232" y="712.64"/>
      <point x="566.232" y="712.64" type="curve"/>
      <point x="548.104" y="634.988"/>
      <point x="446.144" y="608.033"/>
      <point x="321.536" y="609.894" type="curve" smooth="yes"/>
      <point x="189.433" y="611.868"/>
      <point x="9.83054" y="672.353"/>
      <point x="9.83054" y="854.63" type="curve" smooth="yes"/>
      <point x="9.83054" y="1343.03"/>
      <point x="474.286" y="1369.68"/>
      <point x="828.416" y="1379.12" type="curve" smooth="yes"/>
      <point x="918.896" y="1381.54"/>
      <point x="1012.42" y="1393"/>
      <point x="1100.19" y="1363.15" type="curve" smooth="yes"/>
      <point x="1194.43" y="1331.1"/>
      <point x="1273.64" y="1252.43"/>
      <point x="1260.75" y="1098.96" type="curve"/>
      <point x="1260.75" y="1098.96"/>
      <point x="1253.37" y="1010.09"/>
      <point x="1249.69" y="967.27" type="curve" smooth="yes"/>
      <point x="1192.76" y="304.947" type="line"/>
      <point x="1538.05" y="304.742" type="line" smooth="yes"/>
      <point x="1576.87" y="304.719"/>
      <point x="1613" y="274.718"/>
    </contour>
    <contour>
      <point x="1572.86" y="232.448" type="curve" smooth="yes"/>
      <point x="1572.86" y="249.802"/>
      <point x="1557.73" y="264.591"/>
      <point x="1538.05" y="264.601" type="curve" smooth="yes"/>
      <point x="1149.34" y="264.806" type="line"/>
      <point x="1173.32" y="543.905"/>
      <point x="1197.73" y="823.089"/>
      <point x="1221.02" y="1102.23" type="curve" smooth="yes"/>
      <point x="1236.42" y="1286.88"/>
      <point x="1109.35" y="1341.23"/>
      <point x="960.512" y="1343.28" type="curve" smooth="yes"/>
      <point x="916.092" y="1343.9"/>
      <point x="870.975" y="1340.08"/>
      <point x="829.645" y="1338.98" type="curve" smooth="yes"/>
      <point x="498.872" y="1330.16"/>
      <point x="49.9713" y="1313.24"/>
      <point x="49.9713" y="854.63" type="curve" smooth="yes"/>
      <point x="49.9713" y="591.565"/>
      <point x="506.502" y="621.883"/>
      <point x="531.047" y="728.883" type="curve" smooth="yes"/>
      <point x="654.131" y="1265.46" type="line"/>
      <point x="744.039" y="1272.22" type="line"/>
      <point x="753.05" y="806.502" type="line" smooth="yes"/>
      <point x="755.266" y="691.97"/>
      <point x="891.158" y="690.12"/>
      <point x="972.595" y="694.886" type="curve" smooth="yes"/>
      <point x="1041.74" y="698.933"/>
      <point x="1075" y="726.605"/>
      <point x="1126.4" y="766.157" type="curve"/>
      <point x="1079.09" y="265.011" type="line"/>
      <point x="737.485" y="265.83" type="line" smooth="yes"/>
      <point x="718.272" y="265.876"/>
      <point x="702.464" y="250.444"/>
      <point x="702.464" y="232.653" type="curve" smooth="yes"/>
      <point x="702.464" y="215.199"/>
      <point x="717.679" y="199.505"/>
      <point x="737.28" y="199.475" type="curve" smooth="yes"/>
      <point x="1537.84" y="198.246" type="line" smooth="yes"/>
      <point x="1557.01" y="198.217"/>
      <point x="1572.86" y="214.565"/>
    </contour>
    <contour>
      <point x="1150.98" y="1100.8" type="curve" smooth="yes"/>
      <point x="1150.98" y="880.553"/>
      <point x="1082.58" y="724.209"/>
      <point x="854.221" y="763.085" type="curve" smooth="yes"/>
      <point x="837.569" y="765.919"/>
      <point x="822.085" y="775.63"/>
      <point x="821.862" y="795.033" type="curve" smooth="yes"/>
      <point x="816.333" y="1277.13" type="line"/>
      <point x="855.122" y="1275.39"/>
      <point x="893.64" y="1275.48"/>
      <point x="932.454" y="1275.29" type="curve" smooth="yes"/>
      <point x="970.949" y="1275.1"/>
      <point x="1008.11" y="1273.58"/>
      <point x="1040.38" y="1265.87" type="curve" smooth="yes"/>
      <point x="1104.79" y="1250.49"/>
      <point x="1150.98" y="1209.68"/>
    </contour>
    <contour>
      <point x="579.994" y="1263.21" type="curve"/>
      <point x="467.968" y="767.591" type="line" smooth="yes"/>
      <point x="455.852" y="713.985"/>
      <point x="368.023" y="718.006"/>
      <point x="327.68" y="716.8" type="curve" smooth="yes"/>
      <point x="205.309" y="713.141"/>
      <point x="119.808" y="769.849"/>
      <point x="119.808" y="852.992" type="curve" smooth="yes"/>
      <point x="119.808" y="1149.55"/>
      <point x="326.437" y="1241.68"/>
    </contour>
    <contour>
      <point x="1110.84" y="1100.8" type="curve" smooth="yes"/>
      <point x="1110.84" y="1232.6"/>
      <point x="1032.96" y="1234.66"/>
      <point x="932.454" y="1235.15" type="curve" smooth="yes"/>
      <point x="907.586" y="1235.27"/>
      <point x="882.025" y="1235.02"/>
      <point x="856.883" y="1235.56" type="curve"/>
      <point x="861.798" y="802.407" type="line"/>
      <point x="1063.26" y="771.55"/>
      <point x="1110.84" y="902.601"/>
    </contour>
    <contour>
      <point x="528.794" y="1218.15" type="line"/>
      <point x="300.348" y="1191.83"/>
      <point x="159.949" y="1084.01"/>
      <point x="159.949" y="852.992" type="curve" smooth="yes"/>
      <point x="159.949" y="730.469"/>
      <point x="422.9" y="749.346"/>
      <point x="429.056" y="776.602" type="curve" smooth="yes"/>
    </contour>
    <contour>
      <point x="790.513" y="1311.74" type="curve" smooth="yes"/>
      <point x="790.513" y="1297.93"/>
      <point x="779.32" y="1286.74"/>
      <point x="765.513" y="1286.74" type="curve" smooth="yes"/>
      <point x="751.706" y="1286.74"/>
      <point x="740.513" y="1297.93"/>
      <point x="740.513" y="1311.74" type="curve" smooth="yes"/>
      <point x="740.513" y="1325.54"/>
      <point x="751.706" y="1336.74"/>
      <point x="765.513" y="1336.74" type="curve" smooth="yes"/>
      <point x="779.32" y="1336.74"/>
      <point x="790.513" y="1325.54"/>
    </contour>
  </outline>
</glyph>
<glyph name="uni1220" format="2">
  <advance width="1362"/>
  <unicode hex="1220"/>
  <outline>
    <contour>
      <point x="1295.71" y="1157.82" type="curve" smooth="yes"/>
      <point x="1313.04" y="1015.09"/>
      <point x="1297.66" y="885.572"/>
      <point x="1228.23" y="754.361" type="curve" smooth="yes"/>
      <point x="1156.36" y="618.524"/>
      <point x="1017.6" y="597.834"/>
      <point x="895.205" y="588.125" type="curve" smooth="yes"/>
      <point x="809.28" y="581.31"/>
      <point x="749.856" y="613.705"/>
      <point x="709.673" y="663.322" type="curve"/>
      <point x="698.283" y="630.935"/>
      <point x="685.386" y="598.533"/>
      <point x="670.875" y="566.701" type="curve" smooth="yes"/>
      <point x="547.517" y="296.108"/>
      <point x="-49.3055" y="262.907"/>
      <point x="14.415" y="563.062" type="curve" smooth="yes"/>
      <point x="121.267" y="1066.39" type="line" smooth="yes"/>
      <point x="141.927" y="1163.71"/>
      <point x="288.666" y="1132.58"/>
      <point x="267.997" y="1035.24" type="curve" smooth="yes"/>
      <point x="160.832" y="530.534" type="line" smooth="yes"/>
      <point x="151.119" y="484.789"/>
      <point x="285.59" y="501.51"/>
      <point x="302.153" y="503.691" type="curve" smooth="yes"/>
      <point x="405.5" y="517.299"/>
      <point x="505.594" y="565.759"/>
      <point x="534.389" y="628.925" type="curve" smooth="yes"/>
      <point x="569.783" y="706.566"/>
      <point x="618.037" y="909.544"/>
      <point x="626.669" y="1110.45" type="curve" smooth="yes"/>
      <point x="628.731" y="1158.44"/>
      <point x="667.089" y="1183.73"/>
      <point x="702.248" y="1183.82" type="curve" smooth="yes"/>
      <point x="737.829" y="1183.91"/>
      <point x="776.53" y="1157.99"/>
      <point x="776.632" y="1108.97" type="curve" smooth="yes"/>
      <point x="776.814" y="1021.21"/>
      <point x="736.512" y="726.008"/>
      <point x="883.341" y="737.655" type="curve" smooth="yes"/>
      <point x="981.902" y="745.473"/>
      <point x="1062.09" y="759.809"/>
      <point x="1094.66" y="824.583" type="curve" smooth="yes"/>
      <point x="1153.45" y="941.479"/>
      <point x="1159.07" y="1038.68"/>
      <point x="1146.8" y="1139.73" type="curve" smooth="yes"/>
      <point x="1134.82" y="1238.37"/>
      <point x="1283.73" y="1256.45"/>
    </contour>
    <contour>
      <point x="1256" y="1153" type="curve" smooth="yes"/>
      <point x="1250.38" y="1199.3"/>
      <point x="1180.89" y="1190.86"/>
      <point x="1186.51" y="1144.56" type="curve" smooth="yes"/>
      <point x="1199.5" y="1037.62"/>
      <point x="1193.52" y="932.115"/>
      <point x="1130.4" y="806.61" type="curve" smooth="yes"/>
      <point x="1086.15" y="718.631"/>
      <point x="979.945" y="705.192"/>
      <point x="886.504" y="697.78" type="curve" smooth="yes"/>
      <point x="693.13" y="682.441"/>
      <point x="736.872" y="993.361"/>
      <point x="736.632" y="1108.89" type="curve" smooth="yes"/>
      <point x="736.584" y="1132.05"/>
      <point x="719.788" y="1143.86"/>
      <point x="702.347" y="1143.82" type="curve" smooth="yes"/>
      <point x="684.942" y="1143.78"/>
      <point x="667.628" y="1131.91"/>
      <point x="666.633" y="1108.74" type="curve" smooth="yes"/>
      <point x="657.861" y="904.595"/>
      <point x="608.998" y="696.154"/>
      <point x="570.786" y="612.332" type="curve" smooth="yes"/>
      <point x="499.29" y="455.499"/>
      <point x="91.4723" y="396.458"/>
      <point x="121.705" y="538.842" type="curve" smooth="yes"/>
      <point x="228.869" y="1043.54" type="line" smooth="yes"/>
      <point x="238.589" y="1089.32"/>
      <point x="170.109" y="1103.84"/>
      <point x="160.395" y="1058.08" type="curve" smooth="yes"/>
      <point x="53.543" y="554.755" type="line" smooth="yes"/>
      <point x="1.89829" y="311.482"/>
      <point x="529.187" y="352.331"/>
      <point x="634.479" y="583.294" type="curve" smooth="yes"/>
      <point x="660.308" y="639.953"/>
      <point x="679.42" y="698.159"/>
      <point x="698.135" y="757.383" type="curve"/>
      <point x="744.767" y="676.03"/>
      <point x="783.279" y="619.372"/>
      <point x="892.042" y="628" type="curve" smooth="yes"/>
      <point x="1015.37" y="637.783"/>
      <point x="1132.1" y="658.207"/>
      <point x="1192.88" y="773.069" type="curve" smooth="yes"/>
      <point x="1257.77" y="895.716"/>
      <point x="1272.55" y="1016.72"/>
    </contour>
    <contour>
      <point x="213" y="1047" type="curve" smooth="yes"/>
      <point x="213" y="1033.19"/>
      <point x="201.807" y="1022"/>
      <point x="188" y="1022" type="curve" smooth="yes"/>
      <point x="174.193" y="1022"/>
      <point x="163" y="1033.19"/>
      <point x="163" y="1047" type="curve" smooth="yes"/>
      <point x="163" y="1060.81"/>
      <point x="174.193" y="1072"/>
      <point x="188" y="1072" type="curve" smooth="yes"/>
      <point x="201.807" y="1072"/>
      <point x="213" y="1060.81"/>
    </contour>
  </outline>
</glyph>
<glyph name="uni1221" format="2">
  <advance width="1746"/>
  <unicode hex="1221"/>
  <outline>
    <contour>
      <point x="1686" y="890.813" type="curve" smooth="yes"/>
      <point x="1686" y="848.315"/>
      <point x="1651.7" y="814.917"/>
      <point x="1611.1" y="814.813" type="curve" smooth="yes"/>
      <point x="1256.06" y="813.908" type="line"/>
      <point x="1185.62" y="638.388"/>
      <point x="1072.61" y="602.199"/>
      <point x="895.206" y="588.125" type="curve" smooth="yes"/>
      <point x="809.306" y="581.311"/>
      <point x="749.859" y="613.704"/>
      <point x="709.673" y="663.322" type="curve"/>
      <point x="698.283" y="630.936"/>
      <point x="685.39" y="598.54"/>
      <point x="670.875" y="566.701" type="curve" smooth="yes"/>
      <point x="547.499" y="296.075"/>
      <point x="-49.3055" y="262.907"/>
      <point x="14.415" y="563.062" type="curve" smooth="yes"/>
      <point x="121.267" y="1066.39" type="line" smooth="yes"/>
      <point x="141.919" y="1163.67"/>
      <point x="288.663" y="1132.56"/>
      <point x="267.997" y="1035.24" type="curve" smooth="yes"/>
      <point x="160.832" y="530.534" type="line" smooth="yes"/>
      <point x="151.119" y="484.789"/>
      <point x="285.59" y="501.512"/>
      <point x="302.153" y="503.692" type="curve" smooth="yes"/>
      <point x="405.501" y="517.3"/>
      <point x="505.594" y="565.759"/>
      <point x="534.39" y="628.925" type="curve" smooth="yes"/>
      <point x="569.833" y="706.672"/>
      <point x="621.795" y="931.066"/>
      <point x="626.647" y="1109.82" type="curve" smooth="yes"/>
      <point x="627.968" y="1158.49"/>
      <point x="666.933" y="1183.75"/>
      <point x="701.978" y="1183.83" type="curve" smooth="yes"/>
      <point x="737.285" y="1183.91"/>
      <point x="776.528" y="1158.32"/>
      <point x="776.632" y="1108.97" type="curve" smooth="yes"/>
      <point x="776.816" y="1021.21"/>
      <point x="736.506" y="726.006"/>
      <point x="883.341" y="737.655" type="curve" smooth="yes"/>
      <point x="981.877" y="745.472"/>
      <point x="1062.09" y="759.812"/>
      <point x="1094.66" y="824.583" type="curve" smooth="yes"/>
      <point x="1153.45" y="941.466"/>
      <point x="1159.08" y="1038.68"/>
      <point x="1146.8" y="1139.73" type="curve" smooth="yes"/>
      <point x="1134.82" y="1238.37"/>
      <point x="1283.73" y="1256.45"/>
      <point x="1295.71" y="1157.82" type="curve" smooth="yes"/>
      <point x="1303.26" y="1095.66"/>
      <point x="1297.73" y="1021.9"/>
      <point x="1290.93" y="964.821" type="curve"/>
      <point x="1611" y="964.813" type="line" smooth="yes"/>
      <point x="1650.48" y="964.812"/>
      <point x="1686" y="933.48"/>
    </contour>
    <contour>
      <point x="1646" y="890.813" type="curve" smooth="yes"/>
      <point x="1646" y="909.731"/>
      <point x="1630.09" y="924.813"/>
      <point x="1611" y="924.813" type="curve" smooth="yes"/>
      <point x="1245.39" y="924.816" type="line"/>
      <point x="1255.18" y="998.195"/>
      <point x="1264.98" y="1079.08"/>
      <point x="1256" y="1153" type="curve" smooth="yes"/>
      <point x="1250.38" y="1199.31"/>
      <point x="1180.89" y="1190.86"/>
      <point x="1186.51" y="1144.56" type="curve" smooth="yes"/>
      <point x="1199.5" y="1037.62"/>
      <point x="1193.52" y="932.119"/>
      <point x="1130.4" y="806.611" type="curve" smooth="yes"/>
      <point x="1086.16" y="718.641"/>
      <point x="979.909" y="705.191"/>
      <point x="886.504" y="697.781" type="curve" smooth="yes"/>
      <point x="693.138" y="682.441"/>
      <point x="736.874" y="993.356"/>
      <point x="736.632" y="1108.89" type="curve" smooth="yes"/>
      <point x="736.583" y="1132.04"/>
      <point x="719.62" y="1143.87"/>
      <point x="702.07" y="1143.83" type="curve" smooth="yes"/>
      <point x="684.544" y="1143.79"/>
      <point x="667.261" y="1131.9"/>
      <point x="666.632" y="1108.74" type="curve" smooth="yes"/>
      <point x="661.675" y="926.093"/>
      <point x="608.996" y="696.149"/>
      <point x="570.786" y="612.332" type="curve" smooth="yes"/>
      <point x="499.285" y="455.494"/>
      <point x="91.4721" y="396.458"/>
      <point x="121.705" y="538.842" type="curve" smooth="yes"/>
      <point x="228.869" y="1043.54" type="line" smooth="yes"/>
      <point x="238.58" y="1089.28"/>
      <point x="170.101" y="1103.8"/>
      <point x="160.395" y="1058.08" type="curve" smooth="yes"/>
      <point x="53.5429" y="554.756" type="line" smooth="yes"/>
      <point x="1.89463" y="311.467"/>
      <point x="529.181" y="352.321"/>
      <point x="634.479" y="583.294" type="curve" smooth="yes"/>
      <point x="660.307" y="639.949"/>
      <point x="679.42" y="698.16"/>
      <point x="698.134" y="757.384" type="curve"/>
      <point x="744.764" y="676.036"/>
      <point x="783.303" y="619.374"/>
      <point x="892.042" y="628" type="curve" smooth="yes"/>
      <point x="1079.1" y="642.84"/>
      <point x="1164.04" y="680.113"/>
      <point x="1228.4" y="853.845" type="curve"/>
      <point x="1611" y="854.813" type="line" smooth="yes"/>
      <point x="1629.57" y="854.86"/>
      <point x="1646" y="870.391"/>
    </contour>
    <contour>
      <point x="213" y="1047" type="curve" smooth="yes"/>
      <point x="213" y="1033.19"/>
      <point x="201.807" y="1022"/>
      <point x="188" y="1022" type="curve" smooth="yes"/>
      <point x="174.193" y="1022"/>
      <point x="163" y="1033.19"/>
      <point x="163" y="1047" type="curve" smooth="yes"/>
      <point x="163" y="1060.81"/>
      <point x="174.193" y="1072"/>
      <point x="188" y="1072" type="curve" smooth="yes"/>
      <point x="201.807" y="1072"/>
      <point x="213" y="1060.81"/>
    </contour>
  </outline>
</glyph>
<glyph name="uni1222" format="2">
  <advance width="1369"/>
  <unicode hex="1222"/>
  <outline>
    <contour>
      <point x="1309.15" y="34" type="curve" smooth="yes"/>
      <point x="1309.15" y="-7.2225"/>
      <point x="1276.08" y="-42.097"/>
      <point x="1234.06" y="-42" type="curve" smooth="yes"/>
      <point x="801.057" y="-41" type="line" smooth="yes"/>
      <point x="761.887" y="-40.9098"/>
      <point x="725.149" y="-9.8888"/>
      <point x="725.149" y="36.4292" type="curve" smooth="yes"/>
      <point x="725.149" y="38.8584" type="line"/>
      <point x="891.142" y="712.049" type="line"/>
      <point x="781.255" y="697.652"/>
      <point x="644.145" y="671.155"/>
      <point x="560.726" y="766.706" type="curve"/>
      <point x="550.654" y="737.184"/>
      <point x="539.146" y="707.679"/>
      <point x="525.025" y="676.702" type="curve" smooth="yes"/>
      <point x="400.107" y="402.679"/>
      <point x="-47.2762" y="485.476"/>
      <point x="15.8988" y="776.402" type="curve" smooth="yes"/>
      <point x="106.587" y="1194.02" type="line" smooth="yes"/>
      <point x="127.732" y="1291.4"/>
      <point x="274.383" y="1259.87"/>
      <point x="253.238" y="1162.51" type="curve" smooth="yes"/>
      <point x="162.238" y="743.51" type="line" smooth="yes"/>
      <point x="144.615" y="662.364"/>
      <point x="331.749" y="614.343"/>
      <point x="388.539" y="738.924" type="curve" smooth="yes"/>
      <point x="424.211" y="817.179"/>
      <point x="478.38" y="1027.06"/>
      <point x="480.785" y="1219.24" type="curve" smooth="yes"/>
      <point x="481.402" y="1268.53"/>
      <point x="520.925" y="1293.78"/>
      <point x="555.884" y="1293.85" type="curve" smooth="yes"/>
      <point x="590.953" y="1293.92"/>
      <point x="630.68" y="1268.6"/>
      <point x="630.781" y="1218.97" type="curve" smooth="yes"/>
      <point x="630.97" y="1127.05"/>
      <point x="589.588" y="842.049"/>
      <point x="739.129" y="847.751" type="curve" smooth="yes"/>
      <point x="829.885" y="851.212"/>
      <point x="897.151" y="862.695"/>
      <point x="930.3" y="869.532" type="curve"/>
      <point x="1031.35" y="1272.72" type="line" smooth="yes"/>
      <point x="1055.31" y="1368.33"/>
      <point x="1195.3" y="1327.98"/>
      <point x="1176.99" y="1253.46" type="curve" smooth="yes"/>
      <point x="896.139" y="109.871" type="line"/>
      <point x="1234.25" y="109" type="line" smooth="yes"/>
      <point x="1275.16" y="108.895"/>
      <point x="1309.15" y="75.1905"/>
    </contour>
    <contour>
      <point x="1269.15" y="34" type="curve" smooth="yes"/>
      <point x="1269.15" y="52.9925"/>
      <point x="1253.16" y="68.9515"/>
      <point x="1234.15" y="69" type="curve" smooth="yes"/>
      <point x="845.156" y="69.997" type="line"/>
      <point x="1138.15" y="1263" type="line" smooth="yes"/>
      <point x="1143.41" y="1284.42"/>
      <point x="1081.77" y="1309.38"/>
      <point x="1070.15" y="1263" type="curve" smooth="yes"/>
      <point x="963.094" y="835.816" type="line"/>
      <point x="889.684" y="819.201"/>
      <point x="816.126" y="810.659"/>
      <point x="740.653" y="807.781" type="curve" smooth="yes"/>
      <point x="546.529" y="800.379"/>
      <point x="591.026" y="1099.71"/>
      <point x="590.782" y="1218.89" type="curve" smooth="yes"/>
      <point x="590.734" y="1242.03"/>
      <point x="573.617" y="1253.89"/>
      <point x="555.965" y="1253.85" type="curve" smooth="yes"/>
      <point x="538.328" y="1253.82"/>
      <point x="521.072" y="1241.9"/>
      <point x="520.782" y="1218.74" type="curve" smooth="yes"/>
      <point x="518.315" y="1021.61"/>
      <point x="463.15" y="806.165"/>
      <point x="424.935" y="722.333" type="curve" smooth="yes"/>
      <point x="349.427" y="556.692"/>
      <point x="94.5584" y="620.355"/>
      <point x="123.149" y="752" type="curve" smooth="yes"/>
      <point x="214.149" y="1171" type="line" smooth="yes"/>
      <point x="224.109" y="1216.86"/>
      <point x="155.627" y="1231.37"/>
      <point x="145.675" y="1185.54" type="curve" smooth="yes"/>
      <point x="54.9876" y="767.914" type="line" smooth="yes"/>
      <point x="2.05763" y="524.167"/>
      <point x="383.507" y="462.699"/>
      <point x="488.628" y="693.294" type="curve" smooth="yes"/>
      <point x="513.232" y="747.266"/>
      <point x="530.534" y="802.718"/>
      <point x="547.744" y="859.279" type="curve"/>
      <point x="596.919" y="777.273"/>
      <point x="632.63" y="733.069"/>
      <point x="740.653" y="737.78" type="curve" smooth="yes"/>
      <point x="808.864" y="740.755"/>
      <point x="876.6" y="750.223"/>
      <point x="944.109" y="759.798" type="curve"/>
      <point x="765.198" y="34.2263" type="line"/>
      <point x="766.281" y="12.6318"/>
      <point x="783.218" y="-0.958723"/>
      <point x="801.149" y="-1" type="curve" smooth="yes"/>
      <point x="1234.15" y="-2" type="line" smooth="yes"/>
      <point x="1253.1" y="-2.0438"/>
      <point x="1269.15" y="13.9525"/>
    </contour>
    <contour>
      <point x="202" y="1173" type="curve" smooth="yes"/>
      <point x="202" y="1159.19"/>
      <point x="190.807" y="1148"/>
      <point x="177" y="1148" type="curve" smooth="yes"/>
      <point x="163.193" y="1148"/>
      <point x="152" y="1159.19"/>
      <point x="152" y="1173" type="curve" smooth="yes"/>
      <point x="152" y="1186.81"/>
      <point x="163.193" y="1198"/>
      <point x="177" y="1198" type="curve" smooth="yes"/>
      <point x="190.807" y="1198"/>
      <point x="202" y="1186.81"/>
    </contour>
  </outline>
</glyph>
<glyph name="uni1223" format="2">
  <advance width="1241"/>
  <unicode hex="1223"/>
  <outline>
    <contour>
      <point x="1178.95" y="1253.27" type="curve" smooth="yes"/>
      <point x="868.95" y="17.2693" type="line" smooth="yes"/>
      <point x="859.269" y="-21.3305"/>
      <point x="820.192" y="-46.9412"/>
      <point x="779.615" y="-38.0785" type="curve" smooth="yes"/>
      <point x="751.887" y="-32.022"/>
      <point x="714.008" y="-0.904213"/>
      <point x="723.33" y="36.6393" type="curve" smooth="yes"/>
      <point x="891.044" y="712.032" type="line"/>
      <point x="781.18" y="697.64"/>
      <point x="644.124" y="671.182"/>
      <point x="560.726" y="766.706" type="curve"/>
      <point x="550.655" y="737.185"/>
      <point x="539.148" y="707.68"/>
      <point x="525.027" y="676.702" type="curve" smooth="yes"/>
      <point x="400.107" y="402.674"/>
      <point x="-47.291" y="485.398"/>
      <point x="15.901" y="776.402" type="curve" smooth="yes"/>
      <point x="106.589" y="1194.03" type="line" smooth="yes"/>
      <point x="127.737" y="1291.42"/>
      <point x="274.387" y="1259.88"/>
      <point x="253.24" y="1162.51" type="curve" smooth="yes"/>
      <point x="162.24" y="743.511" type="line" smooth="yes"/>
      <point x="144.616" y="662.36"/>
      <point x="331.746" y="614.333"/>
      <point x="388.541" y="738.924" type="curve" smooth="yes"/>
      <point x="424.212" y="817.178"/>
      <point x="478.383" y="1027.07"/>
      <point x="480.787" y="1219.24" type="curve" smooth="yes"/>
      <point x="481.404" y="1268.53"/>
      <point x="520.929" y="1293.78"/>
      <point x="555.885" y="1293.85" type="curve" smooth="yes"/>
      <point x="590.952" y="1293.92"/>
      <point x="630.682" y="1268.61"/>
      <point x="630.784" y="1218.97" type="curve" smooth="yes"/>
      <point x="630.972" y="1127.06"/>
      <point x="589.582" y="842.048"/>
      <point x="739.131" y="847.751" type="curve" smooth="yes"/>
      <point x="829.983" y="851.216"/>
      <point x="897.321" y="862.73"/>
      <point x="930.431" y="869.564" type="curve"/>
      <point x="1033.39" y="1272.89" type="line" smooth="yes"/>
      <point x="1057.82" y="1368.57"/>
      <point x="1197.58" y="1327.56"/>
    </contour>
    <contour>
      <point x="1140.15" y="1263" type="line" smooth="yes"/>
      <point x="1145.46" y="1284.17"/>
      <point x="1084.04" y="1309.57"/>
      <point x="1072.15" y="1263" type="curve" smooth="yes"/>
      <point x="963.101" y="835.819" type="line"/>
      <point x="889.696" y="819.2"/>
      <point x="816.118" y="810.659"/>
      <point x="740.655" y="807.781" type="curve" smooth="yes"/>
      <point x="546.543" y="800.377"/>
      <point x="591.028" y="1099.72"/>
      <point x="590.784" y="1218.89" type="curve" smooth="yes"/>
      <point x="590.736" y="1242.03"/>
      <point x="573.62" y="1253.89"/>
      <point x="555.967" y="1253.85" type="curve" smooth="yes"/>
      <point x="538.33" y="1253.81"/>
      <point x="521.074" y="1241.9"/>
      <point x="520.784" y="1218.74" type="curve" smooth="yes"/>
      <point x="518.318" y="1021.64"/>
      <point x="463.149" y="806.158"/>
      <point x="424.937" y="722.333" type="curve" smooth="yes"/>
      <point x="349.433" y="556.698"/>
      <point x="94.559" y="620.347"/>
      <point x="123.152" y="752" type="curve" smooth="yes"/>
      <point x="214.152" y="1171" type="line" smooth="yes"/>
      <point x="224.113" y="1216.87"/>
      <point x="155.633" y="1231.39"/>
      <point x="145.678" y="1185.54" type="curve" smooth="yes"/>
      <point x="54.99" y="767.914" type="line" smooth="yes"/>
      <point x="2.04299" y="524.09"/>
      <point x="383.51" y="462.699"/>
      <point x="488.63" y="693.294" type="curve" smooth="yes"/>
      <point x="513.234" y="747.266"/>
      <point x="530.535" y="802.719"/>
      <point x="547.744" y="859.279" type="curve"/>
      <point x="596.92" y="777.273"/>
      <point x="632.641" y="733.069"/>
      <point x="740.656" y="737.781" type="curve" smooth="yes"/>
      <point x="808.866" y="740.756"/>
      <point x="876.602" y="750.232"/>
      <point x="944.111" y="759.804" type="curve"/>
      <point x="762.151" y="27" type="line" smooth="yes"/>
      <point x="760.934" y="22.0953"/>
      <point x="769.79" y="5.0105"/>
      <point x="788.151" y="1" type="curve" smooth="yes"/>
      <point x="807.103" y="-3.1395"/>
      <point x="825.602" y="8.86075"/>
      <point x="830.151" y="27" type="curve" smooth="yes"/>
    </contour>
    <contour>
      <point x="202" y="1173" type="curve" smooth="yes"/>
      <point x="202" y="1159.19"/>
      <point x="190.807" y="1148"/>
      <point x="177" y="1148" type="curve" smooth="yes"/>
      <point x="163.193" y="1148"/>
      <point x="152" y="1159.19"/>
      <point x="152" y="1173" type="curve" smooth="yes"/>
      <point x="152" y="1186.81"/>
      <point x="163.193" y="1198"/>
      <point x="177" y="1198" type="curve" smooth="yes"/>
      <point x="190.807" y="1198"/>
      <point x="202" y="1186.81"/>
    </contour>
  </outline>
</glyph>
<glyph name="uni1224" format="2">
  <advance width="1267"/>
  <unicode hex="1224"/>
  <outline>
    <contour>
      <point x="1207.15" y="171" type="curve" smooth="yes"/>
      <point x="1207.15" y="53.9082"/>
      <point x="1112.25" y="-41"/>
      <point x="995.153" y="-41" type="curve" smooth="yes"/>
      <point x="923.64" y="-41"/>
      <point x="859.346" y="-5.248"/>
      <point x="820.904" y="49.8402" type="curve"/>
      <point x="784.281" y="90.0612"/>
      <point x="762.794" y="167.445"/>
      <point x="783.372" y="251.015" type="curve"/>
      <point x="783.372" y="251.015"/>
      <point x="895.215" y="705.234"/>
      <point x="897.696" y="715.293" type="curve"/>
      <point x="786.574" y="697.826"/>
      <point x="645.705" y="669.371"/>
      <point x="560.726" y="766.706" type="curve"/>
      <point x="550.655" y="737.184"/>
      <point x="539.149" y="707.678"/>
      <point x="525.028" y="676.702" type="curve" smooth="yes"/>
      <point x="400.107" y="402.668"/>
      <point x="-47.3166" y="485.273"/>
      <point x="15.9027" y="776.402" type="curve" smooth="yes"/>
      <point x="106.59" y="1194.02" type="line" smooth="yes"/>
      <point x="127.743" y="1291.43"/>
      <point x="274.389" y="1259.88"/>
      <point x="253.242" y="1162.51" type="curve" smooth="yes"/>
      <point x="162.242" y="743.511" type="line" smooth="yes"/>
      <point x="144.617" y="662.36"/>
      <point x="331.75" y="614.338"/>
      <point x="388.542" y="738.924" type="curve" smooth="yes"/>
      <point x="424.214" y="817.178"/>
      <point x="478.386" y="1027.11"/>
      <point x="480.789" y="1219.24" type="curve" smooth="yes"/>
      <point x="481.405" y="1268.52"/>
      <point x="520.933" y="1293.78"/>
      <point x="555.885" y="1293.85" type="curve" smooth="yes"/>
      <point x="590.952" y="1293.92"/>
      <point x="630.684" y="1268.61"/>
      <point x="630.785" y="1218.97" type="curve" smooth="yes"/>
      <point x="630.973" y="1127.05"/>
      <point x="589.579" y="842.049"/>
      <point x="739.133" y="847.752" type="curve" smooth="yes"/>
      <point x="830.251" y="851.226"/>
      <point x="897.718" y="862.787"/>
      <point x="930.726" y="869.614" type="curve"/>
      <point x="1041.68" y="1286.11" type="line" smooth="yes"/>
      <point x="1067.14" y="1381.65"/>
      <point x="1211.9" y="1349.47"/>
      <point x="1187.97" y="1253.34" type="curve" smooth="yes"/>
      <point x="970.965" y="381.649" type="line"/>
      <point x="978.913" y="382.547"/>
      <point x="986.983" y="383"/>
      <point x="995.153" y="383" type="curve" smooth="yes"/>
      <point x="1112.23" y="383"/>
      <point x="1207.15" y="288.092"/>
    </contour>
    <contour>
      <point x="1167.15" y="171" type="curve" smooth="yes"/>
      <point x="1167.15" y="266"/>
      <point x="1090.15" y="343"/>
      <point x="995.153" y="343" type="curve" smooth="yes"/>
      <point x="966.678" y="343"/>
      <point x="943.536" y="335.216"/>
      <point x="916.297" y="327.628" type="curve"/>
      <point x="1149.15" y="1263" type="line" smooth="yes"/>
      <point x="1160.52" y="1308.68"/>
      <point x="1092.23" y="1320.45"/>
      <point x="1080.34" y="1275.81" type="curve" smooth="yes"/>
      <point x="963.11" y="835.824" type="line"/>
      <point x="889.718" y="819.187"/>
      <point x="816.101" y="810.657"/>
      <point x="740.657" y="807.78" type="curve" smooth="yes"/>
      <point x="546.534" y="800.378"/>
      <point x="591.028" y="1099.71"/>
      <point x="590.785" y="1218.89" type="curve" smooth="yes"/>
      <point x="590.738" y="1242.03"/>
      <point x="573.621" y="1253.88"/>
      <point x="555.969" y="1253.85" type="curve" smooth="yes"/>
      <point x="538.331" y="1253.81"/>
      <point x="521.075" y="1241.9"/>
      <point x="520.786" y="1218.74" type="curve" smooth="yes"/>
      <point x="518.321" y="1021.67"/>
      <point x="463.15" y="806.157"/>
      <point x="424.939" y="722.332" type="curve" smooth="yes"/>
      <point x="349.435" y="556.698"/>
      <point x="94.5624" y="620.355"/>
      <point x="123.153" y="752" type="curve" smooth="yes"/>
      <point x="214.153" y="1171" type="line" smooth="yes"/>
      <point x="224.116" y="1216.87"/>
      <point x="155.642" y="1231.41"/>
      <point x="145.679" y="1185.54" type="curve" smooth="yes"/>
      <point x="54.9916" y="767.914" type="line" smooth="yes"/>
      <point x="2.01088" y="523.933"/>
      <point x="383.511" y="462.696"/>
      <point x="488.632" y="693.294" type="curve" smooth="yes"/>
      <point x="513.236" y="747.267"/>
      <point x="530.535" y="802.719"/>
      <point x="547.744" y="859.279" type="curve"/>
      <point x="596.92" y="777.272"/>
      <point x="632.654" y="733.07"/>
      <point x="740.657" y="737.78" type="curve" smooth="yes"/>
      <point x="811.339" y="740.863"/>
      <point x="881.474" y="752.906"/>
      <point x="951.092" y="764.753" type="curve"/>
      <point x="908.143" y="590.59"/>
      <point x="822.96" y="242.09"/>
      <point x="822.96" y="242.09" type="curve"/>
      <point x="811.314" y="194.586"/>
      <point x="816.697" y="112.792"/>
      <point x="852.175" y="74.95" type="curve"/>
      <point x="853.032" y="73.7042" type="line" smooth="yes"/>
      <point x="884.179" y="28.4147"/>
      <point x="936.715" y="-1"/>
      <point x="995.153" y="-1" type="curve" smooth="yes"/>
      <point x="1090.15" y="-1"/>
      <point x="1167.15" y="76"/>
    </contour>
    <contour>
      <point x="202" y="1173" type="curve" smooth="yes"/>
      <point x="202" y="1159.19"/>
      <point x="190.807" y="1148"/>
      <point x="177" y="1148" type="curve" smooth="yes"/>
      <point x="163.193" y="1148"/>
      <point x="152" y="1159.19"/>
      <point x="152" y="1173" type="curve" smooth="yes"/>
      <point x="152" y="1186.81"/>
      <point x="163.193" y="1198"/>
      <point x="177" y="1198" type="curve" smooth="yes"/>
      <point x="190.807" y="1198"/>
      <point x="202" y="1186.81"/>
    </contour>
    <contour>
      <point x="1097.15" y="171" type="curve" smooth="yes"/>
      <point x="1097.15" y="115.019"/>
      <point x="1051.17" y="70"/>
      <point x="995.153" y="70" type="curve" smooth="yes"/>
      <point x="939.134" y="70"/>
      <point x="893.153" y="115.019"/>
      <point x="893.153" y="171" type="curve" smooth="yes"/>
      <point x="893.153" y="227.989"/>
      <point x="939.144" y="273"/>
      <point x="995.153" y="273" type="curve" smooth="yes"/>
      <point x="1051.16" y="273"/>
      <point x="1097.15" y="227.989"/>
    </contour>
    <contour>
      <point x="1057.15" y="171" type="curve" smooth="yes"/>
      <point x="1057.15" y="205.663"/>
      <point x="1029.31" y="233"/>
      <point x="995.153" y="233" type="curve" smooth="yes"/>
      <point x="960.998" y="233"/>
      <point x="933.153" y="205.663"/>
      <point x="933.153" y="171" type="curve" smooth="yes"/>
      <point x="933.153" y="137.583"/>
      <point x="960.749" y="110"/>
      <point x="995.153" y="110" type="curve" smooth="yes"/>
      <point x="1029.56" y="110"/>
      <point x="1057.15" y="137.583"/>
    </contour>
  </outline>
</glyph>
<glyph name="uni1226" format="2">
  <advance width="1211"/>
  <unicode hex="1226"/>
  <outline>
    <contour>
      <point x="1144.33" y="1267.6" type="curve" smooth="yes"/>
      <point x="1161.66" y="1124.89"/>
      <point x="1146.27" y="995.337"/>
      <point x="1076.85" y="864.142" type="curve" smooth="yes"/>
      <point x="1005.05" y="728.441"/>
      <point x="866.874" y="705.615"/>
      <point x="743.163" y="697.859" type="curve" smooth="yes"/>
      <point x="662.699" y="692.815"/>
      <point x="605.206" y="717.734"/>
      <point x="564.953" y="761.528" type="curve"/>
      <point x="489.612" y="449.71"/>
      <point x="467.592" y="378.15"/>
      <point x="376.955" y="16.755" type="curve" smooth="yes"/>
      <point x="352.782" y="-79.6315"/>
      <point x="207.301" y="-43.0905"/>
      <point x="231.461" y="53.245" type="curve" smooth="yes"/>
      <point x="288.75" y="281.676"/>
      <point x="318.581" y="394.087"/>
      <point x="351.83" y="524.763" type="curve"/>
      <point x="191.629" y="476.66"/>
      <point x="-32.1952" y="554.892"/>
      <point x="15.9058" y="776.402" type="curve" smooth="yes"/>
      <point x="106.594" y="1194.03" type="line" smooth="yes"/>
      <point x="127.746" y="1291.43"/>
      <point x="274.392" y="1259.88"/>
      <point x="253.245" y="1162.51" type="curve" smooth="yes"/>
      <point x="162.245" y="743.511" type="line" smooth="yes"/>
      <point x="144.622" y="662.364"/>
      <point x="331.752" y="614.333"/>
      <point x="388.545" y="738.924" type="curve" smooth="yes"/>
      <point x="424.217" y="817.178"/>
      <point x="478.389" y="1027.14"/>
      <point x="480.792" y="1219.24" type="curve" smooth="yes"/>
      <point x="481.409" y="1268.53"/>
      <point x="520.944" y="1293.77"/>
      <point x="555.884" y="1293.84" type="curve" smooth="yes"/>
      <point x="590.949" y="1293.92"/>
      <point x="630.688" y="1268.61"/>
      <point x="630.789" y="1218.97" type="curve" smooth="yes"/>
      <point x="630.971" y="1129.67"/>
      <point x="585.059" y="839.887"/>
      <point x="733.065" y="847.508" type="curve" smooth="yes"/>
      <point x="829.635" y="852.48"/>
      <point x="910.653" y="869.486"/>
      <point x="943.281" y="934.363" type="curve" smooth="yes"/>
      <point x="1002.06" y="1051.25"/>
      <point x="1007.69" y="1148.46"/>
      <point x="995.421" y="1249.51" type="curve" smooth="yes"/>
      <point x="983.442" y="1348.16"/>
      <point x="1132.35" y="1366.23"/>
    </contour>
    <contour>
      <point x="1104.62" y="1262.78" type="curve" smooth="yes"/>
      <point x="1099" y="1309.08"/>
      <point x="1029.51" y="1300.64"/>
      <point x="1035.13" y="1254.34" type="curve" smooth="yes"/>
      <point x="1048.11" y="1147.41"/>
      <point x="1042.13" y="1041.89"/>
      <point x="979.016" y="916.391" type="curve" smooth="yes"/>
      <point x="934.77" y="828.41"/>
      <point x="828.789" y="812.384"/>
      <point x="735.122" y="807.561" type="curve" smooth="yes"/>
      <point x="540.583" y="797.544"/>
      <point x="591.026" y="1102.1"/>
      <point x="590.789" y="1218.89" type="curve" smooth="yes"/>
      <point x="590.742" y="1242.03"/>
      <point x="573.625" y="1253.88"/>
      <point x="555.972" y="1253.84" type="curve" smooth="yes"/>
      <point x="538.333" y="1253.8"/>
      <point x="521.079" y="1241.89"/>
      <point x="520.789" y="1218.74" type="curve" smooth="yes"/>
      <point x="518.325" y="1021.71"/>
      <point x="463.158" y="806.167"/>
      <point x="424.942" y="722.333" type="curve" smooth="yes"/>
      <point x="349.434" y="556.688"/>
      <point x="94.5656" y="620.355"/>
      <point x="123.157" y="752" type="curve" smooth="yes"/>
      <point x="214.157" y="1171" type="line" smooth="yes"/>
      <point x="224.118" y="1216.87"/>
      <point x="155.645" y="1231.41"/>
      <point x="145.683" y="1185.54" type="curve" smooth="yes"/>
      <point x="54.9948" y="767.914" type="line" smooth="yes"/>
      <point x="15.0606" y="584.013"/>
      <point x="218.648" y="504.153"/>
      <point x="372.23" y="575.098" type="curve" smooth="yes"/>
      <point x="410.267" y="592.669" type="line"/>
      <point x="364.012" y="409.509"/>
      <point x="316.216" y="226.757"/>
      <point x="270.26" y="43.5145" type="curve" smooth="yes"/>
      <point x="258.918" y="-1.71001"/>
      <point x="326.813" y="-18.7468"/>
      <point x="338.157" y="26.4855" type="curve" smooth="yes"/>
      <point x="407.805" y="304.193"/>
      <point x="480.343" y="580.584"/>
      <point x="547.258" y="858.963" type="curve"/>
      <point x="596.978" y="777.947"/>
      <point x="632.098" y="730.974"/>
      <point x="740.66" y="737.78" type="curve" smooth="yes"/>
      <point x="864.122" y="745.52"/>
      <point x="980.719" y="767.986"/>
      <point x="1041.5" y="882.849" type="curve" smooth="yes"/>
      <point x="1106.38" y="1005.48"/>
      <point x="1121.17" y="1126.53"/>
    </contour>
    <contour>
      <point x="202" y="1171" type="curve" smooth="yes"/>
      <point x="202" y="1157.19"/>
      <point x="190.807" y="1146"/>
      <point x="177" y="1146" type="curve" smooth="yes"/>
      <point x="163.193" y="1146"/>
      <point x="152" y="1157.19"/>
      <point x="152" y="1171" type="curve" smooth="yes"/>
      <point x="152" y="1184.81"/>
      <point x="163.193" y="1196"/>
      <point x="177" y="1196" type="curve" smooth="yes"/>
      <point x="190.807" y="1196"/>
      <point x="202" y="1184.81"/>
    </contour>
  </outline>
</glyph>
<glyph name="uni1227" format="2">
  <advance width="1410"/>
  <unicode hex="1227"/>
  <outline>
    <contour>
      <point x="1350.45" y="232.243" type="curve" smooth="yes"/>
      <point x="1350.45" y="192.041"/>
      <point x="1316.31" y="158.043"/>
      <point x="1275.29" y="158.105" type="curve" smooth="yes"/>
      <point x="474.727" y="159.334" type="line" smooth="yes"/>
      <point x="434.358" y="159.396"/>
      <point x="399.77" y="191.712"/>
      <point x="399.77" y="232.448" type="curve" smooth="yes"/>
      <point x="399.77" y="274.209"/>
      <point x="435.548" y="305.639"/>
      <point x="474.931" y="305.562" type="curve" smooth="yes"/>
      <point x="785.408" y="304.947" type="line"/>
      <point x="890.675" y="712.089" type="line"/>
      <point x="845.296" y="706.352"/>
      <point x="794.981" y="698.497"/>
      <point x="745.672" y="697.992" type="curve" smooth="yes"/>
      <point x="676.612" y="697.285"/>
      <point x="609.526" y="710.995"/>
      <point x="560.743" y="765.133" type="curve"/>
      <point x="550.667" y="736.58"/>
      <point x="539.047" y="708.043"/>
      <point x="524.903" y="678.093" type="curve" smooth="yes"/>
      <point x="399.735" y="413.054"/>
      <point x="-47.4705" y="493.316"/>
      <point x="15.9745" y="775.168" type="curve" smooth="yes"/>
      <point x="106.701" y="1178.21" type="line" smooth="yes"/>
      <point x="128.028" y="1272.96"/>
      <point x="274.421" y="1242.19"/>
      <point x="253.133" y="1147.49" type="curve" smooth="yes"/>
      <point x="162.202" y="743.014" type="line" smooth="yes"/>
      <point x="144.857" y="665.861"/>
      <point x="332.032" y="619.307"/>
      <point x="388.711" y="739.328" type="curve" smooth="yes"/>
      <point x="424.305" y="814.701"/>
      <point x="478.264" y="1017.04"/>
      <point x="480.665" y="1202.38" type="curve" smooth="yes"/>
      <point x="481.297" y="1251.15"/>
      <point x="521.912" y="1275.02"/>
      <point x="556.032" y="1275.08" type="curve" smooth="yes"/>
      <point x="590.381" y="1275.15"/>
      <point x="630.681" y="1251.17"/>
      <point x="630.784" y="1202.18" type="curve" smooth="yes"/>
      <point x="630.978" y="1110.39"/>
      <point x="589.709" y="839.095"/>
      <point x="739.123" y="844.595" type="curve" smooth="yes"/>
      <point x="830.008" y="847.941"/>
      <point x="897.486" y="858.89"/>
      <point x="930.611" y="865.485" type="curve"/>
      <point x="1033.63" y="1254.6" type="line" smooth="yes"/>
      <point x="1058.3" y="1347.81"/>
      <point x="1197.82" y="1307.49"/>
      <point x="1179.03" y="1234.94" type="curve" smooth="yes"/>
      <point x="938.189" y="304.743" type="line"/>
      <point x="1275.49" y="304.538" type="line" smooth="yes"/>
      <point x="1314.33" y="304.514"/>
      <point x="1350.45" y="274.435"/>
    </contour>
    <contour>
      <point x="1310.31" y="232.243" type="curve" smooth="yes"/>
      <point x="1310.31" y="249.55"/>
      <point x="1295.16" y="264.387"/>
      <point x="1275.49" y="264.397" type="curve" smooth="yes"/>
      <point x="886.579" y="264.601" type="line"/>
      <point x="1140.12" y="1244.77" type="line" smooth="yes"/>
      <point x="1145.07" y="1263.92"/>
      <point x="1083.88" y="1288.82"/>
      <point x="1072.13" y="1244.36" type="curve" smooth="yes"/>
      <point x="962.97" y="831.488" type="line"/>
      <point x="889.567" y="815.446"/>
      <point x="816.077" y="807.227"/>
      <point x="740.762" y="804.454" type="curve" smooth="yes"/>
      <point x="547.271" y="797.331"/>
      <point x="590.894" y="1083.45"/>
      <point x="590.643" y="1202.18" type="curve" smooth="yes"/>
      <point x="590.599" y="1223.43"/>
      <point x="574.399" y="1234.98"/>
      <point x="556.032" y="1234.94" type="curve" smooth="yes"/>
      <point x="537.564" y="1234.91"/>
      <point x="521.081" y="1223.16"/>
      <point x="520.807" y="1201.97" type="curve" smooth="yes"/>
      <point x="518.338" y="1011.5"/>
      <point x="463.041" y="803.197"/>
      <point x="424.755" y="722.125" type="curve" smooth="yes"/>
      <point x="349.021" y="561.752"/>
      <point x="94.4925" y="623.52"/>
      <point x="123.29" y="751.616" type="curve" smooth="yes"/>
      <point x="214.221" y="1156.1" type="line" smooth="yes"/>
      <point x="223.949" y="1199.37"/>
      <point x="155.36" y="1212.91"/>
      <point x="145.613" y="1169.61" type="curve" smooth="yes"/>
      <point x="54.8866" y="766.566" type="line" smooth="yes"/>
      <point x="2.11655" y="532.138"/>
      <point x="383.947" y="473.151"/>
      <point x="488.858" y="695.296" type="curve" smooth="yes"/>
      <point x="513.387" y="747.237"/>
      <point x="530.631" y="800.65"/>
      <point x="547.84" y="855.245" type="curve"/>
      <point x="597.997" y="774.506"/>
      <point x="634.238" y="734.023"/>
      <point x="740.762" y="738.509" type="curve" smooth="yes"/>
      <point x="808.986" y="741.381"/>
      <point x="876.758" y="750.355"/>
      <point x="944.333" y="759.603" type="curve"/>
      <point x="816.538" y="264.806" type="line"/>
      <point x="474.931" y="265.421" type="line" smooth="yes"/>
      <point x="455.609" y="265.455"/>
      <point x="439.911" y="250.081"/>
      <point x="439.911" y="232.448" type="curve" smooth="yes"/>
      <point x="439.911" y="215.14"/>
      <point x="455.044" y="199.505"/>
      <point x="474.727" y="199.475" type="curve" smooth="yes"/>
      <point x="1275.29" y="198.246" type="line" smooth="yes"/>
      <point x="1294.53" y="198.217"/>
      <point x="1310.31" y="214.502"/>
    </contour>
    <contour>
      <point x="203.939" y="1153.2" type="curve" smooth="yes"/>
      <point x="203.939" y="1139.4"/>
      <point x="192.746" y="1128.2"/>
      <point x="178.939" y="1128.2" type="curve" smooth="yes"/>
      <point x="165.132" y="1128.2"/>
      <point x="153.939" y="1139.4"/>
      <point x="153.939" y="1153.2" type="curve" smooth="yes"/>
      <point x="153.939" y="1167.01"/>
      <point x="165.132" y="1178.2"/>
      <point x="178.939" y="1178.2" type="curve" smooth="yes"/>
      <point x="192.746" y="1178.2"/>
      <point x="203.939" y="1167.01"/>
    </contour>
  </outline>
</glyph>
<glyph name="uni1229" format="2">
  <advance width="890"/>
  <unicode hex="1229"/>
  <outline>
    <contour>
      <point x="829.77" y="476" type="curve" smooth="yes"/>
      <point x="829.77" y="439.735"/>
      <point x="804.634" y="401"/>
      <point x="754.773" y="401" type="curve" smooth="yes"/>
      <point x="488.014" y="400.999" type="line"/>
      <point x="481.101" y="34.2465" type="line" smooth="yes"/>
      <point x="480.352" y="-5.50246"/>
      <point x="447.919" y="-40"/>
      <point x="406.108" y="-40" type="curve" smooth="yes"/>
      <point x="363.591" y="-40"/>
      <point x="329.793" y="-12.2755"/>
      <point x="330.712" y="33.994" type="curve"/>
      <point x="330.712" y="33.994"/>
      <point x="335.804" y="284.417"/>
      <point x="338.002" y="400.999" type="curve"/>
      <point x="301.774" y="401" type="line" smooth="yes"/>
      <point x="68.4831" y="401.008"/>
      <point x="1.73383" y="535.965"/>
      <point x="10.8456" y="746.981" type="curve" smooth="yes"/>
      <point x="24.7023" y="1067.89"/>
      <point x="461.108" y="1105.53"/>
      <point x="461.108" y="1333" type="curve" smooth="yes"/>
      <point x="461.108" y="1382.86"/>
      <point x="499.841" y="1408"/>
      <point x="536.108" y="1408" type="curve" smooth="yes"/>
      <point x="572.376" y="1408"/>
      <point x="611.108" y="1382.86"/>
      <point x="611.108" y="1333" type="curve" smooth="yes"/>
      <point x="611.108" y="1010.23"/>
      <point x="172.053" y="973.599"/>
      <point x="160.718" y="740.766" type="curve" smooth="yes"/>
      <point x="153.659" y="595.763"/>
      <point x="168.275" y="551"/>
      <point x="301.773" y="551" type="curve" smooth="yes"/>
      <point x="754.773" y="551" type="line" smooth="yes"/>
      <point x="804.634" y="551"/>
      <point x="829.77" y="512.264"/>
    </contour>
    <contour>
      <point x="789.77" y="476" type="curve" smooth="yes"/>
      <point x="789.77" y="494.735"/>
      <point x="778.241" y="511"/>
      <point x="754.773" y="511" type="curve" smooth="yes"/>
      <point x="301.773" y="511" type="line" smooth="yes"/>
      <point x="132.578" y="511"/>
      <point x="113.341" y="590.21"/>
      <point x="120.765" y="742.711" type="curve" smooth="yes"/>
      <point x="133.529" y="1004.9"/>
      <point x="571.108" y="1034.36"/>
      <point x="571.108" y="1333" type="curve" smooth="yes"/>
      <point x="571.108" y="1356.47"/>
      <point x="554.841" y="1368"/>
      <point x="536.108" y="1368" type="curve" smooth="yes"/>
      <point x="517.376" y="1368"/>
      <point x="501.108" y="1356.48"/>
      <point x="501.108" y="1333" type="curve" smooth="yes"/>
      <point x="501.108" y="1074.25"/>
      <point x="63.6993" y="1043.79"/>
      <point x="50.8085" y="745.255" type="curve" smooth="yes"/>
      <point x="42.2513" y="547.077"/>
      <point x="100.075" y="440.987"/>
      <point x="301.772" y="441" type="curve" smooth="yes"/>
      <point x="378.764" y="441.005" type="line"/>
      <point x="371.108" y="35" type="line" smooth="yes"/>
      <point x="370.751" y="16.0572"/>
      <point x="387.053" y="0"/>
      <point x="406.108" y="0" type="curve" smooth="yes"/>
      <point x="425.057" y="0"/>
      <point x="440.749" y="15.951"/>
      <point x="441.108" y="35" type="curve" smooth="yes"/>
      <point x="448.759" y="441.004" type="line"/>
      <point x="754.773" y="441" type="line" smooth="yes"/>
      <point x="778.242" y="441"/>
      <point x="789.77" y="457.265"/>
    </contour>
    <contour>
      <point x="557" y="1331" type="curve" smooth="yes"/>
      <point x="557" y="1317.19"/>
      <point x="545.807" y="1306"/>
      <point x="532" y="1306" type="curve" smooth="yes"/>
      <point x="518.193" y="1306"/>
      <point x="507" y="1317.19"/>
      <point x="507" y="1331" type="curve" smooth="yes"/>
      <point x="507" y="1344.81"/>
      <point x="518.193" y="1356"/>
      <point x="532" y="1356" type="curve" smooth="yes"/>
      <point x="545.807" y="1356"/>
      <point x="557" y="1344.81"/>
    </contour>
  </outline>
</glyph>
<glyph name="uni122A" format="2">
  <advance width="822"/>
  <unicode hex="122A"/>
  <outline>
    <contour>
      <point x="762.326" y="1183" type="curve" smooth="yes"/>
      <point x="762.326" y="969.826"/>
      <point x="488.774" y="739.749"/>
      <point x="345.349" y="589.326" type="curve" smooth="yes"/>
      <point x="278.32" y="519.027"/>
      <point x="165.042" y="397.584"/>
      <point x="160.28" y="299.766" type="curve" smooth="yes"/>
      <point x="153.705" y="164.669"/>
      <point x="238.636" y="72.6285"/>
      <point x="366.519" y="108.512" type="curve" smooth="yes"/>
      <point x="507.605" y="148.101"/>
      <point x="605.075" y="263.611"/>
      <point x="605.286" y="338.096" type="curve" smooth="yes"/>
      <point x="605.324" y="351.623"/>
      <point x="600.975" y="365.191"/>
      <point x="597.341" y="373.411" type="curve" smooth="yes"/>
      <point x="550.83" y="478.619"/>
      <point x="754.522" y="555.075"/>
      <point x="755.286" y="338.123" type="curve" smooth="yes"/>
      <point x="755.783" y="196.974"/>
      <point x="641.78" y="31.3517"/>
      <point x="387.923" y="-38.5683" type="curve" smooth="yes"/>
      <point x="158.686" y="-101.707"/>
      <point x="1.11097" y="90.6492"/>
      <point x="10.4082" y="305.981" type="curve" smooth="yes"/>
      <point x="24.1507" y="624.263"/>
      <point x="612.326" y="948.716"/>
      <point x="612.326" y="1183" type="curve" smooth="yes"/>
      <point x="612.326" y="1232.86"/>
      <point x="651.059" y="1258"/>
      <point x="687.326" y="1258" type="curve" smooth="yes"/>
      <point x="723.592" y="1258"/>
      <point x="762.326" y="1232.86"/>
    </contour>
    <contour>
      <point x="722.326" y="1183" type="curve" smooth="yes"/>
      <point x="722.326" y="1206.47"/>
      <point x="706.06" y="1218"/>
      <point x="687.326" y="1218" type="curve" smooth="yes"/>
      <point x="668.593" y="1218"/>
      <point x="652.326" y="1206.47"/>
      <point x="652.326" y="1183" type="curve" smooth="yes"/>
      <point x="652.326" y="1040.78"/>
      <point x="453.763" y="856.963"/>
      <point x="356.179" y="758.584" type="curve" smooth="yes"/>
      <point x="248.809" y="650.34"/>
      <point x="57.4222" y="467.564"/>
      <point x="50.3712" y="304.255" type="curve" smooth="yes"/>
      <point x="41.7965" y="105.65"/>
      <point x="183.541" y="-53.3727"/>
      <point x="377.301" y="-0.00524235" type="curve" smooth="yes"/>
      <point x="618.915" y="66.5425"/>
      <point x="715.702" y="219.727"/>
      <point x="715.286" y="337.981" type="curve" smooth="yes"/>
      <point x="715.184" y="366.873"/>
      <point x="704.068" y="455.489"/>
      <point x="653.35" y="435.108" type="curve" smooth="yes"/>
      <point x="612.353" y="418.633"/>
      <point x="645.371" y="367.882"/>
      <point x="645.286" y="337.981" type="curve" smooth="yes"/>
      <point x="645.002" y="238.033"/>
      <point x="527.038" y="112.008"/>
      <point x="377.326" y="70" type="curve" smooth="yes"/>
      <point x="214.288" y="24.2515"/>
      <point x="112.906" y="149.228"/>
      <point x="120.328" y="301.711" type="curve" smooth="yes"/>
      <point x="125.747" y="413.041"/>
      <point x="241.062" y="537.916"/>
      <point x="316.399" y="616.929" type="curve" smooth="yes"/>
      <point x="450.92" y="758.013"/>
      <point x="722.326" y="988.166"/>
    </contour>
    <contour>
      <point x="714" y="1177" type="curve" smooth="yes"/>
      <point x="714" y="1163.19"/>
      <point x="702.807" y="1152"/>
      <point x="689" y="1152" type="curve" smooth="yes"/>
      <point x="675.193" y="1152"/>
      <point x="664" y="1163.19"/>
      <point x="664" y="1177" type="curve" smooth="yes"/>
      <point x="664" y="1190.81"/>
      <point x="675.193" y="1202"/>
      <point x="689" y="1202" type="curve" smooth="yes"/>
      <point x="702.807" y="1202"/>
      <point x="714" y="1190.81"/>
    </contour>
  </outline>
</glyph>
<glyph name="uni122C" format="2">
  <advance width="826"/>
  <unicode hex="122C"/>
  <outline>
    <contour>
      <point x="765.657" y="172" type="curve" smooth="yes"/>
      <point x="765.657" y="54.0955"/>
      <point x="670.184" y="-40"/>
      <point x="553" y="-40" type="curve" smooth="yes"/>
      <point x="377.343" y="-40" type="line" smooth="yes"/>
      <point x="159.198" y="-40"/>
      <point x="0.629242" y="79.1298"/>
      <point x="10.425" y="305.981" type="curve" smooth="yes"/>
      <point x="24.1722" y="624.341"/>
      <point x="612.343" y="948.702"/>
      <point x="612.343" y="1183" type="curve" smooth="yes"/>
      <point x="612.343" y="1232.86"/>
      <point x="651.078" y="1258"/>
      <point x="687.343" y="1258" type="curve" smooth="yes"/>
      <point x="723.609" y="1258"/>
      <point x="762.343" y="1232.86"/>
      <point x="762.343" y="1183" type="curve" smooth="yes"/>
      <point x="762.343" y="863.275"/>
      <point x="171.963" y="539.379"/>
      <point x="160.297" y="299.766" type="curve" smooth="yes"/>
      <point x="154.565" y="182.021"/>
      <point x="218.034" y="113.638"/>
      <point x="354.534" y="110.018" type="curve"/>
      <point x="346.904" y="128.744"/>
      <point x="341.657" y="149.606"/>
      <point x="341.657" y="172" type="curve" smooth="yes"/>
      <point x="341.657" y="289.093"/>
      <point x="436.566" y="384"/>
      <point x="553.657" y="384" type="curve" smooth="yes"/>
      <point x="670.748" y="384"/>
      <point x="765.657" y="289.096"/>
    </contour>
    <contour>
      <point x="725.657" y="172" type="curve" smooth="yes"/>
      <point x="725.657" y="267.004"/>
      <point x="648.661" y="344"/>
      <point x="553.657" y="344" type="curve" smooth="yes"/>
      <point x="458.661" y="344"/>
      <point x="381.657" y="266.992"/>
      <point x="381.657" y="172" type="curve" smooth="yes"/>
      <point x="381.657" y="133.91"/>
      <point x="402.73" y="102.38"/>
      <point x="421.105" y="70.9632" type="curve"/>
      <point x="78.2105" y="63.4155"/>
      <point x="45.5197" y="289.07"/>
      <point x="219.779" y="507.845" type="curve" smooth="yes"/>
      <point x="369.184" y="695.417"/>
      <point x="722.343" y="962.269"/>
      <point x="722.343" y="1183" type="curve" smooth="yes"/>
      <point x="722.343" y="1206.47"/>
      <point x="706.078" y="1218"/>
      <point x="687.343" y="1218" type="curve" smooth="yes"/>
      <point x="668.609" y="1218"/>
      <point x="652.343" y="1206.47"/>
      <point x="652.343" y="1183" type="curve" smooth="yes"/>
      <point x="652.343" y="1040.78"/>
      <point x="453.781" y="856.964"/>
      <point x="356.197" y="758.585" type="curve" smooth="yes"/>
      <point x="248.809" y="650.323"/>
      <point x="57.4402" y="467.581"/>
      <point x="50.388" y="304.256" type="curve" smooth="yes"/>
      <point x="41.8385" y="106.258"/>
      <point x="175.502" y="0"/>
      <point x="377.343" y="0" type="curve" smooth="yes"/>
      <point x="553" y="0" type="line" smooth="yes"/>
      <point x="648.337" y="0"/>
      <point x="725.657" y="76.4283"/>
    </contour>
    <contour>
      <point x="712" y="1182" type="curve" smooth="yes"/>
      <point x="712" y="1168.19"/>
      <point x="700.807" y="1157"/>
      <point x="687" y="1157" type="curve" smooth="yes"/>
      <point x="673.193" y="1157"/>
      <point x="662" y="1168.19"/>
      <point x="662" y="1182" type="curve" smooth="yes"/>
      <point x="662" y="1195.81"/>
      <point x="673.193" y="1207"/>
      <point x="687" y="1207" type="curve" smooth="yes"/>
      <point x="700.807" y="1207"/>
      <point x="712" y="1195.81"/>
    </contour>
    <contour>
      <point x="655.657" y="172" type="curve" smooth="yes"/>
      <point x="655.657" y="116"/>
      <point x="609.657" y="70"/>
      <point x="553.657" y="70" type="curve" smooth="yes"/>
      <point x="497.657" y="70"/>
      <point x="451.657" y="116"/>
      <point x="451.657" y="172" type="curve" smooth="yes"/>
      <point x="451.657" y="228"/>
      <point x="497.657" y="274"/>
      <point x="553.657" y="274" type="curve" smooth="yes"/>
      <point x="609.657" y="274"/>
      <point x="655.657" y="228"/>
    </contour>
    <contour>
      <point x="615.657" y="172" type="curve" smooth="yes"/>
      <point x="615.657" y="205.909"/>
      <point x="587.565" y="234"/>
      <point x="553.657" y="234" type="curve" smooth="yes"/>
      <point x="519.748" y="234"/>
      <point x="491.657" y="205.909"/>
      <point x="491.657" y="172" type="curve" smooth="yes"/>
      <point x="491.657" y="138.091"/>
      <point x="519.748" y="110"/>
      <point x="553.657" y="110" type="curve" smooth="yes"/>
      <point x="587.565" y="110"/>
      <point x="615.657" y="138.091"/>
    </contour>
  </outline>
</glyph>
<glyph name="uni122E" format="2">
  <advance width="965"/>
  <unicode hex="122E"/>
  <outline>
    <contour>
      <point x="905.34" y="35" type="curve" smooth="yes"/>
      <point x="905.34" y="-1.265"/>
      <point x="880.204" y="-40"/>
      <point x="830.343" y="-40" type="curve" smooth="yes"/>
      <point x="377.343" y="-40" type="line" smooth="yes"/>
      <point x="159.195" y="-40"/>
      <point x="0.630779" y="79.1568"/>
      <point x="10.425" y="305.981" type="curve" smooth="yes"/>
      <point x="22.8508" y="593.748"/>
      <point x="114.594" y="1142.44"/>
      <point x="122.077" y="1186.82" type="curve"/>
      <point x="124.432" y="1244.43"/>
      <point x="177.639" y="1263.97"/>
      <point x="214.401" y="1256.03" type="curve"/>
      <point x="629.881" y="1258" type="line" smooth="yes"/>
      <point x="746.56" y="1258.55"/>
      <point x="830.071" y="1152.51"/>
      <point x="830.071" y="1044" type="curve" smooth="yes"/>
      <point x="830.071" y="926.908"/>
      <point x="735.162" y="831.998"/>
      <point x="618.071" y="831.998" type="curve" smooth="yes"/>
      <point x="500.979" y="831.998"/>
      <point x="406.071" y="926.916"/>
      <point x="406.071" y="1044" type="curve" smooth="yes"/>
      <point x="406.071" y="1066.08"/>
      <point x="409.458" y="1087.41"/>
      <point x="415.76" y="1107.48" type="curve"/>
      <point x="263.225" y="1106.26" type="line"/>
      <point x="242.868" y="978.149"/>
      <point x="170.713" y="513.706"/>
      <point x="160.297" y="299.766" type="curve" smooth="yes"/>
      <point x="154.298" y="176.543"/>
      <point x="223.996" y="110"/>
      <point x="377.343" y="110" type="curve" smooth="yes"/>
      <point x="830.343" y="110" type="line" smooth="yes"/>
      <point x="880.204" y="110"/>
      <point x="905.34" y="71.265"/>
    </contour>
    <contour>
      <point x="865.34" y="35" type="curve" smooth="yes"/>
      <point x="865.34" y="53.735"/>
      <point x="853.811" y="70"/>
      <point x="830.343" y="70" type="curve" smooth="yes"/>
      <point x="377.343" y="70" type="line" smooth="yes"/>
      <point x="207.82" y="70"/>
      <point x="112.935" y="149.503"/>
      <point x="120.345" y="301.711" type="curve" smooth="yes"/>
      <point x="130.429" y="508.832"/>
      <point x="194.129" y="927.844"/>
      <point x="229.063" y="1146" type="curve"/>
      <point x="477.331" y="1147.96" type="line"/>
      <point x="459.623" y="1111.48"/>
      <point x="446.071" y="1086.38"/>
      <point x="446.071" y="1044" type="curve" smooth="yes"/>
      <point x="446.071" y="949.003"/>
      <point x="523.076" y="871.998"/>
      <point x="618.071" y="871.998" type="curve" smooth="yes"/>
      <point x="713.074" y="871.998"/>
      <point x="790.071" y="949.005"/>
      <point x="790.071" y="1044" type="curve" smooth="yes"/>
      <point x="790.071" y="1135.08"/>
      <point x="720.128" y="1218.42"/>
      <point x="630.071" y="1218" type="curve" smooth="yes"/>
      <point x="209.614" y="1216.01" type="line"/>
      <point x="185.288" y="1222.33"/>
      <point x="162.681" y="1210.88"/>
      <point x="161.974" y="1182.88" type="curve"/>
      <point x="120.834" y="939.468"/>
      <point x="59.9213" y="525.034"/>
      <point x="50.3881" y="304.256" type="curve" smooth="yes"/>
      <point x="41.8391" y="106.274"/>
      <point x="175.5" y="0"/>
      <point x="377.343" y="0" type="curve" smooth="yes"/>
      <point x="830.343" y="0" type="line" smooth="yes"/>
      <point x="853.811" y="0"/>
      <point x="865.34" y="16.265"/>
    </contour>
    <contour>
      <point x="720.071" y="1044" type="curve" smooth="yes"/>
      <point x="720.071" y="988.017"/>
      <point x="674.09" y="942.998"/>
      <point x="618.071" y="942.998" type="curve" smooth="yes"/>
      <point x="562.051" y="942.998"/>
      <point x="516.071" y="988.017"/>
      <point x="516.071" y="1044" type="curve" smooth="yes"/>
      <point x="516.071" y="1100.99"/>
      <point x="562.061" y="1146"/>
      <point x="618.071" y="1146" type="curve" smooth="yes"/>
      <point x="674.08" y="1146"/>
      <point x="720.071" y="1100.99"/>
    </contour>
    <contour>
      <point x="225" y="1179" type="curve" smooth="yes"/>
      <point x="225" y="1165.19"/>
      <point x="213.807" y="1154"/>
      <point x="200" y="1154" type="curve" smooth="yes"/>
      <point x="186.193" y="1154"/>
      <point x="175" y="1165.19"/>
      <point x="175" y="1179" type="curve" smooth="yes"/>
      <point x="175" y="1192.81"/>
      <point x="186.193" y="1204"/>
      <point x="200" y="1204" type="curve" smooth="yes"/>
      <point x="213.807" y="1204"/>
      <point x="225" y="1192.81"/>
    </contour>
    <contour>
      <point x="680.071" y="1044" type="curve" smooth="yes"/>
      <point x="680.071" y="1078.66"/>
      <point x="652.226" y="1106"/>
      <point x="618.071" y="1106" type="curve" smooth="yes"/>
      <point x="583.916" y="1106"/>
      <point x="556.071" y="1078.66"/>
      <point x="556.071" y="1044" type="curve" smooth="yes"/>
      <point x="556.071" y="1010.58"/>
      <point x="583.666" y="982.998"/>
      <point x="618.071" y="982.998" type="curve" smooth="yes"/>
      <point x="652.475" y="982.998"/>
      <point x="680.071" y="1010.58"/>
    </contour>
  </outline>
</glyph>
<glyph name="uni122F" format="2">
  <advance width="1257"/>
  <unicode hex="122F"/>
  <outline>
    <contour>
      <point x="1197.06" y="1179.24" type="curve" smooth="yes"/>
      <point x="1197.06" y="1143.2"/>
      <point x="1171.42" y="1105.72"/>
      <point x="1122.1" y="1105.72" type="curve" smooth="yes"/>
      <point x="755.712" y="1105.72" type="line"/>
      <point x="692.115" y="821.424"/>
      <point x="171.115" y="523.574"/>
      <point x="160.359" y="309.453" type="curve" smooth="yes"/>
      <point x="153.876" y="180.411"/>
      <point x="236.944" y="91.4615"/>
      <point x="367.207" y="125.133" type="curve" smooth="yes"/>
      <point x="554.189" y="173.466" type="line"/>
      <point x="584.499" y="416.768" type="line" smooth="yes"/>
      <point x="589.504" y="456.94"/>
      <point x="626.846" y="482.631"/>
      <point x="663.962" y="480.256" type="curve"/>
      <point x="768.705" y="489.442"/>
      <point x="986.034" y="512.354"/>
      <point x="986.034" y="512.354" type="curve"/>
      <point x="1043.25" y="518.057"/>
      <point x="1081.96" y="488.275"/>
      <point x="1081.96" y="436.839" type="curve" smooth="yes"/>
      <point x="1081.96" y="397.192"/>
      <point x="1053.89" y="365.761"/>
      <point x="1007.98" y="361.768" type="curve"/>
      <point x="1007.98" y="361.768"/>
      <point x="807.922" y="344.917"/>
      <point x="724.378" y="337.101" type="curve"/>
      <point x="703.902" y="196.682"/>
      <point x="689.64" y="79.3128"/>
      <point x="689.64" y="79.3128" type="curve"/>
      <point x="687.184" y="61.0861"/>
      <point x="671.518" y="52.6556"/>
      <point x="653.671" y="48.1568" type="curve"/>
      <point x="653.671" y="48.1568"/>
      <point x="539.7" y="18.8406"/>
      <point x="387.072" y="-19.0464" type="curve" smooth="yes"/>
      <point x="158.379" y="-75.8152"/>
      <point x="0.87154" y="105.348"/>
      <point x="10.24" y="315.597" type="curve" smooth="yes"/>
      <point x="20.459" y="544.932"/>
      <point x="359.856" y="790.326"/>
      <point x="515.687" y="975.872" type="curve" smooth="yes"/>
      <point x="555.658" y="1023.47"/>
      <point x="584.571" y="1066.58"/>
      <point x="599.859" y="1105.72" type="curve"/>
      <point x="283.443" y="1105.72" type="line" smooth="yes"/>
      <point x="234.131" y="1105.72"/>
      <point x="208.487" y="1143.2"/>
      <point x="208.487" y="1179.24" type="curve" smooth="yes"/>
      <point x="208.487" y="1215.27"/>
      <point x="234.131" y="1252.56"/>
      <point x="283.443" y="1252.56" type="curve" smooth="yes"/>
      <point x="1122.1" y="1252.56" type="line" smooth="yes"/>
      <point x="1171.41" y="1252.56"/>
      <point x="1197.06" y="1215.27"/>
    </contour>
    <contour>
      <point x="1157.12" y="1179.03" type="curve" smooth="yes"/>
      <point x="1157.12" y="1196.35"/>
      <point x="1146.1" y="1212.42"/>
      <point x="1122.1" y="1212.42" type="curve" smooth="yes"/>
      <point x="283.443" y="1212.42" type="line" smooth="yes"/>
      <point x="259.447" y="1212.42"/>
      <point x="248.422" y="1196.55"/>
      <point x="248.422" y="1179.24" type="curve" smooth="yes"/>
      <point x="248.422" y="1161.92"/>
      <point x="259.447" y="1145.86"/>
      <point x="283.443" y="1145.86" type="curve" smooth="yes"/>
      <point x="652.902" y="1145.86" type="line"/>
      <point x="612.613" y="983.466"/>
      <point x="460.058" y="855.262"/>
      <point x="344.064" y="741.785" type="curve" smooth="yes"/>
      <point x="198.984" y="599.855"/>
      <point x="56.6277" y="454.156"/>
      <point x="50.3807" y="313.958" type="curve" smooth="yes"/>
      <point x="41.8797" y="123.175"/>
      <point x="181.289" y="-28.7763"/>
      <point x="377.241" y="19.8654" type="curve" smooth="yes"/>
      <point x="637.952" y="84.5824" type="line" smooth="yes"/>
      <point x="644.794" y="86.2809"/>
      <point x="648.327" y="93.8692"/>
      <point x="649.421" y="101.376" type="curve" smooth="yes"/>
      <point x="689.152" y="373.965" type="line"/>
      <point x="1007" y="403.661" type="line" smooth="yes"/>
      <point x="1027.76" y="405.6"/>
      <point x="1041.82" y="419.622"/>
      <point x="1041.82" y="436.838" type="curve" smooth="yes"/>
      <point x="1041.82" y="458.035"/>
      <point x="1022.62" y="477.514"/>
      <point x="992.311" y="474.351" type="curve"/>
      <point x="992.311" y="474.351"/>
      <point x="700.758" y="443.324"/>
      <point x="664.166" y="440.115" type="curve"/>
      <point x="642.35" y="442.081"/>
      <point x="620.438" y="427.267"/>
      <point x="617.507" y="399.152" type="curve"/>
      <point x="617.507" y="399.152"/>
      <point x="596.708" y="190.264"/>
      <point x="590.643" y="141.517" type="curve"/>
      <point x="377.037" y="86.2207" type="line" smooth="yes"/>
      <point x="214.261" y="44.0832"/>
      <point x="112.737" y="162.577"/>
      <point x="120.218" y="311.501" type="curve" smooth="yes"/>
      <point x="127.069" y="447.879"/>
      <point x="319.952" y="621.775"/>
      <point x="416.154" y="715.776" type="curve" smooth="yes"/>
      <point x="534.043" y="830.968"/>
      <point x="694.321" y="975.039"/>
      <point x="722.125" y="1145.86" type="curve"/>
      <point x="1122.1" y="1145.86" type="line" smooth="yes"/>
      <point x="1146.1" y="1145.86"/>
      <point x="1157.12" y="1161.72"/>
    </contour>
    <contour>
      <point x="714.417" y="1176.13" type="curve" smooth="yes"/>
      <point x="714.417" y="1162.32"/>
      <point x="703.224" y="1151.13"/>
      <point x="689.417" y="1151.13" type="curve" smooth="yes"/>
      <point x="675.61" y="1151.13"/>
      <point x="664.417" y="1162.32"/>
      <point x="664.417" y="1176.13" type="curve" smooth="yes"/>
      <point x="664.417" y="1189.93"/>
      <point x="675.61" y="1201.13"/>
      <point x="689.417" y="1201.13" type="curve" smooth="yes"/>
      <point x="703.224" y="1201.13"/>
      <point x="714.417" y="1189.93"/>
    </contour>
  </outline>
</glyph>
<glyph name="uni1232" format="2">
  <advance width="1355"/>
  <unicode hex="1232"/>
  <outline>
    <contour>
      <point x="1295" y="35" type="curve" smooth="yes"/>
      <point x="1295" y="-5.29825"/>
      <point x="1262.87" y="-40"/>
      <point x="1220" y="-40" type="curve" smooth="yes"/>
      <point x="783" y="-40" type="line" smooth="yes"/>
      <point x="742.079" y="-40"/>
      <point x="707.822" y="-6.2225"/>
      <point x="708" y="35.1725" type="curve" smooth="yes"/>
      <point x="712" y="962.173" type="line" smooth="yes"/>
      <point x="712.172" y="1002.14"/>
      <point x="626.92" y="1090"/>
      <point x="560" y="1090" type="curve" smooth="yes"/>
      <point x="403" y="1090" type="line" smooth="yes"/>
      <point x="322.992" y="1090"/>
      <point x="160" y="946.912"/>
      <point x="160" y="795" type="curve" smooth="yes"/>
      <point x="160" y="35" type="line" smooth="yes"/>
      <point x="160" y="-66.856"/>
      <point x="10" y="-60.568"/>
      <point x="10" y="35" type="curve" smooth="yes"/>
      <point x="10" y="795" type="line" smooth="yes"/>
      <point x="10" y="1018.01"/>
      <point x="210.281" y="1205.39"/>
      <point x="360.989" y="1235.7" type="curve"/>
      <point x="361" y="1369" type="line" smooth="yes"/>
      <point x="361.003" y="1408.49"/>
      <point x="392.334" y="1444"/>
      <point x="435" y="1444" type="curve" smooth="yes"/>
      <point x="477.402" y="1444"/>
      <point x="511" y="1409.78"/>
      <point x="511" y="1369" type="curve" smooth="yes"/>
      <point x="511" y="1240.01" type="line"/>
      <point x="560" y="1240" type="line" smooth="yes"/>
      <point x="693.616" y="1239.98"/>
      <point x="861.998" y="1100.3"/>
      <point x="862" y="962" type="curve" smooth="yes"/>
      <point x="862.012" y="110.002" type="line"/>
      <point x="1220" y="110" type="line" smooth="yes"/>
      <point x="1260.3" y="110"/>
      <point x="1295" y="77.8747"/>
    </contour>
    <contour>
      <point x="1255" y="35" type="curve" smooth="yes"/>
      <point x="1255" y="54.9583"/>
      <point x="1239.04" y="70"/>
      <point x="1220" y="70" type="curve" smooth="yes"/>
      <point x="822.007" y="69.997" type="line"/>
      <point x="822" y="962" type="line" smooth="yes"/>
      <point x="822" y="1073.96"/>
      <point x="676.04" y="1200"/>
      <point x="560" y="1200" type="curve" smooth="yes"/>
      <point x="470.996" y="1200" type="line"/>
      <point x="471" y="1369" type="line" smooth="yes"/>
      <point x="471" y="1387.57"/>
      <point x="455.431" y="1404"/>
      <point x="435" y="1404" type="curve" smooth="yes"/>
      <point x="416.081" y="1404"/>
      <point x="401" y="1388.09"/>
      <point x="401" y="1369" type="curve" smooth="yes"/>
      <point x="400.993" y="1200.97" type="line"/>
      <point x="217.561" y="1178.77"/>
      <point x="50" y="978.425"/>
      <point x="50" y="795" type="curve" smooth="yes"/>
      <point x="50" y="35" type="line" smooth="yes"/>
      <point x="50" y="-7.754"/>
      <point x="120" y="-14.308"/>
      <point x="120" y="35" type="curve" smooth="yes"/>
      <point x="120" y="795" type="line" smooth="yes"/>
      <point x="120" y="966.024"/>
      <point x="298.032" y="1130"/>
      <point x="403" y="1130" type="curve" smooth="yes"/>
      <point x="560" y="1130" type="line" smooth="yes"/>
      <point x="645.068" y="1130"/>
      <point x="752.285" y="1027.94"/>
      <point x="752" y="962" type="curve" smooth="yes"/>
      <point x="748" y="35" type="line" smooth="yes"/>
      <point x="747.918" y="16.0128"/>
      <point x="763.989" y="0"/>
      <point x="783" y="0" type="curve" smooth="yes"/>
      <point x="1220" y="0" type="line" smooth="yes"/>
      <point x="1239.96" y="0"/>
      <point x="1255" y="15.959"/>
    </contour>
    <contour>
      <point x="112" y="46" type="curve" smooth="yes"/>
      <point x="112" y="32.193"/>
      <point x="100.807" y="21"/>
      <point x="87" y="21" type="curve" smooth="yes"/>
      <point x="73.193" y="21"/>
      <point x="62" y="32.193"/>
      <point x="62" y="46" type="curve" smooth="yes"/>
      <point x="62" y="59.807"/>
      <point x="73.193" y="71"/>
      <point x="87" y="71" type="curve" smooth="yes"/>
      <point x="100.807" y="71"/>
      <point x="112" y="59.807"/>
    </contour>
  </outline>
</glyph>
<glyph name="uni1237" format="2">
  <advance width="1362"/>
  <unicode hex="1237"/>
  <outline>
    <contour>
      <point x="1301.91" y="232.448" type="curve" smooth="yes"/>
      <point x="1301.91" y="192.224"/>
      <point x="1267.83" y="158.042"/>
      <point x="1226.75" y="158.105" type="curve" smooth="yes"/>
      <point x="426.189" y="159.334" type="line" smooth="yes"/>
      <point x="385.856" y="159.396"/>
      <point x="351.027" y="191.796"/>
      <point x="351.027" y="232.653" type="curve" smooth="yes"/>
      <point x="351.027" y="274.404"/>
      <point x="386.677" y="306.085"/>
      <point x="426.189" y="305.971" type="curve" smooth="yes"/>
      <point x="711.885" y="305.152" type="line"/>
      <point x="711.885" y="956.621" type="line" smooth="yes"/>
      <point x="711.885" y="994.613"/>
      <point x="627.329" y="1079.91"/>
      <point x="559.923" y="1079.91" type="curve" smooth="yes"/>
      <point x="403.046" y="1079.91" type="line" smooth="yes"/>
      <point x="322.384" y="1079.91"/>
      <point x="160.153" y="941.951"/>
      <point x="160.153" y="794.829" type="curve" smooth="yes"/>
      <point x="160.153" y="397.927" type="line" smooth="yes"/>
      <point x="160.153" y="358"/>
      <point x="127.31" y="324.403"/>
      <point x="84.992" y="324.403" type="curve" smooth="yes"/>
      <point x="44.464" y="324.403"/>
      <point x="9.8305" y="357.228"/>
      <point x="9.8305" y="397.927" type="curve" smooth="yes"/>
      <point x="9.8305" y="794.829" type="line" smooth="yes"/>
      <point x="9.8305" y="1011.58"/>
      <point x="210.562" y="1192.69"/>
      <point x="360.857" y="1222.04" type="curve"/>
      <point x="360.857" y="1350.86" type="line" smooth="yes"/>
      <point x="360.857" y="1390.37"/>
      <point x="393.261" y="1423.97"/>
      <point x="434.995" y="1423.97" type="curve" smooth="yes"/>
      <point x="476.399" y="1423.97"/>
      <point x="511.181" y="1391.68"/>
      <point x="511.181" y="1350.86" type="curve" smooth="yes"/>
      <point x="511.181" y="1226.34" type="line"/>
      <point x="559.923" y="1226.34" type="line" smooth="yes"/>
      <point x="692.866" y="1226.34"/>
      <point x="862.208" y="1091.58"/>
      <point x="862.208" y="956.621" type="curve" smooth="yes"/>
      <point x="862.208" y="304.947" type="line"/>
      <point x="1226.75" y="304.743" type="line" smooth="yes"/>
      <point x="1265.48" y="304.721"/>
      <point x="1301.91" y="274.843"/>
    </contour>
    <contour>
      <point x="1261.77" y="232.448" type="curve" smooth="yes"/>
      <point x="1261.77" y="249.735"/>
      <point x="1246.55" y="264.591"/>
      <point x="1226.75" y="264.601" type="curve" smooth="yes"/>
      <point x="822.067" y="264.806" type="line"/>
      <point x="822.067" y="956.621" type="line" smooth="yes"/>
      <point x="822.067" y="1064.05"/>
      <point x="676.639" y="1186.2"/>
      <point x="559.923" y="1186.2" type="curve" smooth="yes"/>
      <point x="471.04" y="1186.2" type="line"/>
      <point x="471.04" y="1350.86" type="line" smooth="yes"/>
      <point x="471.04" y="1367.81"/>
      <point x="456.122" y="1383.83"/>
      <point x="434.995" y="1383.83" type="curve" smooth="yes"/>
      <point x="415.411" y="1383.83"/>
      <point x="400.998" y="1368.34"/>
      <point x="400.998" y="1350.86" type="curve" smooth="yes"/>
      <point x="400.998" y="1187.23" type="line"/>
      <point x="222.754" y="1166.35"/>
      <point x="49.9712" y="977.584"/>
      <point x="49.9712" y="794.829" type="curve" smooth="yes"/>
      <point x="49.9712" y="397.927" type="line" smooth="yes"/>
      <point x="49.9712" y="380.425"/>
      <point x="65.433" y="364.544"/>
      <point x="84.992" y="364.544" type="curve" smooth="yes"/>
      <point x="105.506" y="364.544"/>
      <point x="120.013" y="380.377"/>
      <point x="120.013" y="397.927" type="curve" smooth="yes"/>
      <point x="120.013" y="794.829" type="line" smooth="yes"/>
      <point x="120.013" y="962.359"/>
      <point x="298.643" y="1120.05"/>
      <point x="403.046" y="1120.05" type="curve" smooth="yes"/>
      <point x="559.923" y="1120.05" type="line" smooth="yes"/>
      <point x="644.354" y="1120.05"/>
      <point x="752.025" y="1021.46"/>
      <point x="752.025" y="956.621" type="curve" smooth="yes"/>
      <point x="752.025" y="265.011" type="line"/>
      <point x="426.189" y="265.831" type="line" smooth="yes"/>
      <point x="406.961" y="265.879"/>
      <point x="391.168" y="250.467"/>
      <point x="391.168" y="232.653" type="curve" smooth="yes"/>
      <point x="391.168" y="215.27"/>
      <point x="406.495" y="199.505"/>
      <point x="426.189" y="199.475" type="curve" smooth="yes"/>
      <point x="1226.75" y="198.246" type="line" smooth="yes"/>
      <point x="1245.91" y="198.217"/>
      <point x="1261.77" y="214.54"/>
    </contour>
    <contour>
      <point x="111.99" y="411.265" type="curve" smooth="yes"/>
      <point x="111.99" y="397.458"/>
      <point x="100.797" y="386.265"/>
      <point x="86.9895" y="386.265" type="curve" smooth="yes"/>
      <point x="73.1825" y="386.265"/>
      <point x="61.9895" y="397.458"/>
      <point x="61.9895" y="411.265" type="curve" smooth="yes"/>
      <point x="61.9895" y="425.072"/>
      <point x="73.1825" y="436.265"/>
      <point x="86.9895" y="436.265" type="curve" smooth="yes"/>
      <point x="100.797" y="436.265"/>
      <point x="111.99" y="425.072"/>
    </contour>
  </outline>
</glyph>
